<mxfile host="drawio-plugin" modified="2022-12-10T14:29:08.841Z" agent="5.0 (Macintosh; Intel Mac OS X 10_15_7) AppleWebKit/537.36 (KHTML, like Gecko) Chrome/98.0.4758.102 Safari/537.36" etag="hInZSUe1mmfHwe2M8bq1" version="15.5.4" type="embed"><diagram id="3M80cEgNjEZLDNLHJaYx" name="Page-1"><mxGraphModel dx="1950" dy="1852" grid="1" gridSize="10" guides="1" tooltips="1" connect="1" arrows="1" fold="1" page="1" pageScale="1" pageWidth="827" pageHeight="1169" math="0" shadow="0"><root><mxCell id="0"/><mxCell id="1" parent="0"/><mxCell id="MKGYFfNuaQKKxcBlgZuw-17" value="" style="rounded=0;whiteSpace=wrap;html=1;fillColor=none;" parent="1" vertex="1"><mxGeometry x="980" y="358" width="340" height="230" as="geometry"/></mxCell><mxCell id="OKXJbW4fyxSgOFdWdKQn-17" value="" style="rounded=0;whiteSpace=wrap;html=1;dashed=1;fillColor=none;" parent="1" vertex="1"><mxGeometry x="550" y="629" width="440" height="211" as="geometry"/></mxCell><mxCell id="OKXJbW4fyxSgOFdWdKQn-1" value="" style="rounded=0;whiteSpace=wrap;html=1;fillColor=none;dashed=1;" parent="1" vertex="1"><mxGeometry x="210" y="280" width="380" height="280" as="geometry"/></mxCell><mxCell id="MKGYFfNuaQKKxcBlgZuw-9" style="edgeStyle=orthogonalEdgeStyle;rounded=0;orthogonalLoop=1;jettySize=auto;html=1;startArrow=classic;startFill=1;" parent="1" source="2h53RSlkPhJ42PSNKKhC-2" target="MKGYFfNuaQKKxcBlgZuw-2" edge="1"><mxGeometry relative="1" as="geometry"/></mxCell><mxCell id="2h53RSlkPhJ42PSNKKhC-2" value="&lt;b&gt;DynamoDB&lt;/b&gt;&lt;br&gt;Attendees Data Storage" style="sketch=0;points=[[0,0,0],[0.25,0,0],[0.5,0,0],[0.75,0,0],[1,0,0],[0,1,0],[0.25,1,0],[0.5,1,0],[0.75,1,0],[1,1,0],[0,0.25,0],[0,0.5,0],[0,0.75,0],[1,0.25,0],[1,0.5,0],[1,0.75,0]];outlineConnect=0;fontColor=#232F3E;gradientColor=#4D72F3;gradientDirection=north;fillColor=#3334B9;strokeColor=#ffffff;dashed=0;verticalLabelPosition=bottom;verticalAlign=top;align=center;html=1;fontSize=12;fontStyle=0;aspect=fixed;shape=mxgraph.aws4.resourceIcon;resIcon=mxgraph.aws4.dynamodb;" parent="1" vertex="1"><mxGeometry x="800" y="430" width="78" height="78" as="geometry"/></mxCell><mxCell id="2h53RSlkPhJ42PSNKKhC-23" style="edgeStyle=orthogonalEdgeStyle;rounded=0;orthogonalLoop=1;jettySize=auto;html=1;" parent="1" source="2h53RSlkPhJ42PSNKKhC-4" target="2h53RSlkPhJ42PSNKKhC-19" edge="1"><mxGeometry relative="1" as="geometry"/></mxCell><mxCell id="2h53RSlkPhJ42PSNKKhC-4" value="&lt;b&gt;SQS&lt;br&gt;&lt;/b&gt;Incoming Attendees&lt;br&gt;to Process&amp;nbsp;" style="sketch=0;points=[[0,0,0],[0.25,0,0],[0.5,0,0],[0.75,0,0],[1,0,0],[0,1,0],[0.25,1,0],[0.5,1,0],[0.75,1,0],[1,1,0],[0,0.25,0],[0,0.5,0],[0,0.75,0],[1,0.25,0],[1,0.5,0],[1,0.75,0]];outlineConnect=0;fontColor=#232F3E;gradientColor=#FF4F8B;gradientDirection=north;fillColor=#BC1356;strokeColor=#ffffff;dashed=0;verticalLabelPosition=bottom;verticalAlign=top;align=center;html=1;fontSize=12;fontStyle=0;aspect=fixed;shape=mxgraph.aws4.resourceIcon;resIcon=mxgraph.aws4.sqs;" parent="1" vertex="1"><mxGeometry x="630" y="690" width="78" height="78" as="geometry"/></mxCell><mxCell id="2h53RSlkPhJ42PSNKKhC-25" style="edgeStyle=orthogonalEdgeStyle;rounded=0;orthogonalLoop=1;jettySize=auto;html=1;" parent="1" source="2h53RSlkPhJ42PSNKKhC-5" target="2h53RSlkPhJ42PSNKKhC-2" edge="1"><mxGeometry relative="1" as="geometry"/></mxCell><mxCell id="2h53RSlkPhJ42PSNKKhC-27" style="edgeStyle=orthogonalEdgeStyle;rounded=0;orthogonalLoop=1;jettySize=auto;html=1;" parent="1" source="2h53RSlkPhJ42PSNKKhC-18" target="2h53RSlkPhJ42PSNKKhC-8" edge="1"><mxGeometry relative="1" as="geometry"><Array as="points"><mxPoint x="140" y="470"/></Array></mxGeometry></mxCell><mxCell id="2h53RSlkPhJ42PSNKKhC-28" style="edgeStyle=orthogonalEdgeStyle;rounded=0;orthogonalLoop=1;jettySize=auto;html=1;" parent="1" source="2h53RSlkPhJ42PSNKKhC-18" target="gWZWCoP-DDjCs7tJkQ3K-1" edge="1"><mxGeometry relative="1" as="geometry"><Array as="points"><mxPoint x="140" y="145"/></Array><mxPoint x="140" y="150" as="targetPoint"/></mxGeometry></mxCell><mxCell id="2" style="edgeStyle=orthogonalEdgeStyle;rounded=0;orthogonalLoop=1;jettySize=auto;html=1;" parent="1" source="2h53RSlkPhJ42PSNKKhC-18" target="gWZWCoP-DDjCs7tJkQ3K-2" edge="1"><mxGeometry relative="1" as="geometry"/></mxCell><mxCell id="2h53RSlkPhJ42PSNKKhC-18" value="" style="shape=actor;whiteSpace=wrap;html=1;" parent="1" vertex="1"><mxGeometry x="120" y="198" width="40" height="60" as="geometry"/></mxCell><mxCell id="2h53RSlkPhJ42PSNKKhC-24" style="edgeStyle=orthogonalEdgeStyle;rounded=0;orthogonalLoop=1;jettySize=auto;html=1;" parent="1" source="2h53RSlkPhJ42PSNKKhC-19" target="2h53RSlkPhJ42PSNKKhC-2" edge="1"><mxGeometry relative="1" as="geometry"><Array as="points"><mxPoint x="840" y="510"/><mxPoint x="840" y="510"/></Array></mxGeometry></mxCell><mxCell id="gWZWCoP-DDjCs7tJkQ3K-10" style="edgeStyle=orthogonalEdgeStyle;rounded=0;orthogonalLoop=1;jettySize=auto;html=1;entryX=1;entryY=0.5;entryDx=0;entryDy=0;entryPerimeter=0;dashed=1;strokeColor=#3333FF;" parent="1" source="2h53RSlkPhJ42PSNKKhC-19" target="gWZWCoP-DDjCs7tJkQ3K-4" edge="1"><mxGeometry relative="1" as="geometry"><Array as="points"><mxPoint x="970" y="750"/><mxPoint x="970" y="319"/></Array></mxGeometry></mxCell><mxCell id="2h53RSlkPhJ42PSNKKhC-19" value="&lt;b&gt;Lambda&lt;/b&gt;&lt;br&gt;Attendee Writer" style="sketch=0;points=[[0,0,0],[0.25,0,0],[0.5,0,0],[0.75,0,0],[1,0,0],[0,1,0],[0.25,1,0],[0.5,1,0],[0.75,1,0],[1,1,0],[0,0.25,0],[0,0.5,0],[0,0.75,0],[1,0.25,0],[1,0.5,0],[1,0.75,0]];outlineConnect=0;fontColor=#232F3E;gradientColor=#F78E04;gradientDirection=north;fillColor=#D05C17;strokeColor=#ffffff;dashed=0;verticalLabelPosition=bottom;verticalAlign=top;align=center;html=1;fontSize=12;fontStyle=0;aspect=fixed;shape=mxgraph.aws4.resourceIcon;resIcon=mxgraph.aws4.lambda;" parent="1" vertex="1"><mxGeometry x="800" y="690" width="78" height="78" as="geometry"/></mxCell><mxCell id="2h53RSlkPhJ42PSNKKhC-41" style="edgeStyle=orthogonalEdgeStyle;rounded=0;orthogonalLoop=1;jettySize=auto;html=1;fontSize=19;exitX=1;exitY=0.5;exitDx=0;exitDy=0;" parent="1" source="2h53RSlkPhJ42PSNKKhC-43" target="2h53RSlkPhJ42PSNKKhC-37" edge="1"><mxGeometry relative="1" as="geometry"><mxPoint x="253.03999999999996" y="754" as="sourcePoint"/></mxGeometry></mxCell><mxCell id="2h53RSlkPhJ42PSNKKhC-22" style="edgeStyle=orthogonalEdgeStyle;rounded=0;orthogonalLoop=1;jettySize=auto;html=1;" parent="1" source="2h53RSlkPhJ42PSNKKhC-21" target="2h53RSlkPhJ42PSNKKhC-4" edge="1"><mxGeometry relative="1" as="geometry"><mxPoint x="570" y="639" as="sourcePoint"/></mxGeometry></mxCell><mxCell id="2h53RSlkPhJ42PSNKKhC-21" value="Go Program&lt;br&gt;Uploader" style="sketch=0;pointerEvents=1;shadow=0;dashed=0;html=1;strokeColor=none;fillColor=#505050;labelPosition=center;verticalLabelPosition=bottom;verticalAlign=top;outlineConnect=0;align=center;shape=mxgraph.office.concepts.script;" parent="1" vertex="1"><mxGeometry x="430" y="689" width="86.53" height="80" as="geometry"/></mxCell><mxCell id="2h53RSlkPhJ42PSNKKhC-36" value="&lt;font style=&quot;font-size: 20px;&quot;&gt;&lt;b&gt;&lt;font style=&quot;font-size: 20px;&quot;&gt;CLAMS&lt;/font&gt;&lt;/b&gt;&lt;br&gt;AWS Infrastructure&lt;br&gt;&amp;amp; Data Flow&lt;/font&gt;" style="text;html=1;strokeColor=none;fillColor=none;align=center;verticalAlign=middle;whiteSpace=wrap;rounded=0;" parent="1" vertex="1"><mxGeometry x="505.47" y="-10" width="256.53" height="42" as="geometry"/></mxCell><mxCell id="2h53RSlkPhJ42PSNKKhC-40" style="edgeStyle=orthogonalEdgeStyle;rounded=0;orthogonalLoop=1;jettySize=auto;html=1;fontSize=19;" parent="1" source="2h53RSlkPhJ42PSNKKhC-37" target="2h53RSlkPhJ42PSNKKhC-21" edge="1"><mxGeometry relative="1" as="geometry"/></mxCell><mxCell id="2h53RSlkPhJ42PSNKKhC-37" value="COBOL Program&lt;br&gt;Exporter" style="sketch=0;pointerEvents=1;shadow=0;dashed=0;html=1;strokeColor=none;fillColor=#505050;labelPosition=center;verticalLabelPosition=bottom;verticalAlign=top;outlineConnect=0;align=center;shape=mxgraph.office.concepts.script;" parent="1" vertex="1"><mxGeometry x="280" y="689" width="86.53" height="80" as="geometry"/></mxCell><mxCell id="2h53RSlkPhJ42PSNKKhC-43" value="" style="shape=image;verticalLabelPosition=bottom;labelBackgroundColor=default;verticalAlign=top;aspect=fixed;imageAspect=0;image=data:image/png,iVBORw0KGgoAAAANSUhEUgAAAggAAAFhCAYAAAAV71JsAAAAAXNSR0IArs4c6QAAIABJREFUeF7sfQeYZEXV9ns7Te7JM5sJooLy6Wf4vt9PMSBiJggoSTIILGFBwhIWZElLhgWWHCULkqOCKMEERsyiwObdydM907nv/7ynunru9HT3vbf7zuwszn0eXKe7btWpc06d89Y5p6oNANsD+AxmnhkOzHBghgMzHJjhwAwHZjigOPCSMX/+/IUAVvAvU/5H/nfmmeHADAdmODDDgRkOzHBgM+GAYYwnlJ684KOiMyndzjjG2GabbRYahiEAob6+HnPnzoVpAQmGZVTr53ok6/cKX0wEGIVtnLQr1g/f84IeGMY4xtnR7ISWUnPyima3fK6U5kpk5USeTtrYycFJH1ovvejLCQ+9GMfLeU0lPXZj2X3vpayc8HBK5Vlis+XFOnbbhxPelJKFk7E2NxtXzHc50VUv2lSqg4U+q1Cm6TTw1lsmm3n2mCbGA4Ttt98eS5YsQZqjFTxO0Yhn1BXpqFoaSr1fbb9ezNkNDU7aOmlTjYwr6d863n+SLCrRDzf8ddO2ElqcvDNZ8nQzNzdtncwp7zQd7sTEaDto66SNG/qcruNqx632/WrmNFmy8IKmcn1MFc/6+00cc0wMfv9Eaipdm6ZpjgcIH/zgB3HmmWcik8mU5VuxAb1mhF1/1u+JmtxmRqxxjlKgywkNgp4nW8vK9D8VsrCbnh2f7N53YljtxtDynJHFRH20451TB+PUSLsdr5h+2PVRuP7pma1ruvB92oisObVr1Yu1WY4PPh+QzZZfXXZ8dLo2y9k5J2MUtnHyjhPanLaZ4C9y2fSptBde6UMxWRAgHHtsDD6/dzo+IYLgFCBYhRKPA6mUiaYmxep43AQDEI2N7lm/YUMGPT1ZbL99cILcuRi4yDV2sTL7Jz9JYLvtgpgzx5cHCnYKWPh9MmkikUB+HnaKt2pVFul0FltuFXAFEEj/0JCJtrbx/CHyI8gpXPCF87ajy8n3w8Mm/v3vND7ykaCMaccruz7ZRyRioqYGqKlR8+I8OU5rq2Hbf7XjOwEYdnNw8r1bWRg+4K1/Z4QPLa0+zJntQyDgZKSJbdyOXdkoE3WBerl2nYmejRnU1Rl4//v9sr7LPgTsWaXnLS0T7YAX8ub4pK2nx8Trryfx4Q8H0d3tK0pWNGripZcS+MAHg3jP1v68DamUR168Rx7+/OcJsWnz5gWw1dY0AON7LgZ62Z5rjXPeuDGLj3wkhPe9zy/9UEcKZVOM19qOvvVWBuTN7Nl+zJpliO3hd/0DJtauyWDuXD9aWilMRRf7Hxw0EQoZqK1Vn9Hej4yMX4G0A6XsP8cYHDLR2mLIWMkkMDpaXE/s+Eza33wzjY9+NDjBbrJv6kchPziH115LIdzsw3u3KbLdLjOolZf0eZx3Mf0u1sXQUBb//ndGaHW7mdX9lVs3GiAUiyDY8bHU97YAwclCfvjhOP70pxTOPrtJJv7EEwm88UYK3/teo70hKaDsscfieOqpGG66qXXcNxT2H/+Yxt//kcEee9TAZ7E5pPHEE4aw6651+MIXQraIuhgz2P8rryTw/PNJnHVWkywE6zOBDwZwy82jYvhPPLEhn/ex4xfH+elPk7jmmiiuuqoF8+apgTjeD3+YwFZb+fHf/z3mQfj5Sy+lMDoKfPGLE0FTpYL/3e/SuOKKCO6/v03AXbVPKgUsWRLBggU+HHtsg9iTl19K4tZbR3D77a2e5sUKaS3FcztZuJ0zZfHLX6bEIX31ayFHoPDWW2N44skY5s31gUD6zDObRMaVPK++mhZjvPPOyhh6Pb9iNHHO990Xw49/nBBwsGZNRhzSkiWNRWWqafrrX9NYvjwqjvi221qQzni3q7HSef/9cTzxRAzveY8fRx/diNmziwMErtPLLoviz39OYbfd6vDtb9dNWONl17uNwCqRBWV5wQVR/POfKXz0oyGcfnqjI+BCZ3riiUMIh32YM8ePbbYJYvfdQ/jznzP4zW9SOPDAWtt+RkZMnHNOBNGRrAC59eszWHpuWEDWG39M43vfG5K+16/Pij3k53TkzzwTx+23R3HwwU3Yc88asfdPPpnEnd8fya8H2pNPfCKE004rPh9uAI8/fhB33tkqm4mf/SyJBx6I4cYbm4v6i3K8/dvf0li2bBj339+ORELZMd3+nXeyYmsPPXQ8PwJB4LJLR9DY6MPhh9dVshTlnd/9LokbbxzBihWtRcP6hR3/6ldJXHllFA891ObaLzohcpMABCeE3X1PDH/4fRKXXNIszX/wgxh++9sULr8ijHRKIVIqF42N3gVRiHTydCxZ00RNSHl8AgQq4fXXtyhh53wXd12PPpYEIwWXX9YkYZR8SNGEGKAAQysFm5VMFkinuLMd+4J96pQE0WUopGb5wgtxPP10Ahdf3DxB4BKezHJXbMLnM2T8W28ZFSR/wgkN4mT9AWMccNG8K1TwCy6I4MknYzjxxCZ861t1otCk/ZRTIvif/w3JwtOInfO+7rpRQfSnn9YwjieaJo5NRK8XB9/VOwm9q9C08G/ynGBr+fII7r23DcmUKXQnkiYCfmOc4dTt+X65nS9pOPa4Yaxdm8aDD7ZLFObkk4fxpz8l8PhjHcJv1ReLaNQYWgZjslDz0DLn5wr9K55r2Y7JYkyfaJ3IAfIymTBRU6t2PVrWdFRE1jrEbO2LhiUYVP2LuuX0g3/TiNfWKpo4/9vviOOf/0zj3KXKQZbbCfT1m9jl6z146KEOAYKxmIkAdYRz5zhWkFuwVSRNlIWV5zfdHEckksHiUxvGG5jcbp1y1bpMujhOKq10i/PXPLca0byO5sbXPNCksR/u0sif+nrgz3/J4PDD+vDjH3eivr54hHDDhiyOOmoAH/t4DV77dQJPPtkh66bwqcSpWvX4lVdSWLx4ALff3ob3vz8wYWOg5aojc5z/ylVZfOeIfnznO43YY49a0D6UTS8yYplW6542xKqb7N/vN+AnnrfomrJ3StZWHbfOX+sl21x//Yjsyk87rWGcY9f9cAzrhuV3v0vhkkuUU7Tq4I+fT+IHD4zijjtaZU1boxGa1/pf2jKCpuZmReMxxwxiyy2DYsuOPnoQX/5KLfbdpxZnnhnB2rUZXHd9C558PIH77o+iqyuIT/xfCAceoBwv1whBi9arCy8Yxoc+FMLBB9cXjU6u35DFgQf044kn2gV0PvtsAnfeOYIHftAutnps3Y/XWQqKskhnTNTmZPH3v6dx0UXDYscY/ZVoaE73X3s9jWuvjeK+e8f4odc35e7P2SCrXGgfUsmxNa99kLYXlCv1gO1+/askrr46gu9/v32cv8jz2rT4CwP49WtJLF/OebYiHgMYXSQNXq0LJwChUA/sNle2EYRyAEEv+XssAIGfPfiDOH772ySuuCIsSrh48TB+//ukKPknP1mLiy5qksX86KMJXHbZkCzQufMCuO22Vjz/fCIPEDb2ZHDgAQM44YQmfOhDQTz1VAKvvZbEd7/bKH1tuaUPb7yRxnHHDcjfF1/Sik/vEMwv+rffzuLQQ/uRTGZl3IsvDosS7bVXHy69tAWLFw8iEiFCbsbndwrhJ0UAgmbgz3/OiMiQoNTaOgMrVrTIDlkbz/vvH8FWWwXwwANt4ghKMZ4L6YgjhtDR4ROHfMvNzQKe3n4rg8uvjOKDHwjiC1+oEcew5ZZ+rF6dxT33qEjFoYfWC9/e8x6fGOzf/jaNU04ZRDyexWGHNeKgg+vxxz+kcd11UWl76qmDaG7xyw6+vd0ni4sL/pe/jEs/W28dkIXFBb5sWRTPPjuK+nofbryxNb/LvffeOG68MSL8Xbq0GZ/9bKioU9QA4Q+/j+Pmm9uxYIEf++zTB6J1AgQ+NEKMNHGxfeYztbjkkjC++tU+nH12GEuXDoEhuFNObcZXvhISp3b33THcfPOIGOeGBh+efKpdgMyf/pSReY+MZGVhXn11i+jHX/+awcknD2JoKIPPfrZO9OzSS0cEXDzzzCgOPLABjzwyKsbsiSc6kE6bOPvsCF55OY7GJr/wgiHqhccMYddd6nD99cNYty6DI49qwiEH1+HttzN46KE4Vq7M4KijVNRoq62ULMYZ/9wfsVETO+3UgyVLWvD1ryu+qUhRHD/8YQz33tsqcuB/J5w4jD33qMNHPhLA/vv3o78/I20POaQRhxxSj7//PYNHHo1jJJqVvzk2ozV0ML/+dRpnnz0oerf33g045ph6nHVWRAz+PfdEccKJTbjr+yMCdO66q3WC/NjXI48m8NSTcdxwgwLHNPxLl0bx4f8O4pt71QiN/Pz7d8Vx801R/OTFjqJgWBtU8vbf/86KnJ56agwguAUFBbgp74TiMtd+0Z2Pf3x8ZC0WI98GsGpVSmg+6qgm7Lef2ilyrq++qnZyt9zaiuZw6TQo2z77LDc+at23t/vx6KPKKdOmvfJKXHh67rkt+PSng7j++lFZt9SvBx8cxfvfHxQZn356RNJsxx+vAEA0YmLX3Xqlr5YWH264YVR037rjJt3nnz+Cp58eEd2/4442iY4QfL3wQhJPPjmCc85pEVkyeqI+T+BHP4rj3HOVnaN9JH2lHi0L0rzbbv04+ugGvPe9ARx1VB+eeaYLfX2mrGGC0sce60Rbu0/4ee65Ubx3m8C4SIXu65lnE7j/PqXbpSKTpPWAHECgLX3u2STuvDOKH/ygXU7AnXFGBD/7WVzI3mYbZaPI/x//OIVly4bE3jU3+/DMMx1gpEoDhA0bszjowEGJDn3iEzV47fUUHrh/FBdeGBZAPX++D6vXZHHCogEwgnLU0U0CgsYiDhksXDiIwcEMZs8O4Pvfb0U4bOCoo4bwjW804JprhtDTk8GiRWHsu28tfv7ziQBBb3y5XumXYjFVILJ0aQsaGoCrrori2GMbcfrpQ+jq8uOGG1rENnuxLqasBuGMM89E1qZI0boLoSG/++4RWRB8aFTpLC+/vBnf/e6gGF8arRdfTEnObflVYTz+eAIrVhB9tcmusa8/iwXz/XjqKRVBoJLTUHKX/eUvh3Df/Qm8+koCq1dn8KlP1coO/oBv16K1zYfhoSxOOmkYhx7agB13VAChZ2MWe+7Zh1tvbcOsWT5w184c8CknN+LrX+/D6GgWN9zYin/8I4NHHh7F/Q+04ZmnY+MiCFpo69ZRoftw8cWt6J5lYMmZEQkH0tDcd98odtqpFgccUIeFC4ew++71EtIqVQzF1Mu55w7jootaZCE++mgngkHg+hti+NlP4+jq9mPrrYOimIceUgeCL+ZO6cQ/+rEaCQcuXFgnO46jj+4XxSNg4FyvvJKLEjjhhAHMn+/HNde24uKLoth6a7+E/c8+e1jC40vOasRf/5LGbbeN4J572uTfV15J4rLLwhLqowO+/PImvP56GmecMSSgh/UKF18cxS23tE6onaDMaQyOXxSRvGJ3tyHyf/zxOPr6snjwwTYceuiA6Af1gFEaLt7rVoTxpS/1YXg4K05+/QYCpqjsLB59NC50nXdes8j6mIUDePbZDvT3UxYDOOnkJvzX9gGcfvowjjuuAdtuG8Qee/Ri8eJmbLutH3vv3YfLLmvFyy8n8OqrCeyzTz2uuSaCCy5owTnncE7tuPnmKCIRgqZGAVWRCI19oxiEN99M4bzzw2ht8YkzuOWWFjz1dFLAxOBgFv/zv7XiKA47rBZtrcXD2uTLq6+mcMopA/jYx2rEUDGyMjBgioGkcZg7z4+//TWDJUuG8Nhjbbj11lEBUWcuCQtPQ0FDDMvlV8Twt78mBUx+5KMh2XlxB0fH/Y1v9OCqq9rQ0WHg4IMHcMUVraKXb72Vxqc/HQLB68knN+P66yN4+mkF1goBDdfgF3bqEb388IcDWLUqI+vvhRc68tGVl19O4vwLhnD//R1oaZ4Iigpd0d/+nsGpVQKEUrurf/wzjUXHD4jjykdNmA+PmTjwwAF8/vM12H//etlJExh3dfvykQKupaOPHsCRRzZKKFw/ViNN2b7+OmU3hGuuaZH1RD2dN8+PK68axd//lpINB9cFjf1tt7fh4R/G8NhjMXzpS7XYZ586HHXUIA44oBEf+1gAixYN4tZbW8XJP/10EvfcM4K7724VEGgFCIyEEgRzp0nnd/HFTfjFL+hAYwLuGDJ/4ok4/vGPJHb8fL3M6dhj6/DUU0mxE9Tbz+9Uh1QSOOigGqktsNpq6xz1bppOsanJh4suCoPRifPPH5II0d57D+CAA+px1VURnHNOcz71ec45UQESTGWQXgFeUPUm3/wmbW4r5s33l4zMMIKw5x59klZRNSTKidJOnHYaNwpqTdLJLr86gqeebMdLLyWFz1dc0YwttwzIxo71ETqCcPnlrTjssH7sskudbI5+8IMEfv1aAn96I4Wdv1gn62SvPWtk40JwcNnlUbznPUEcdKACCATzBJW0E9ygXXfdCGj3r7oqjMMPHxKwecEFzQjVGFh6zrDM8e9/T42LIGje0kcdeSRtVBj/8z9BSX9/a+96tDQD3/3ukNB/1VXNWLJkWNJDBIaptOkoZVkS7QGQUwzHxmRzVbi+C9dmYSShJIgsPOZYrEjRDt3Qif30p3EcdVSjjPPiiwkR+jHHNOCUU4ZlV9La6sOPfpTEs8/FcfllYZxxxjDe854ADj+iflwojE7lhhui4C7gjDPC+OIXczsvP/DE40m8oFMMvvHh3cMOH8SBBzTgczsGpT86vHPPHcKzz3aKIWfKg9GK227rwC679Iqw//d/g6KEZ545hKeebsdTT44HCJppixdHxMkevbBe0P/xxw/hlFMb8eorSbz68ySuvaZZkDp3uww/X3Z5szjyYs+yZRHZ9S1a1Ihvf3sAixY1YIcd1EI5+eQI/lenGHLpFYKH666PiWNkikGH0B5+OCE7+298g1EFU4DVwoXMwfpx9tk04gzzA3fdFRNQRT4fdeSQyILRiz/8QdUgMGpzyCGDaGwEPvCBoMiNvHrwwVYsPXcEf/lzAjvvXItY3MSLP2HEpxnbfUAVZVr1QgOEffepx3XXRcSp7LprLe69V4U8d9utV3btDGkycvSTF+O4/rpmfOELfTjllCZ87nMhKeA57rhBvPxyB3b/Rj/227ceX/1qjdC03/4DePaZdtxwQwy9vRksXdooO+bjjhuS3fz6DcAlFxPp1wmPKJfPfbZG2rBYio6SUYr77mvHl7/ci9tuaxOjvcUWAYmWMNdK8Pbww2045pghKd48+uh6RKPAPvv046abVL3InXfGQefEFIMY3omR8wli57wuvzyKlSvTuPLKFinyu/GmUfzkhYQY/aVLhwVQHXZYPX7165Q41U9+sgb77VePbbcNiG5Qh2++JY7hoQwWL1YpBn52z70J3HjDMPbYo17G/elPE8KDv/wljU98IihpgOefj+OUU8M48IC+ogBBDLwBXHhhRAAma4luu20U77yTwbnnNkm/3C1dfkVU1s3731e8hqLQThQDCOUMnNWRlWvH0OxPX2QUYBiPPdYxLuzPeR9zDIFNV8m6F+rmscf24zOfqZM0QzEZ8rOlSyMSUaId04XD5PsXvrAR11zThg99KCDvnnTSIL74xVq8+WYGf3wjjauXh0X/V6wYwcBABhdcEMbxx1PGfhx5ZAP22KMPN9zAiIBKHRRGEAh49t5nAE2NPmy3XQCRqIkf/yiOxx5rl/VDZ3nHHRHcfjt33GMhdZViiOGOO1RUsnBehfLhnLhxYirskovDUmDMGobzzx/GokVNslm47rpmfPWrvVi2TAFHPucsnRhBoI7uu+8A9t67HrvuqmoTij38eOOGLPbdtw8XXtgs4fpf/zqFl16K46GH2rHDDj0S8aQjZxqUm6lnnmmXqALt2QknNI5LJREgcEPU1ubHZz9biyOPVGkNGqjXX8ulGO5rlZRPPl0d5EYggrlzAwIQ+LDQkRHXH/5QpUOVnDfgiSe6cOKJw/jkJ0NSr0Dwsv/+CgQRHBamGKib994TE6B15VVhMZJHHDGI3b+hAALXOnU2GALuuzeG3/4mgSuvKh1tsfO9Vh47STHYAYdCmY1LMZCY7R0ec7Qu5lI1CHvtVSs7s5tuYpQAWLFiFG/+Ky071dNPY54qiP2/XTcBIHz/+yMSpvvWtxpw0EF1+ercxx9PirFj6qKwiJAA4YADVASBQmG4jXk6AgQ+f/5zGuedN4hbbmnHrrv2yc6ZaP6f/8zgtNMG8fQzHUUBAiMB3FmdfXYzdtwxJFXDRx81iAuWhQUgsAbhuOMbZMyzz45iu+38EuIqtjgJGg48sF+Ki+bP8+M3v0thu22DWLq0SaIIrEH4+MdD2GuvmrycuPDoFPt6szj9DAUQ+BCUPf10DEccwfoHZeBpTLgLX35VRHYnbMt2b7+dxl571eH00wdx993t4jQIMB59dFQUfb/9BvC5z9VIJTQfhhw/85kaLFo0LM51p51CAgaYL2MFLsOihQ93aosWRXDB+WEx0FxgS5eGceaZw1i+vBkHH9yP555Tu70bbxwV5H/ttWHsuGMfrruuFVtv7QMrqo89dgA/+1knPvOZDbj44jZ86MMBvPlPhvQH8NyPOnD4Yf343OfqcMghXKxMuwzg9DOaBFzQOB5xhDIQ1A8amUceSYhDZqiShaHctX/pS70SWTr22EHssmutRK7IPxp1yvg73xnCt79N4BYQPWQom0WzAhC+HxfadQ2CncPT37N/FpYxnHjOOU1Sxf3Vr/RKgdPixUNiFLu6fEI3dZI7Ueo6nf3hhzeIwbv11jgGBzJYzFx1Ws2RuvHKqwkcwHWUK3bdYgs/bropJjKng3rjjSQOP7wR++3Xh6ee7ii5U9Eh5auvbsVJJw3gnnvaJTROoHDqqUM47fQmfLTIqRedny3U+UoAghN+cjwa4LPOGpQIgrYF/JyFescfT4DQWRa8LVw4gD32rMcXdhpba9axue6XnhOVMD2BmwYIXGs777wRN97Uhve/LyDRrVNPHsT/fbJWoi6sFyCwZAD29DMi+MT/C2LPPWvF8V5wwTCOOrIR198wIkBUy6sQINBp7r57H3bYoUYAIudFO/CpHWpQE4IU9d15J8F9DiDk6rmefyEpIfU77mgRgFDuIc/uuDOGl19KCPjVMmT6jA6woyMg65bzYfSUGw7qZzGAwHd/9SuG/yMSBbA7pVOqBuHue9rw6R024sknO+VkANPNN900gqeeasdppw3L+EyDaFnQJv3j72mJOjCyM2uWH6efPlZgzhqEa66O4D4WYieV4eT/Miq3tAAgsHiVKeRHHmE6jDbQwA47rMcjj3SKXeYa/MQnGLkwsf9+/ZKeYoRuAkAwgMsu4ybQJ8XrXGz77D2Agw9pEIAgNQgPKNt82WUjEmk+9VS1nt2AgWJtpyzFUO4ehGKE0QmxxqCwSJFGnCEVVutzJ3bmmYOYPz+IW29txv33xySMTCWkw6KxJ1p/8kmVYmBF7cEH9Utufc+9aiXsxnAtw8NUQuaVSUtT7ijl4UcMYa896/DZzwZlN8/CGu787ruvTYwyQ0Z07suWhbHzzr246642ORKpAQLzWSwcZJHk975HAKLQPUP9dBDve18QJ53cgOVXjQjaJep7/bUkenuzorRKwVThEI1qsYdpFCrXGWc2SxiIO3vugn70o07ZGbCimTvxU09tlFML/IxI84H743juuRiuvaYFyRTkeBHrK4h4uSMl0KFycGGyZuHKKyO45x4NEOJ4++2UhAoPOXQAy69qEdTOXD3zeHff3SZ5MaaFlixRu0VW/xIsPP/jJG6+JSoggo6dITdGH8gT/Wh90BGEpeeE8dZbKakb4NEt7tIZnqfBYzqJVfDcoWzz3qDUX3zucxMBwssvd2LnnXvw9a834Gtfq8FZZw3jH/9I4Sc/6ZSTEkPDWQnX33brKB55ZATLl7di/nyGPJkGYspFhRH5H3dBLGAjQLj66ihuvFEBhLvubsPVy6OiG5QfjQJBBgHJkd8Zwv77N+DTn/ZjNAbs/a1+3HRjC+bM8+OpJxK4/Y4RqcDWhY91JQqhGQWjQdHHoC65ZASGYeKcpU1iEJZdFMWLP4njU5+qEdBAHr7xBtNzfjQ0sHgrjvu5I7y9RQwWTwfxhA/XDE9EcMfX0wMcfHAfbr5Zha+ZemK+lvnwPfecCBCKpRi0LOmEGPFj6JThW9aiMDp1/vk8jWDihEWN+ZCyLm4jDxj25t8Mp9LgEQgTWDHS8r2zh/GDHyhnyLSIVw/X3b779ss6ZgpRP6xL4bo/8MBGfOUrqnaCTr29fWxsAp4TThjClVcyXD0+BG8FdC++mMSKFVEsW9YsvOWcqP+nnBpBYwNw6uJGOQrINMRll7XgmWfjUpR92OH1+MPvU7jwQmUPuF4IPglKGKU6+ugmfPObaueqIwiMkn33uw2SbuVm4fzzI4gngNMWN4ozeWdlRvL+XIeFAIH90ElzJ37eeUOyEydA4GfUo6K2qM/EQQf1S6i7o2NsY0AbcuyxKj++9FzWroxKioPAOpM1kUwAF100IoCeaRTSQ5oZVWVh4qGHjl8MxfyFtQbBWqRIuj/xiQ247PJWsetMb9IOP/0Mo7ssXB/BueeFZXPFyCBloVMMTK8yrP+pHWpx3LGqRoe2nXUAP/yhqhthXQZtM2VBgMB577dvrfCItWQHHTSAE09sFD1mndDTT8dlo8WascMOa8D//V8OIOzfL6lWAgTa2utWtMLnV1XSrGlhJJnHKK+5phnXXT+KRx4ewamLm9HdZeCKK6ISUSWYJLA57bSwRLKdRCLt1k6pFEOhrbbrx/p9PoIAw1hBVdIphnQmM/4q4jKXAd17bwx//Stz62Hpm4Vcf/gD85VhnHnGMH7xiwRaW/2Sx1q8WO0kKaxLL43ixRfjaGhUFwBQGD/7mSpSvPbaFtkNnHrqAE78bhg7fyGERBI47NABcZLMGTEP/ZlPq7oHKjWPCzGvxAiDKshi3m4EzS0+NDYYstC5+919917PPXNZAAAgAElEQVSpfOaiZ1iQoWcqERXiwguH8jNluJ6haKJqhiQTCQN77VUv+SjmGd96Kyu1F7W13PllccIJ3BGP5TQLBcMjb++8w2M5dAYqjLXLLj24cFkrPvqRgOQcGa7s6AxgaDCbL5KhMVy0aEhWfH+fqijeaks/eLz0ppuiUrewcQNDmc2yoJiiuflmVcDEI2qijKc34sILogI0amp8OP74JinYu/32FgEXNJgDA1kxqHS2l13WJE6Jzpm7NZ4ZJqi59NJmAVaFD53biSdG5EgUz1NzbN4TwSI1ghD2/5e/JDFvXlB2tg8/EsUD93dIuJ85cxb7KdAzIGHwhx9J4NJLhuTEw8KFTbjhBoYaO7Fxo4kjj+wTwLnjjmrXtnBhvaQEWNfCquWOTr+c2T/55Cb88Y8pvPe9fkln0dhfe10L9tqjT4ACC+noEAkkSP92HwjivPMbcMrJUdn1/d//0RABRxw+jMsub5LaCo577DHDwmcWljEE/8Hti9cg8NrTRccPYsGCoMibdS/LLmrC/PnKaNOwfu6zA1h+dRjbbutDNmNg+XJGDhKYMzeAjRvSOOzQBnzzW8ro0igedtgA0ml1Xp16RPBz220xqTNo7/BLPQ6NDlNOjD6w4Irg9eCDG3DEEf1ywoRPqd0Kj7/yZMCFF7ZI8R9pPO74IbzxRxaNKbppbBUQ9olhPeroQXR3+bF8uSoGY7rmiCNIJ4sdswgGfXJMjqBunPGp4oIxOtbzzo9KMfQ9d7cK+NAnA/71rwxOPHFQnTpi7nmveqnnId0ENCyW7ez04fwLmgX4WF2olS90JATPjOawUJAFdA8/0i7g7jvfGcRwJCs1D7vvXicgk21ZnBgO++H3Z3HyyWFJH+qHjv3SSyMSPdCnjjiPW26N4f77osInrq8PfjAgNUcnnDCMNWvSCNX4xPGwMJqbA6ZPH3ggimuvbRvnWKgf3GnTXlGfuZv+1Kcm2iPS89bbGSw8emDc6ZJttgnJ5o21R9xAbLFlEO+8nRaamE5h1PGWW6NIp1T+lGuAmynOkYXfdKJMtdg9BAislXn00TaR23PPJfHggyO4/Y42nHduBD/+cUxqIpgyve66YbzwQreA3muvHcFDD42iodEnNLD4lcccL788gjvvbMM/38zgiMP7JdW9226qRoh5ftovFl9/81v12GfvGomEXrhsBM8/HxM5EMBKKu6FhPgk6jXtL0ERU8usSWJ0+v/9v4DoO6Oh11+vAMKSJYPjtPjOO9uF99Qxrvedd66TeglGlt///pBskuvr/RgdZVRUAUVruZ/OzFQCpd2mGMrJKV+j4KQGwU7g+vgiDQI7VscNDTHAFBJ3UdytcjfCI0FE2UrB1IIlMqcDyqR5nG38ET06KS5iHVbi38zHU7G4g9LnweX4mME8kxpXGzJ+T6FyFyeCMFT4iMdpdBuG0ShUjk0EbWFO/jgZ+2TfHNNg9IJbpZyxpBOpq1d0Fl50YuWdvsDCqhAcj3/nj9/5gL5eEx2dBrKWyyz5LkPA3KmRTjGG/DfL4hS1s9coVF8OotMC2jDyPe4wuQB4tNTvG+MV6eB3/JeIWtPIvrhb5QLl2OVqV3nMkzwQ2nK84WfkNcfWl+ZQJhyHTpOnHCS8ljtayM/lSKwfGB1RR4pIg27PCAkXLauD2Y4Fp6yj0DtB8ru3z0RHu/qtDeFRLk/LfgguDUNdcOX3+eAPsMiVx5rUBU9SrR8wYFLnLDSJbudWL/WFxZfcGeojdMXWiM5lkuaaWmD2LCUjvsP/HnqIRwDjuOnG5vxZO/IpkchKCqKxgcc1ffBxErmH77HIkQaNO02dTpHLZwZ5+ZZyZKSROz5ZZ7kjuta1V0iv1nnSTF6Pm29A9WF99Pd6fdOZcm3oNaHDzPlUdG5dugmjWscr9h51jXlvXji2cGEY22/vF3mTVNLDdcEUmV4P//hHFtdeOyyA+Prrm8UmleKD/lzbKIJIbi60bWGfPFnEjYie6zXXqBMzjCBQPtncWuD3wZCBM04fFvBwwgn144qY2ZdOk5CvObGJHaXt4ow4D31UVGwkLwDK2VHrHPQ6I13c3Vt3plbno+U8jsc5GfE76hP1lmk1bW/4r+i7xSWK7cqS3zk75vBWR7HBtKm51CX75tzZP/VY/IVpIpizB6SJbTiWROVaDbEbKv1itWMKKFp5RdnxM/JQ+wtZgznx0w5pvWU72ilGFjV9pIHz1DZKbFquqLAwnaIvZeL4tE/UA52+0SeB6O94ekPsUo5fXqwLtwDBCRip+pgjF2MknkVNwEAooKxIIs2bFE3UBrk4yx+zEcEUs64Fn8VZjZw1UReiwbR/IZYkqDDRUKMPnZd+p1LhsEfru+X64XdDo1k01aijQl48dAQJhlUMoFZbZ0vH5JPQpCsKLd/x80LjUYyt2tFzDO1oS9HOcdhedD7vGYq31m35rTaI4wxYTjG4A5SF5VOAZtEJw1i/Po3ubj/+9a80vvIVnh5RBXp2sshms0hnsgj4afRKnzyoRjbWOVidbr5AKgDccUdMTlZw98MUmDVEPt4pch0pCxIsLE2uhkgH7zoxHg66mSAXp+/odnZrk8VnP/pRQi6wYhqN9SbFno09TC+O4GtfDcnJhUpueS1HO/WZ4WNVAKnuK+GjjgdHJUVG4M2TXaXC/qX631Sy4Jy03lZLg93adKsX1ba30ys7WeTMU1VkVEtDob12CxAKbWaxyUwACP/1Xx/E977HH2sq/1sMurPhWAYDUXXRzvwOdWNIz3AGIwmgM+xDY+3YzrZSblJR1w9kQJAwt92HgI1xZ/tVvWkJL87v8MOnIVylBFT7HunvTyPBS5kCwJw2Vf1c7cMf1Ort60cg4EdHO/O81toAE+sGMuMiAVaForOtDQLhejrK0ohrYCSLeJKOFagNGSLTYu2pByNydNlETdBAW2Ppfrkz6ItkcvlsA80NBupDOYctuxcTA9EsBORZ+BTgDgbAYC8w0M+aFQMsyOOuzc54Z7JZObrrD/D41eSAAyfypOqyYrq318T7t/WjWfhZ7jHld1EYvWIImv/OPOM5wOUtEUDuxEusdYJpdSna2GVHnvLRoE5mBYxbi3hZc8K0Ddc700GlLpfylJaZzv4jOcCI2ZFHFv+xpkoZMgEg+HzbIRA4mTfpO+pzJJFB73BadmVz2lQ9QM9gCqOJLDqbg2ggQHAYJSg34PrBFBLJLOa2B2UsO4ewsjcpIb75nSExGtXQUM27ms7eSAYjsQzqan3obvYGIMRiMQwND6Gurh7NYRYYjjkPOuGVG5Mlj3ppuujMu1qCRQ2r6oMXG+W8tGGguyWA2uBE/vdF0ojGlM6w9dz2EIK56FEh/+KpLNYPpPLUtjcF0Findn6pjIm1/aky5wcN1NVAdGv8D3aX1ghxDpk0/P6Ap2DRqV6Uauf8fTq3jNDu9yr8lGOXUxocGYNN0Mgr+nU/1fbn5P1q9aE8nHQWkXUrqmrm5XasqWz/bpIF7ZxOl2geOpFbWX0qrEEwsR0MnOQYILBz7vKsm7iNQ2mMxjPoaA5KBMEtscUmRYeSSGUxpyOEoGWwYm3pJlf2pZDNZPMAwQkNTpWlUqYzL1Us5VIq/GYXlhsejmA0FkNzcxPqasdXD1MmKzeqH4JhPUhdrTrKxyeTyiKRzuajGE0NAbQ1TAzNJlKmOPKxfIGBcL0fbY3+CRkERgSiMfULPtzltjT50VI/1qd1Lr2RtIAl/bQ1BdFUp4DkhoEkEpITJK98qK/xIegHYmkTsXjuBwhgorUxILQ4eVJ0rlLbUvzyFi4sRi2EP7wGOscoJ/ogaYt0GsFgUPhc+KjvMwiFeIFXFgR19XX8HYDSILfUuMlUCsEAj73ZRxHK6Wix75y2r1T3C/nith8nstDg1J47TrRGtXEyrt1c7L6vlDdu+nUqXyecccITt7JwMxencnEyl2Jt3NLi5Vwna226mdM4v6MBAk8xSAGHuS0M42T4fZn84pDaO77FAqti91czTcoiktzK3DCURqwIQBAwkSvK0MVEWkCSa84BDdpOvcg1sXmAkNuZCk25Xx7T7XXbQoBAg6qL66SopUwAgnTo8L84FZ3H127ScjEJ6c0XT+Z+iVEXD4ojzvlApo+FfTl6C+27XLebK4jLn+ku0Fw9t/y/pone/n4Jm3d2tIvzsz5jAMFAMGBgVisd2BhfI7Es+iOqOod1Hd2tE4/a9AypSBArvxhFIP2cy5z2iT9UZI0gcBQW78xunRiZ4D3q6wZS4pAhof4sNEBIZ02s6kmKg6Z+zGtn9GdsVhnTxOoedcA7FPQ7StWo6EEGAT8BkuqscLEMD0cxMio/RycP2zU01KOpsbGog7DKIh6PY3h4GO1tPP898WcaCQiGIxF0dXYinkhgaGgIra08Nursx56s9OqTRdYogpuFX6kjKmVoqxlb91mo1+WMejnjWQ0tbt6drjS4cVJ2Dt4JP9w6MqfO2snYhbpj7duNPnmh1+V4KbbE6cRt7L3bbtzwsRwfQICw9dbbLBwaza6g0wC2BfBdNNQZaG/0gymE/ghzoBxSFbwxvEunwod1ARsHkwgFfOKE+GykY4mPpRjUiwCBQyKekTOjs1qYKjAkD71hKJUrxlLVdMwpd4QD+TH4ugYIs9trMBBNI54Y24GyPfujI9RCUREEE/M6glg/kJbiNP0E/T7MaqPzGmMNa8E2DpIOVVmrd81NdX60NSnDTxZsGEwhmc6iNRzCwHBK8cVnYIuOEAaiGQyPphFuCArfMlJgZggNIwkTg5EUGusDsgPnQx/J/lKp7NiO3DBkvCZL5KWYAJmX3tjTK46vq4uXwiiqNeXse1UughAM+MRZUwbWekVGGPhwl97Zoi6Y0g/ZtbpXfc+UDlNFQyOqbLi7JSgFqNZnPEBQvOpuDaEu9yNSuu0wgcmw+j0G/WiAkEybWNun0iKa5kIwRT7qyv36gr4L+cTpcAdP3pBPVv5YqR+ORDEyMoK2thbhQSweBx1/XV0dmsNhAQxW/ko/uQoutmUkp72ttQxAiKKrkze0WWtE8ocG87qmZVNucacYrbC7iabMzreYLnlhTOz6tXNKxd73+jM7GqbC6dnx2u77cjwp966Tfp20cSoTu77sZGGnT07pqJRf2o5W6+CnYh52vLDT67IghwChvnXrhWkzu4L5aMPcDvHUiTCRRl3Qj3gqgxB/TczvEyfLHSAdMh0OHXxxgDAxxcA6hZE4K8ghDobv0iGs60+KwecJCB45o1Pl5wJEWoL54jUNEEgHUwc1Ie5qDaTS2fyRltltIelnLIKgfhGPpx9qJG9uCr0cMBRUgIZtUxlgXX9CHDbz5nyHp6OZ0mDbxroA2pv8eYDA0LtETMR5crdLgBJAfzSDyGg651Do5NRZ4c4wAUIWA5E0mur90hejC9xJ66p65vUJeQh8yI9wgx+tRcL+WhnomAYHWX9Qi5bm5gk7XWuKgc6W9SHW4za90QxGcymB1nAQ4QJAQln1DqsIAx04CxTX9vP+VqCh1o/OcGBcmkGnGPSvLjKdUl/jR2fz2K6a82ItCW9dpJxYtGlYIggEJat6VFqET0NdAOE6nwA/ieRYAIzdotDf06HyOKM1pF+4IDRAmDWrO4/4WfzJATs7O9DX3w9/IIBm3vUKIDoyglgsLoWhjAowgtDY2IDR0ZjQyBMlTU38tUdDUgrsnwCBqYbBoUG0tPDiI56nNeVdpg7IiZraGjQ18EegSpslzscaDZlMA2Rn5J3KoBoj7cUYdn1M5jy96ruafqp518o7r/qZ7vpgpy/VfO8VD73qx04WEkGoad16YVujsYL1Aga2w9DoiRiIcvdooo67y7DabTMEvGEwLU5Z7/pYcLZxMJ2LIChnUFiDoHaXWQk7dzerX+qjIWW7eDKD2ho/OpoC6mdpec41lsVgNCXH2hjO5tgaIPC9jpYgGmvUj6/Qh3MXzp2/opWFaLoGwZRQNaMLGjiMJkkvd/4qVM7Po3ETg1HuzHjyIphPQQzHudtlXp3FjjUyHscicGAtQVezilpoc64AQkYcnI6AaFvPnfNAJIWmegU2GLrfwEI9v4F5bSGwQp8P6esdzsjfjHJYXYVVKYaGh8VJ0RE18Hd4LQ/bcX6qBkGdwyVA4r+MaTCyQhnSmVPmzOdbH7ZbN5BGIqmiNHruyrmr9xj+t/qxfATBMNBc75doA8dmsaJO6TDysq5f8bO1KSC8ZR9alzgWeTg8onjIduxD/eyxIRElRi508WOhchdbNKlUSpxxOaerAcLsWd25oKCJ3r4+6b6zowMbe3qkj7ZW3k6pnPrIaAyzurtyaQNenOSTtATrEUQujY3ytxUgpFJpARvt7W0IBYPoH+hHKplGYyPvl88iOjqCxoYGebfUUwzwVGOwJuPdqTBeldA9XemyM9KV7mKd8sgJX5y0cTreTLvNhwNyiqFrzjYLWxqNFWqHth3S2ZOwvj8G5nzntvGHhMacYF80gyjD6PUBtDYywsAUQ0oc7ViKgRGELDqaAxKOp9Pk3dR01PnLKTIm1jCcDEMKCa3XJZCMdzaqXDP7ZGSDzpRj1dUox2x9eO/Cur6UbOnntQeliFGnGAp34ux7XV9Sogas3mcIXF0Pq8CE5L9znbPOYXUvIxxMVdQI8NAAoT08sQCTKQbOlScVusLjna4CCGMRBAUQ0jLmnNax9AiHJhDjwYFyBY3c4WYy6ZK5b2sEgbtTJk50CFvNUEWCWhoCaKwliBgzQ4wS8SQB58100Px2dRvbwIhy3iKXtqDcfaEfK0CY2xbM1xk0NwbyxYr5KBKBYktIUhjswQoQqIP9URVtksuoLNaRxY/Un4Y6P1oaeHzVfqE5KexjjcDIyChamsMyHu+WiMcTylk3NRYBCBGMjI6OAwhhAjX+7KJc1NQv/xJQxONjEQQrQGAUgCkipjAYBeLDtAafulr1C3PFniQjCL6xo53T3XBPd/rsNch5i+k+1+lOn3NOb/4tp4MsnNAgAIE1CD6/umqZACFrnoR1/XEpwJvTrpy6NliDoxkMR+0AQgqxBHfZPgn/8/05baFxP7DEM+6ygzZMNNZbq+KV82KVO50Fd/TMf6sIginpiZrQxANu72xICI2z20OoDWiAwGORjFiM9yQ6GsFaCubf+fBd3lwYS2XlpzcJjuioeasdkce8DnVETgBC2hSwQ+BifXQNQktTEC25qnz9vRUgtOVSDGuYXsmqQshQyCdREYbyJUxfZg3w+OHGjT3CXxa/TciP5+ob9CkG9kdAJ0WKpol4GhIdUGUZpkoZWI5eDo/ybgt1IoEpEYIItuPpAp4ykIhETQDdzSqvT1rzpxgMAws6Q+iTlBKLA1UUgbJc3ZcUfSBoYOpgVS8B4niAoKdNkDKaMBFlLYfcaqhvqVT6wbRPR1ilfcopupOQPAEC0wMaJDEaQKfNcD9hVU9vQQQhByh0BIERBYIBnmTgw+hOIpGQ6IMUMeZSDFaAwLF6e/skTaHfKyVy6/wkguAff7eHXpsO8NKkWtZq6bAzWHbfezW5cvOwo8Hue69oLNePFVxOlk5M1TyrkYWXvC41Xzs+VLsmvJxDJX3lAYLfb6xQHWiAEEM2yxB/IH8RDZVtIAcQmuqDchlOsRoEFiOqIkKtnqYUNmpnzFG4Q2SVvKr10ntbyxRyH7Fgj1GADf0qgsBcui5GtE54dX9SrvRlNT4v3bEec5Qwu6VwqxAgcKMq9QC5W+t0rluol/9RAIH9MJ3CFIOObFhp0DUIBAjNdeOPSlhTDAQI9Gocbj0LNJPqghVdQsj5EVAVe6hwyUQCA4NDqKmpQVsrf3Nh4n5zfA0Ca0ZC+SJFgQW5OTPVwHkxbVPPGhQDWNOfRoohltyjgwtWOWVNAwu6xiI/1gjCgo6QAK3eIZXKIUBgtqJnkOBCRZoIGnlioTDFUEqJyStGIBLyq2wqzTG7LYiATRhBKv95f4DlWGHhos7XIHR35Xg0ZlapORt7Ccb8AgLYV//AgEQYuru7BAgMDQ2juTksO39+3zfQL9EPFUEgQFCnGBRA6EN7ezsC/oBEJtiGRyD5MD1BWZYDDOwjEORxTUXjZm+A8lqvJF+pQ7Mz1HYOtdJxrf1ualloHlTKC+v71ciiEkek37HSXuk8ql0X1YxrnUfeflbBEC9oqXR40WcdQZgIEBhBMCVPbz0WOAYQVDW+NcVA58yFxtoCRhCYdqiv9UtonY5A7eYVuSqCkJQwOg09Dd545VB/yY9kMbSfSzFIBX2R6vW3mZKQugIV+h4DCCo1YH14qiGRyuRBi6I3I06EO2l9vJE7bLY1zSzmdagLl1iDUTlAyKCp3pcveNQ0cRzukqPxDAgkyAvWa8xpLZ47HxwaEgdVrP4g3+e4Uwx0yuOPDLKdTheRz+FGP1rr/ZISYupj7AZDq9mzSih3aVJOFrrOhApAgECZre5PSdEprwnmj/awTxaXzm4JSHRGAQQfCJh4DwK/178foKM+VtFx9DW9SYl8UKbUN329d6lFwNw+7x8oV/k/vgZhYk+a36z1YNSG7enIdQSBxaL8nIWKrHmIxRKSbmhqbChZg0B6WOfANcb0BOmMRKOor69HOFcMWUgJoyg8vSI1FS5XvdeGxuv+XE4nD442NR+miu6pADiVzKWYY3faj9c6VEl/he9U0ofT+ZZq5/WYXvZXJoIwPsWgJ6cBgn0NwthFSSr3rHZyumiNxxvVMbpcDULB3QQ6dKydu04xEBywdsBqGNTxOBWN4JFC7ipLXZTEeVgjCCxs5G2BTPqzfoGFkfphKmE9K/fBfssDBApF1SCkYRdBYJGiOOCcJK1z4U2CdIJqLgRnE00gHQsdRWtLi5ynL7ZzKTzFwF17KaDE+bU2BuXa5cFoBkOjKr3A2w0ba8f/HC55TTBAqnj172yCGEkx5G5SNAzMF14BKlXBSMQYhaxL4e9jEAgogJA71lnnk0JW9qPHJp+sD3thTQidqvUkTbEFYf2sWFje2m8kOoLRkRGJCBR7yOuBwUHhOU/RBANBFUHo6kQiyQhCRAoSWccgV03X1OSPR/K0SSQSkXQD6ejvH5C6kWCQt2maEo1g5IDroLa2Bs1NYTCgVszxqQJF+6ulvXIm5QxNqe/sZOHWmFZCg9sxirX30shW6xj06mE/bgFR4djVOMRKZOFEH+x4bfe9G5DitK9yMtPfVSsLO9lUuo69XJs2AMFpBGH8PQjqoiRVpMgqeWsIn9X0jALw4f0HvD45FPJLUZ9EgU3IMce1/XRCHF/tErVT5/e8oZHpCjpR7iYZAUimMnKsjqcHxk4xTLxJsRAgsJ+VvSmY2Szam0NoqFFi5zFEOiv+DoECCOrSH1WkaFaRYuAxx4Dk7IdGM+BZfqZftPMeu71QjVkMIGzY2COOlU6n1Ik4K0BgHzw1oG4IZG0FJMLDqAlNDsdmpIjRnTV9KTnhwI5ZnFh44Z/Ikukc/lId+ZKr8VDRiIxYMB1BsBY7kodyKiVXiyIAoaAGgbUfrMvQC48AhTIlXfyO/OIRST6s/+BRW6vxLLWg5HcYykURdAqqzDlK8pt9SJ1CQXvrPQlS2OlTv6iYNySWexSK3alA3TNsfl+E/Mpm1I2NM88MB2Y4MMOBqeCAAgjbbLPQb4zVIGRMdYpB1SCMnTwgQf2jGUSKFinyXgF1Np55ejogAgRe+MPP6Mh5jp67v6a6gISV5R4EXuXLu4b8BuqCvLOAzksdc6ODYA0CHYYGCLwrQY40hnyS+lC/2qgMN3fJOuS8KndR0vzOibf5FdYg6OJCzo8Fe7TtBAayyRdDry47KgcQxiIIGbQ0BcrWIHBnzOOhDOWzf94KyB9OovPlL2OykLChVhXhFT46j83IAXeixeoP+M6EUwwFzk8V5KljhCxElHRRrnCUrl/fncC+rIiUb/XkIkLki1zqVOcbF0HQAIFDMEXDo6xsK3dA5K5pVhEEVaRqPcUwOJJRFzLlqkasdQ+6ToO+lKmgYr8JUWrRyI+P8aeMi/yWQbW7CicL1W6Mct8ztSDXOQfG7rKwG9PJzq3SHYyXO5RKabCbfzXfW+dnJ7dKx7Hr1+57Pa5TWWi46mbXWy0NlfLG+p5TGqoZy24Mu+/djl1MFnZj2H1vpw/FaHTS54Qfa7IWKdKn8PIhfYqByjU4msVQNJU/5sgdrzrmyOt61dG+Hv4WQyKTP4GgGRLjGf+htDgc7qJ5OkGHrLlDpLNj/p1Oq7HeN+6iIJ37506XDp1XOeujewQN7eGAnF7gw/9d1a9+i0GnBqwMYu0DK/l5XJLHHEkPb4tkGoRz5vs8d89jnCyk5MPUiK5BYJ7eCkZ033IMcDSjficgV6So587wOU8G8GZG9ssnlQZ6IrnbG2XuvNXYJw6XbYptaHlVL8PWTU1NE+4/sM5RblLMFQGqz8erA8cKBcnnABpr1C/c6RQJ0ZmAsxydhcqlLrhSKR0WVHInz6OJ8mNNhrojwRoRYdSFDwtMdW2BAIS+pFw21dYYRKOlqDMSI0hg7YDinoIy6rAmL7giKLGrPZiwIPhDJrmCxXK3KjpZNG4NQjXtNTggzaV+v8EtzW7bV0p/uXEqcViV0jGV77nlrdv2lc5lc5BFIY12f1fKi6l8rxjfp4MsnNJQFCAAJ8Ewcr/Mp1dyjqvignMwNF/tb/mbzZVzmHg97dh3yuLnjYT8xC+QNk34peJ84q15Y5X0Yw6DlySxiNGufaFCWPsa9x0vg8oo+tmvMLHMXK3vytws3qyAbWOpAMu8pXmufx4a4Dzsbgzk2XlGTFpbW1ATKn7SIU9XiVx2/vsStAicKJxAAROtqQ0Nqgr1Qr9Sit8l5ZDjC3nCdAehk89Qt2Ha8WciFBpPOE81sOjU5wsUTd8UytTNjqtSw1NssRIYEOBmTd4+OnaSqNIxNF8sy7earhy/O1UOsBxBXtHgVT+bShbFeOTlnOuG9YEAACAASURBVJwoxVSP55SmUutiKumdyrHs7KTmWx4g8MealDHcDgQITn/uuVAApRBTJYbJLcPctq9WeZy8X4nDKYc6WX9A6KLu9i//s9ebUhZ5BfOgsMraVyV6VCgnprkyvPSCURv5ISo7JOVW0pW3ZxRNpY1YyzAWNfACqJRaH5Wsmzy4r3yqrt8stqOsRB+qWReV8MqNY66k/0receogSgnJThaV0uSGrnJ20o1yTWd9cDOPUnayKlkU/txztQDBjYArmfymeKcaBntJL48K9vT2yjE3XrBTiRP2ykm44Ymbtl7yq1xf4uByzljXmZTTXatDtM6nmKEs5cx121L/anr52x76J6ed8MMNf920dTL2pm7zbpuPGzDh1HnbrYNi+rq58tUrumfspNKakimGSiMIm9pgvJvH57XBvOefqQUeiZt5Ng8OeGVsJmO2XhnUyaBtps8ZDkw2B6bz2pzsuTvp/z8WIEwHw+gFDV704URR3u1tvOCjF3282/nsZH7vFj6+G+bxbphDucigE338T27jCiA4yfmUUygv0JqTPqqlwW5RVEtDKYW1G9eqqNNZFnZ06u+d8NFucU5WH9XKolDG1epkJXwoHHNT0OCFcZ5KWbzb16aVl274ardmi+mnk7VpR4MTO1dubVRLg5P3K1mb08E+OFmbrgCCneG3E3YhI+3a231vJ5hKvndjVL0wJk5otONDtYvIkaJ4WGxYas52vJ8KPtjJYzrQYEejG2PtVBZu124lNLp9Z0YWimN2fHDL10r0x44GL2xUtfNwQkMl87Dzi3Z0243pdu257a+cDlUMEOwmXS3T3PQ/ndpWskubSvorUZ6ppM/LsabDXKe7PnjJ73J9zchiqji9eYwzHdbFdKBhOkirLB+cnGKYDot7OjDSCQ0zvHLCpZk2MxyY4cAMByaHAzM22Du+OoogbM4M35xp907M/3k9eZE7/M/jmvczntmlec/Tzb3H/3SbPJ3mb2cnHQEEN6FDLyfvZV92i8qOUXbvb+rvST8f65lmL/lXaV9u3ys2D81bt31VI5Nq9MFJrrMa2ip91y3/3g2yKMYrt3yolN9u7KbdGJMBtNzyYbrogx2v3H7vlg9u+3fS3i0NUyWLogDB5FXLUFctu30qMazVGFT9rrWPSmiwzrNYn06clBMhVzPXzUUWxXhZSLsTXtn1U46Xbvt3It9q+F+JTlajK27edcsrp327WZvV8NbJu5XaBy8cs1N+cR7vFlk45Zub+bppa6cTlepDOTvhlD4368Jpn27pKufjxtldNzUIbom1E5Kb7yt12nZOxg0NXjqRQl465a3TdpM5r+kuC7c8ctveSz0oJSenNHkhi0p0pdg7bhxhtfOuFnCWm/N0XJtOZeSFPjjVPac0VWODK6Wl0vcqmZOdLlezLiZzHk76HhdBUC9U91sMk8FgL/u066tS4+C2XzsDxe91usCJIO3Gr+R7Jyi7kn4rfccrPrjph20nQxZuaOD47wZZuJ2zHQiotr9KgF6hPlSqy16+5xUfqqHJKxrc9DMZa7MS+b4b1mZJkOMkglCN4sy8W5wDbhbCDA9nODDDgRkOzHBghgNTzYGqixSnmmC347l1xG7bO6HHbZ9u208GDU76dNtmMuY12TRMB5rdztFJ++kwL7c0uG0/GXyYDBqc0DnZbabDvNzS4Lb9ZPOwkohUMZqmw7w0DVMOEIpN3guGuOnDTVs3SjVZ/bqhodq2XszBTR9u2rqZ22T1WzIUV+SmyammoVpjM1n0Tla/m5ss3OjvZLV1Iws3bd3QO1n9bm764IYPbtp6KYtJAQiTNRkvJ+6mr8257eYki2pprfZ9r+U83ejh/KYDTW5ocNPWa/lNdn/TYW5OaXDabrJ5Nln9T4f5uaHBTdtyPLPrZ1IAwmQJ8d3crxaUncDezTzwam5e8dCrfrya1+bYj1c89Kqfang4HWiYDvRXw4dq3rXO3at+quFnNe96RX81/Th5dwYgVCPlEu+WYrwTgUwCOeO6nA40TPYcnfQ/lXyY0YfyEpmRheLPVPLByRrZVG2mkg+TuTanch6lZFUtDTMAwcLZapm5qRbUzLgzHCjkwLtNlyfTkM9ozwwHppIDm2JtVjpmHiDAMFaoc/dj9yBsbmFvL4xIsT4qZW6lIbFyNHhBS7WLoRoaqtWpasbW83bTx2TJoloaKpnLdAQR1fLBzfte7LKmgz6UW7/V8GNmbXoXySEv+Vivvndjd6uVhZuxyq0LTNU9CHaKa/d9NYu70r4rYbIdSJksAOIEjHihdOV46YbPbtpWKns7WRTr1wu6qpWFFzS46cOurd33nK+dXlcii0rWXyXOs9y6cDJ3Ozqtfdj1Z/d9JfMrlM9UyMJuHpXQYNennRycAuTpZCfdzsmpTXOikwJyKgUI1SKkqdwB2Smj14rnVEilDGslSuFkDnZt7L4vR6+Td53M12k/lfDITue8GttJP07aVDpHr/r2qp9KnJoXRtqJvjltsznIws7O2c3BTt5239v17+T7audgp2v83m5XbzdPu++9sJN2vHJCg10fdt9XBRCcdF6tIOzGsPt+spnoFUiym8dkfz8V85gKWWxqffPC2UwXWUwHeVWj91PBx2roc/ruVMxjOsh6smlwym8vAEY1Yznhg5M2XtHgqEhxsgmqZjIz785w4D+ZAzNr8z9Z+u7mPqMr7vg10xooW6Q4XRnkRtHdtHU738ns2y0tm0P7qeTXZIYqp5rXTvjmpM2movvdJIup5qFX49nph933XtFRLsrmlga37b2cQzV9TQe6NQ12a9NxBIEMsQvhVsO0yXzXK4FU008171p5MxUhx8mUxXToezrIYjrQMJ1k4RU/KpmTV2PPrM1KuD/+nRlZVM9Dr3oQfa60SLEYEV4JV/ftdX+VMK4SGip5pxxtlfRXyTte01AJvwvBkBWUej2nSuirhIZK3vFaFtOBhkr4Pd35UMmcZmShuOY1H7yQRbU0VfJ+Je9M1bpwFEEoRYxdeMJOYBpxl4pOuOm/sK0bppdra0eD9Xs3Y3q5QMrtXJzS5KUsCuXuloZSkSo7WZQDF3a6aPe9HttuLlZZuNXJanTJjn63oLucTpXT3WL8ccsHp3J0IgutS3ZtK9VZp3yvZkO1Ocui2LqZzrKwszF2dtKNPlS6LqZSH6oCCG6Y4WVbtwrm5dhuDe102xFPB955LY/NdU6bK91e71681odK+qvUWFcyltsNl5sxpptOeUGPF3244aGXmze3405m+0r4uFkChMlk4kzfMxyY4cAMB2Y4MMOBGQ5YTjEYhrFCMWTsqmWnob6pYqRbBGQXipmudE8VXdWM4ySUPN30Z7rsDPx+4D3vMRAMAukM0Ntroq93jFuV6HlhWkb3scUWBrbaykQqBbzzjoHVq61B0mo0YPy7ldDMHqZ74bPbeRXjqBd9uJGUF2tzqmn2Ym06odlJGze8tmvrhSzsxvD6e6vf9CSCYGVCOQFMlnDc9OuEPrv+7L6vRmBe9u1krl47cTehWrf0OeWrVzz0qp9C49fUBJx3noG+PghImDXLwEUXmfj3v8ectx67UhpME/j0Zwzsvx/wl7/ITkDAyPXXmTCKeGW3hmy6ysIJv5y0KbYu3L5XjkeTpftuxqx0Pk7fmyyd8gJMOLV7TufqdD3odlNtJyuVhScAwS1zSjGp0n6qfa8aJRiHtjbhjqiaOThdLNXy2e59Ky/t2trt1LziRzV0lKKhsRFYutTAeeebWL8eWHqOgX/+E3jwQeW8Mxmgs9OQ/59MApGI+rypycDgoIm2NgMNDcCGDSZ8Psh/o6PA3Ln8HojFTNTWAlctN/DE48Djj6v302kgFFJggVGM9nZDxorHOY6JQICARaGHkVETs7pVxIHjxuNqLIKZt9825X2nTzWyqPZd0sgZVdOP03lOVrtq14UX67taGqz8nw6yqJSGSt/zUjeqlYUbfXAMENwwxk1bLxnnZuJuxp1KtO+Ed07auJnfZLedanq9Gs9JP07aFPJXA4Sl55pIpwyccw7w2GPAK6+Y4Henn+4TB09wQEe8ZEkWNTUq6vDvt4AtFhgIhUwsX25i++39eO97TbS302kb8PtNnH8+wQJw3HHAqYtNDA2OUUB6mXY44QQgkTAQ8AP9/cCzzwFf+TLQ1aUAxsCAgW22MbH0XODggwwBI9ttpwDG4KCBpUuzAjjsnkr4Ywf+7MacrO+dzMVJG02f07ZO21Uyby/7dtKXkzZO5uGkHydt3MrCCW2VtnFKr5N2nrUpvAfBxHYwcBKATKXzLPmeE6K9HNTteKXau+3Hyzls6r7czN0tkHLT96bgw2TpA0HAOecYiEaBcJgO2sDFF2eRzQKHHWbIjv3WW7OYNdvAIQcDZ55poq4OuPxyA7/9rYEf/jCL444zcNddBAg+fP3rJu6/H/jlL00sWuTDr34FjIxk8dWv+XD++VnEY2PcYxTgwgsNafPMMyY+9SkDO+xg4MmngIVHm7jySuD444Gf/xzo6DDw/AsmvvZVA93dJm64QUUzzjrLwOLFBBGVS8Wt7CdLFpXPYNO/6YaHbtdmudk5lYUb+txy0ykNbvuttL2bubppWyk91bxnpc9xBKGaAWfeneHADAfGOCAAYamBB+43EQwZ2H034MUXgRd/amL5VQYuvgT415smttzKwNFHMYKgAMKyZQaWnGVicABobQWGh4HddvVhuw8gDzCOOsqHVatMrFsH7P9tA2ctyQoQ0Q8jExdfbODss4GBAVPqFL6wkwIIO33exKWXmlixwsApp5o48EAffvkLE7vsArz2OvD0UyZq6wwsv4oAR6VHZp4ZDsxw4N3LAVcAoRjyKfysEqTqBlG5aVtMbJOJPCeLNjfzsLb9T5CFF/J0oteV7KhKyUKnGJYtM9HTA3z72wYWLDBw3XVZXHONgTOXAG+/ZWLXXQ3stBNw6qkKIFxwgYHTTjOl3oAPIw577umTSMMNN2Qk137kkT6sXWvi9d8A553LaIEp9Q2sQeA8F8w3cMopjEoAoyMmjviOga4uA089DXz848BNN2Zx7bUGjjzSxHHH+yQqsesuwHPPMapgStsLLgBOOskcBzxIjxeyqFTX9XvTmYbpsDang41yQ8NUr83JcPVOdHJT2Wo7WbgCCHbMsxus8H279nbf29FTyfduAE8pozjVdFe7iMoZdzvDWwmPS71jx3s7vnrBB7v5eEGDBgjXXKOOHzIt8Kc/MU1g4toVPrz0MxPvvAN885uQwsFFi1TRoQCE002MjkwECDfeoFKCjCCwsPDhh5kK8EntwooVWcRiwLx5Bt58U0UI7rzTlL933JHpCENSFB+zAITvHGnieAKEXxCoAC+/AvzpDUjtQiTCUxdZKXbclI8XstgU9NvRPR3tpB3NlXxv985UyMbO5riVRSU0u+WDXXu7792AcE8BglPD74bAqXRQlQjXjQJVIrhKaKoEjTrd3VRCjxseeSnvavkwWXNtaATOOMNAc5iFiAZ+93sDd9+VEYf7we0NHHesKhy8+WZVaMhwPqMF3/ueSg2wiJAPP9tlV58UFt55h3LYhx3mw5o1ptQXEFywVuG971W7+z/83sCNN2bxrb19+PyOJv78Z+CFF1TNAcf67/82cPvtWVxyiYETv2viyO/48Ktfm9htVwPz5ika3njDwE03qXoJN7KarrJwM4fJ0gc3NNjZELvvOZaTNl7MtVwf/wn6MN357ETvbAHCVE3SzThu2nql6E6Rphva3LSdLgvbDT/psMzcNlPPVbk2E4b1ihwD8BU7nO9wsFJ8dMtfh8PlZuDskp9SNFgdLKeuUwDsnCcLePxQgwAWFhb+f60PYu15lC93t4He1VvZySgCP08kcuOYKjIhpxCYesiOvc/3SBvH5DuMcCxb5sOzz5r4xS9M+aycqDZHWRSTu1vdcdveja5tzm290Ae3vHXa3mm7TcV/r+mrRBa2AGFTMWc6jWsYPC/OHd6YNaY99vEM2qaOs04nRlloyQo6yLuxIjdETIRchuEr63zcTLWSxeCm/+ne1ivjQoCweLGBn/4U+M1vil+yZMeLzVUWbnkoNkJrumEI6KXtmHmcccAtvwt75fuUQSWPz/DB55saWVU7z0rmV+odu7W52QGEqWZuOp1GdGQUyWQSpsnQKs+b+0CFqq2rRX1dHXx6i+el5KZ5X+XkQB4Vfya+ZeajCbnvKogmeKUTBIBZbp8NwO9TNwHpvhPJJIKBwH+krHn3AaMN1qiHF7vuaa7ijsijziQSCYzG4kilUmIjqEC0CQG/Hw0N9QiFQjNAwRE3nVoN1c667imHoeFhxGLxsY2cRNaU089v7ooNYQA1wRDa2lpn5FTAH8cAoVojXPJ9fc1ZIWEO9pyFSmKng27nEIlGEY2OCCAIBAIIhWrg96loQjKVFoNA/WsON6OmJlQ2t6fHdktDMZTMz6rBum5pKNa+1GemQ3AwkR/jPylE805p0PwqN8dSshgcGkI8nhCZhsPNqKutke7i8TgGBofQ0d6GIO9Gzj1u+ThZTpV0cLda1gh6eMrAqSyc8MerdeHF2ndCr3Uc2gHqTDKZRjAYQE0oBL9cMWmKjYgnkkhn0qgNhRAOh3PflafULQ1eysJLvS43y0rWpp180+kMenp70dhQj4BljQ4NDcuara+vK9lFJrcJbG2hHVdr3q1vKdXeqXxKETdZ+uBkjrLNK7woqeiPNRkGsnSKsos2BRGrhVDdw93axp4e1IRq0NLS7Ai9VctwJxQTdfb3D4C7xtraGjSHw7IjsBpgtuHiZzsqJ5WrlqXmLh41F4WQnCqC03YuyHDdtJRRZ+RAfVfYQlQtt+is1Qdjsyl8r5p0QyU8isVjGBwcRlNTo+wIOZeuzo48OKCMQsEQfH7ecliD2ppaxzIrZPCEPL4UIIzxyM446d1SSAxfPRLJBCLDEbS1t1dVy+FaEQpeqGZtViIz6/BOnI7T+RX2Vaxv2q4e/piGaYp9KLb2KSfaTIJLv8+Hjo52RzaupLOwqf+w44eeB23XIO/kBtDc3DxhuGplUY7Pbvt22p6R3o29vWhrbUVtTU1+ba7fsAF1dbWyiSvNVxMbNm5ES0uLvOvkUctVCYQWvFykws26GB0dwehoDO3Ulaq2gfazcMLbfAQBuV9zNAp+zZGdbNywPr+z0nasrq4OXd1duTyzPTHFWtCxrlq1UkL1s7pnCZOtRDuZgN2isDO2E+kyEB1RkQOmD5rCTWXFRENBA0AFbWtrQTAwtsMsRxt3GKtXr0ZnZ6cY+cK2/LuaKEGxsd3wU7srTYPdu9aCxDGe67d0yTvla8DMqjyhSs1YQ0i5cGDuUydRhEo0r9hcRkZGMRyJoLOzA1yksXgCs7q65LOREZ4r1Dt05uF9Eo6kg3b7UE/WrV+vcqW5xUSwHaoJoZvHEYpIvVAWWTOLDevXo7auHq0tLaKvfb19mD9//qSmQKpZmyWNcwk9py3o6+tDbV2drEOtU9Z1YaeTTmXjph8lCxN9ff0iw9bWFgGO5R4NEhhlaG1hGNspZWPtGK1ct26d2IqOjo6idrLUPBKJpOh0W1tbfpOzZs0a6Xwu7+TOPW75YJ2Gm3fLzd5NP9Z1UQgQ9BjrN2zMAYRwyWEJ5DRAYATBXjwm1qxZKzaf75IOAkBunDs6OxDwByrePJCO2Ogo5s9fIJHrSh4rD7l5GImMCOCwizAWjpXDQMcY22yzzcJSP/e8kQTHYmJ4iLD4RKIRpJIpBENBzJ41uwAVqx+ZKUUMB9Xh0DGAUIdZ3d3j+8khs8J+3KAxt0aJ7enwe2mYamvR1NjoCPFnslkxGIGAH+2WRVhOuOlMBmtWr5bF3sBf3inxlFswdoup2u/tDIe1f/KNzt9qwFVkZHzEgHnC4aEhiUDNnj0bYGFiUfOvUHm+Or+EI7Gbo5MFxj6oZz096jeX+f8bGurQ1Ngk/58gQVB9W6vQ3ccziAC6OjsdG1dNpwCEdetk50ZgTEtC49/f3y8GZtasWXmjU8pQkab169eDIJ1rkgCht7cPCywAoRBUyLxsQKfd9270wa6tnb5T9u+sfEdSPS1FdrleOZli/dgBIaacqMfkPdMKdn3w+5HRUUQiUYk00gnZ8brw+4GBAQwPDUsEi+uGKc9yMrW+T4BL/VqwxRYwc4Ukar0qx2YnC7s1VI2NqqZv67tcV0wxtLW2SYRPP+vWqwhCOR1iQfWGDRtKRhAK50ertnbNWpGjisCYSKez6O3tEfswa/bsspG8cj5M10EVRujt9KXUeqPsCbS32HLLvOzdrM2yNQjxREJ2KnzmzJmTz78SOa/fsF5AAg2aDq9FR0YQGx0BHSZRVENjI+osYXeVsxuUkDwLvugY165dOy6CwNDu0PAQkrkzWSIE7uKN6tGUnTLSlQ1HuWMclWiA3c7A2h8NQDQaFadRWLlcTLg6gkDE2VCvAAJ3GhQovwsEggiHm/I7Qn4WiUQEtfoDfjQ2NuajFcPDEcmB0mHoZ2BwEKFQMN+39X3DZ0hO1BrtoJMi/ZlsBgF/UCIn5YxHIS91YeL4uaq/tLNKp1LYuHGD0J9JZ0SnFACwyla35ucs9rLH83ZytX5fbqFRb+loWU9iNSgCEoYjqG+oF73t7esXpz57VreboaUt5bd23Tp0tLePixxRtnQC3NExsDA8PIzm5rG8NWlgWJgGifpVCBBKRRDoCJiHJe0E+qSbINbw+ZCIx0XfVNqwRtIrVt3l+h/J3dOsolyGpF+YDmQxHlMy1FFtzKhjpJtOnbsf8jqRiGMkqsbgWqbe5sOx4G2OI4gn4gISa2pr0dDQKOlM9kMnTAdcU1MrERv2wRqR0dioGDvmlpuaaBsq1xGnhjdvVGW32SPrjeFs69gEkrRpxdYNae/rHxDHwbm4eejAVq9aJXOlvAhMyEfrI7IaiQJZSA6esuSmjnaJMozF4wg3hREIBhBuahL+knbdD8eIDA+ruiqfgbq6+nzkht8NDQ3J35Q/7RRlTno0UOFC5jikgwpMn1Bu41Ns/m5lYe0jmUrJJq0aXaAu62hVefmoCALn18I7z3ORQPKG0cGurk7U1tZhcHBANhlcd+RZW1u72DO2oxy5Nsk/8lGvIbYlDxkZ1A/9KtcqH9r4wogz3xnNXa8aDIXyG1t+RlAaj8fEbnC9kGbqIuvrUsmk8Iu2gSnTYnayJEAwjKwYLFGMhnp0doztltgRJ8n/iM6CwZA4/qHBIRmQk9bhF71DJlFr1q4Rx6B2huo/tquprZEUAw0QURgnphWP3zc0NqC9raOi89duFJEAoX+gH6yza2ttmaBsFDKNIIXACuVxCppMon9gQATAyIPdUwgQaCSJYmlECa64S6HSdHd3i0DXrVsLn0+FopOJpDhyRm/Yxuos9LgrV60SZSf/Va3HRqRTaelf5pHNyk6EDo9GgUCN39F5s38+c+bOdRBuU+tDRXo0IJgYS2B/Gzaul9MfVHLqFQHCWAQhb4Jz/ycXjfBVlomrxNjQoErOsrZODGyxhzrb09vnCCAUo0FHENoLAAIXOaN1s+fMEefHKAPBgi6KTGeyWLN6lXxWKPNyKYZUOo3169YpA2TwjoWA6ATXbk8PHV1QvqO+0Vko52WI016/br1ENbgWqTPcvWYzWcybN0/Wweo1azB71ixpw4dtqEeabvZJ3eT65qkQ/s31wVC3qvPpRzQaEWdE/WEFOsFHY2MTBgb7BTwQKDNS2dXZjVhsVHhEPSUt5BlBPNeI1TGU26HZrUu779Va6kW4qXGCod6wYSO4L29uakJdff2EtUOgRr4W20SUG1ccz7p1mDd/PgYHWPOUHjdn8pV8ofOnfNledrKzZokjIvBPpZJCE201gc1asSc+dHUyrcWfDl+PZDIlvOUcE/EEOrrU5oV/Mx1K4MFVSX3gmHyfNoT/SoRjeFh4ooBcXBxfKx1owVPJ2rSTi0ox9KGONixXKEo9Ho3F5O9SkR72S3qoS9Q9ZzUIJlavWYvGhgaZn45yc02sWrVK0gzU6VUrV6r1Kz7RLz6Ua0TWRA3rmbiuEuJLurtnCR/pRxkpYrSHhpU8JW8Jng3yNZGQ9UPe8iF46O/rU+vY55PvVbqyW6XKI1EZs76hQcYkSKSf4We0w1JMG4+jq6tr3AYzb41LFSkSIPT09gj6Z/6ikde/lXjorBgup0Bmz54jO1cJe/b0itLOmT1H/u5nGJ5/z5pDv4ANG3oE3ZBwMoiKTKNBg0Lnx4cGmzmZzq4uNBTk6sspTSVKSCPDQhcuMimatAygDQM/4gLpLMjp8HvuLHisiQjd7ikECAwD0XjMmztPFE4KIPv6pfCM0RQac2uOube3V4TOCE1ZgNDZiQExxFGRDXc+nCcVmYadikElJLjZYsEWslxS6ZQYotbWtrEdQpkJja8/mMh5fhKPj8runKkk5kSHhgZzEYSx6EExmXkdQSgnF68BQjHDyIppGnsCBB3xYchS5B+Li4y1Q/ACIEjEYu06CbsK2JQ0WkZCpNzlUf7UNzoS6hidCp3E6jWrxWDNmaNAojZs3F1SR+0Agj8QkPoigq1uRlpMXuk8IkB19qw5suapgwqUMDcOAQtqp0UA4cM777wjURRdSMeCZvJPUlPcpCQTsikh4Jmqo8YE1kxFcQOhgZGWMwGCjn8xgsKdPgG4frjxGY5E0d2looxObRTXejKVxJzZsyUiwGgRwbXeRK1atRqhmqBsssjHdCYlNoHhdjpsHtMeHOjDggVbiLPn2OvWr8sDBIJ1Rqe6GQ3OFelRHxnB2WLBfJEFAQLny3F5UolFvRwjry+rV8tGjmNSYShrggzqudvct53tLPY9gbBKMagiRf2oGgRGoe2KFHtcAYR8BKGlJTc/Q0AtHTJ5wo3WqpWrZI1rAEvev7NypdCndZj6TnsgwLm9XeyiBgi0+6wVoX4z4stAGYviGanaYsECGYtO9gAAIABJREFUtQbJ94YGaSNrglH/jRslisHif8qB+rPVVlvLulf2YK34dIlcE6jnAAZBx4R0igYILFJUDnE7ACeBAIGLeXSEzrkT9XXjC+msQhIi+nqFIDJHoTIT69auE4K4KxoY6EdsNCZAQOeItCHUEQQqJfuiUrMNieVuls6tuaUZrS1tObxXXIX05JwuvMJeuHA29PTIrqSF9+BaRuOujjsHPkSkrHC3Kr7khXMVsy3NY+Eh6xjaeJDPgjalSFGhdI0UGa1pagpLAZw2erIzW7dOjGpzs8p70jhIgYzko9cJYtU1IhxTRxBYBEklY0iZBVWmqYoCWQfAfhcsWCARGy52Ag4qIudPBbdW1pfNM0oEQZ3/Vs/42w34N9F0c0sLyBuG04mU585h/Yo/15rv6YLFsX/pkKyFkrqVlk2lweXiYERHEGrzCH1CO4NRrl6kUmlXKQbdj44gkL9M8dBoEBhS2TUQLwQIfDdjiSDwgi6m/qw1CKVSDDql0dnRIQV/5BeNKQF9a1urrFk+1DWdh62vbxDnTnoYIpWH8+4hoI9bIgirBcgXiyBwXtQp7rDU94YYKK7xcEszmpvCYqgUIGiVgkvyQ2cLpAbhnZUIN4fz6Z7h4SExkIzuMMoQCAXht6Qena77UhEGq26VclKsHSLQZZqGYNv6WAECgS0NrjXFyl3q4NCwAgg+XXujV8xYT1adpp1YuXKlOADaBa4zrmfuXhneZmpv5cp30NXdPS48rk9dafBH+zt/gapBsAIE7jTZPz9jhEKveUYVOQ6dmwDG1avR0toiO1A+5MO6tWsFzEmqeN3aHCBgDUCdRFmdrM1qZGF9t3yRYnmAwBTKxo0KIOgiRautnqgLpuguwaI6zaQiJtmMKanpcHOLpMlYQ9PdNSt/xFKDga5Z3ajLhfRlU7pxA2KxBBYsmJ+PIGyxxRbiE1jv1N3dxWRrfvPGjePceXNlvLVr1whos4JV6pb4JtOUCEMfAcKWW4HFzfyctHN9cm1yk8AoXanTBmVTDAy3E81IiL+9Y5zAyRwzk4U/4JOcva44ZiU2mctcmxgAQb5zsLG3B+lkSpCTngyVkIrHNMWsWbNlB6PTC4U7AjrO5jAdrxZdqSU8tuCcKOj/Z+884Owqyv7/O3d7T7LJbsomFCGANEUUVIqoIAiI8L6v/EVAEVEpCoI04UWaCoiCCqIiKugLihUsgA2xF8RGsdBCyia7m+19997z/3xndnbP3txy7t57s7vJOR8jyT1zZp55ZuZ5fk+ZmWAtDBYJirTQGIgvuomIu4q8i+pqG1YJKikWDJYFrsd0sbfghJ70IASSFAFHKE8mEv1ECGLFIzSZgEwYtl7yLYJn8ZIlhs9YAwC46QDhBfMbgoVxYAHB9yCI4lvAH25/G6/qM1YZFgL8XsyYp4nvBvti56IDCMGlZUsRiwPkmTkU84xHiL4iXAA2to1gQuNUHcXeyRDsR7E9CEawTngQjEtwwrrExWhcgBOuetyEhAUQAi5PhDFHqRP2ySXE4NpjrjBn6C+xR+YErnv6HAziMHcRGus3bDDeHpdfxBjh6mQck0MMThkwdzAK8HywHto2bUp5SFBVdZWx6Jg3Xd1dGp7IjYAWF3pJBRAQbrSPN5I1At3p3NiZpUMqkR9u15DzJBJGxFuYCiAgz1DgwUQz+sP6GhgcMkaBSdROShpNpSxZl3hOglvpUGh4JlasWK6xcbxB6yct+VR1sNYACCk9CE3NBryjGPEmuQevMBYwvzEHkNOMjZNtzEfmkAMIZix7ujU8OGjCb4yle1essQjW60IMeHamexBmts0xHdi0v9scBMYUPcDYEPKyhq2N5TtvAQDL5TUA/AHNrB83N6gDEED+BgDNeRAACHh2THhh2tZLSwFgjQlkwpKEipN2VDn6JwHCTjvZQ+BY/2PjJs9vZHjI5AMaj/iSJVt4xIx+y3QOAjFB0A1PsFMsVAijw1TsUBBIxCZZ+QZdgTD5+/Lly4y7ir3aoF7jMpxwa2KNETPBPQYzWEQgGxdjMXXF4/b0wonT7XKdcKnKp5sAVgANmj3LyXkGzsJIBVGc+7CxcWHarY5BOpI9CKZuzptIcFpjwghC+GGSQMl2N4fmW17Ad/iGtQ8owEWFxwUwYQeV2wDXGPct48N7PrcuyGmqfUI5290Ctm1QZ78JMWTzHLn+UOPUAUlbij2AH0LDmYdYMbTFIiF0xLyZAnPuLAX7y9YMMZh53d4xefZFunmGK5OFtWxp6m2JmebnZA6Cc/GlOOXNxvJbzbqZtM7HrCuyZfkKc8R3tl0MjgbXHvPACS9oJ4SAV8ElyFrHkt3XzfjggSJR04FO5iZtMo4GIBCXXrt2UjHRngtTOBkAvbRrQylTJ35YzMkFFPZX6iKBlfkOyDChNEIML7xgwnWTwHeiPHPHJN3296m7u0crW1pChcIKIjfw2LW1GS8bu1qCD4LeJv9O9yy4NUkYjzlGgmrYB/BP3gfK1j0YXT3d3Vq2fIWRUXgAgmFgxooQAKFShL/bxYDSSRViMNZwPG747h5kDF5LY9CVlWUFCHYBe8ZoJDxqxnIEq3jVVgkxZNvmaFz0aZjOmOR2DoLNQQAkurlpdELgLBMLENYYmetCiS7XC6DlkkOtN2ejCZ2xblwOAmOFDkDOt6xsUcyzOW9uhyDfTXp5li6d8lR5ngHcgHZyElyIYUd2MUzQ58JbeDmow+UiuR1UQTZlBAiGcZs2mYEGodSTQT0hCNzWRzqFSwMUyyCh2FFo5C6gNHFr4lUgGaO1daNRSC4TGxTD5HcAAeHQtqltAn0uNIDAWM0jI2pcvDhkhmnYpZe6HAuFLHWsLbJawzxYz5s77cEjybkJ6b4P5iCQ38FEgH9MHhQn3gpcukuXLTVeC/iAN4BxYFAZF9yvWGJ8i4cBtMq3oEbyDkD7COjevl51dZJTsND8xuTF4wPK5z1IlQQw6i8pKTUJO0yaYDgoGx+mH6883YtgDlCavMdCBi3TH7xG0Os8CM6Gcyg9n8OSstGb/B4aO7u7DK+x7kyoJ0WyKUCXLY8sBCx+so3TeVlS0ZAuSXHaokz4WrvOZq2zVszuCgOyRk1OgPMgsLbcOQjJ2xxdfYQTUNQkxjmA4NY1/0WxuKRYhDpxUOY+4UViyFiQKBnWMlYoba+YyJMhRFZbW2PCRoRASDBml0FLywoD+gh90QZzDFBjtgd2d2shnqPKSkMXwhPhzYOCJSdpZQtxb/JkSPIqN2sfRcicR9Y0LlxkLDaXnAlgmcymz3XgZ1DebVlMzkPAsk936RhhJHZ9sCMruNsoU/NGARAvDiSlUZ52kLfITZIM2VFG8rfZg19aZpI74aXzANm8hQ4jH1xSajAHgR0OeHsIAaK4jHxAHsXjWkEisWQAAnMDzwhPMMSAF5CxxoJ2Y8lcQo4AOrZGDkI2gMBhVukeCxBmmIMQ2MUQrN95EBiDYK4RIJuxMoYRcn5iXWHcsd6DSYqAZsCbCSUuXGgUPrsPkJ8uh4FxZK0YvRErMbsWXH4XYz0wOGByAVnH7AYaGxsxuz0YJ6MLfJsQ7ZJ9k8cq61HLKDK8Be4URYtiPGPZsPDdwnRWrdkmM2EdMIHJ3LRl2CGw2XgRIII6TAJNf78RXCTIsLhMVmbnZgMc3ClVtXV1ZpFslcfzRKxzYHDY5CEEY4jp2scyoN/EsNgulgqpJtvVLuMVKx0rDuGJogdsoBiZYC7j27g129omXXfwD4SI0EfJ0zYTzz0m63yMUEjV5O4TwkV4Z7DMsNFdBjPjaABHW5uJm/E7k4bkssWL8Q6F4zr6n++miidnDpiZYyoDjDDRmRuplasFGMlx2nCUTJXK7CacXhsLi7lHnobbDmjCZQGrwG2lqqtjK1uJeji9MEWy2jRln+RGdklCgDGT8Z3qbIKJxCHWhuOPWytuF4M7NMecgzBhaWCtudCcqxeAgJAxWcqBLce4GdvaN03uKqKfgKLGRfa0P+NCbt1g905zkc3EmkcOoJB5TOZ6X6+ZUzwAlv6+PvMe4URfmZfOajVtVFcbhc9MMB7D/j4R5DD0ejJbwShjXK+bN5u+8XcsKpfr5KKM1Oe8aGHmRi7zwdWX6hvaZSeLoRfBneVUWdYX246ZM9nO+w+2R+Ig/F210iYPu8e6pa0sXYmFbhKkJ+TDxJHbADcbnrQ7xbBSWd/wFqBgdjF4XBVuwwp4YjDY3Bk1rD2UG+PI+AEGGxsXTSarAxCIfzNfkFOEiqBncj0b3tj8hFRPocbC1T2THARHQzoPQjoaGQt28LAl1+zSSHFhXyoPArTaddU6mQuCvLeJutarlLyLwe1Qcd42O+fx7NmkS2RSe1ubqdd4BjjZs6FhMrHXGSTQY9ppbJzYKThkAAflnaGYnHRL/VkBghsAJjnCASVAYpPbvhHUHzQGQbiYeI9lkvzQEd6DdCHQdSyYc0BnjEtaMvXkm6GcbTKmes+CJtu+rrbGCM6Um+18a3VyFjvKONPuhVRt0HcTAw5cKMJvWGMkQAX7zffwBVSZzBPj4of35m4Iu83UKbZgHdQ7Pj5mBNqU5W5HyIWFEhNjk47nmXiZ/h6GMErbbo2cPFhpBpc2hVESpq8plDJI3ir8hWafPcmxS5faLaZBIYRlRkyRJMPe3n4DIoPH7AZ9J+nocQozk+chON5mrZSwVgjLWGUcrAMa3UJP7p97R1vJ7WGJYs2QPJhqnfGe+QILcDOzTQ+FjkvfPcSq2T7L7iQDPicEjntv5mV83ISuUl12xe/xOGvdztvJtTAxRvSZzf14tibnaRya7R7yfGVDuvmQbS6hIJkLzFmURKqwghPgACF4yF0euXg6bMzYngWSTn44cGJ3L4wbxUNuS/AsBuf+hpfUZYyAiWTF4JwwcnfcetBM2C9gHeDFSr6dMrkOI5/Gx039yfIlGz8n50uaw7zSK2v7ZRiAkG5tJnsQsrVl5G0K/gX7aNZvknx3c82FipH1zIcgwHRhdrfN0az1CdlutkuWMOeTThye0LtINtZJ8powsj0w9o5+qwts+VSyyM4bZT5JMezAJpcLw2S+CWmgbkFGtvpnuvCDDeEZYG8w64QtliSLIEhJIiPRjgubLGJL72kIQ2cmHuf7fRg+hFFqYedBPOHOQLCUT6lXW8OW9zRMiYbgqYu55h6E6UMmXpo8mvaOyetiSUBLFWKwFzpxaIlVaAj9ZMEw0zk9KUDyWBdhxinbnErFS/jT3dVtDhILAoRU7WWrP8ycDNOPbOsmm3zJRme29y4ciRWIXMD9TkiEfzNHkBN4apjL5B2kAjPZ2ggzrwvBq2xzNhudxR6LbH1Mn6SYfZsjhm9nV3fWbY7FHgvC8pu7Og3YNNtJU3gm8qUhzDgGy4TyIISpNNsApnsftu5M5cLWMRMarXuwZ3JLoasD0EDcJniS3Ezqz/WbYvY1bN3ZxsIe5xoMMfDF9JMwp8OH6eIpV3CQKzhNOxcnkkBxr2Y6RRJhhMIkrp5NsOY6vlNwKRx4zjYWhaKP/pJ/gZufw5HCPmHnVNj65lo5rGZCUiQ2m/TaSURs7+xgSyahnVzyVIrVx7BjEbbcTOgsVt0oU8IceHO3fFK1Ok0NTua9pfJ6z6Sf2UBwKorYVoo3gfBjtqO0Z0pTrsZMKIBQCGIKVUexJlg2+pzrH+sASwDlkMtRxNnqz3XgcqmvGGWzKabp4Yb0pZNva5gJOCjmnChm3cUYl2LX6eKcqdrZnnlldlZM7M5xWxKDIZNij8t8kx+58CPdvEr+3YU4gpb3VAjbnXw7ieCmkVCIUPa2uCbyAgjbs0DIZYLPVtnZHh8b/56yiadf3DSdK3hkkuPPyXyb7f6kG8eJM0m2eJ3hHpwtyqa48bkg04b8YBw6E1ugc6ozydVojiDHQobWXPqWU6PbSeFc53Ku5YvFxrDKuljtR/VuXQ7kBRByQUy5TvCw5cOW2xpsDUNLNmdXIeks1GIO0y/ozugnmDjBMeVpiSH84GFpmIIj4Vz0+fKbBPaXvYxdPVPJzChQzrp69FF/UjFnGouVLZ4OPdTXnXdyjHdminLhw/iYdPq7PD37rPTLX6LZZ8YT+rP33p722MP2kZuCf/Ob1JaYox4Awfku7AjlCTHE+Q5Fxu+nO5RT05MLb/Mldu6szXx7kv2W0LkO9OfCWBRq7uWqX7K1W3CAkFlRbDkZsxGYCwgJls2l3kxls9UTRvCEWYLZ2glTx0x5lY9SDUN3mDJu3mRSJtnq2dpjQXvlZdJpp8XEseYrW6zHZN16brbz9aUvkT2cfeT22jOmk0/x9YHzfVVM3B7s1G9YxZqKN+Nx6fDXe9q4ydeTT0wcshLMDpnwBqSbN+Z3X3rVqzy9/e2efvELTjKUli71dPsXg1tap2pwdOyyi6fTTpMuusgXJ7lO2+2UA2DINubZuBuEMWF5mSzD8qUhHY1h6811LuSynotNQzItM+1LtnHO9X1yv7Pxwb0vJv3ZaAjyMh85mYueLApAKDZiDMvIXCdNscvPBboLTUOh65vJGMyEhpl8k422U09lz7l0991TagnX/m6rY6pv8PX445zZ7k5Ds2pot91j2nUX6aCDpPMvsAABULF6tT3dEoXc0eGrudnTunUkvlmLrbpKqqvztGmT/S354eTVpiZbR2eXr8GBqRLUv8uunpqWSJs2elq7jpMJU/eO/px+Ovd4+Lr5ZguAgu3x3bJlnhoXS/19nja1JTQ0KO26q6f3vEd63/t8QQuelrkclshVYWSbCzN5X+g5Wej6ZtKnmXwzF8diW+FlruMxCRCSL2uSQpg+ubZW5PKpBjHXgc21fJgu5VpnruXD0DAXysyFfuVKQ9jyKM1TTrEA4Z57rCIl7HD++Z4WLfK0foO0wypft90m/etfvnbYwdMHP4jy5zx3Qgu+LrjAN9b5ZZdJQ8OeRkek2lpf117r64YbPN11l/Tb39q6zzjD09CQ9LWvcdDJlqO7bLl00kkxrVrp6777pJ/9bApIAGT23Vf6z9Pcvip94+u+nnwyaGtPrw/wctJJnn74Q+n7359qj3ZPP93TnntKa9d52nknX5/5jK/ddvO0334AFOm55yw4eOghG3IJ0hqWt7lYxLnO87lAQ640F6N8rnyYCzTMBZqLwYe5UOekx6RY5yDMhU6moyGaWHN5dLY+bQWZD550ahJA2H9/TyedJF18sQ01nHIKlxGhRKX/vcLTnx9N6Ec/kvbYI6aTTvJ14YWEGWIaG5W+dEdCLSs9nXGGdPnlvg4+2NOxx0qXXornwNdFF3u69Rbu3EjNLwALbV54oae//1368Y+nAMJ113l6/nnpzjt9kythTsG097ikfKjrjW/0dPTRHLkrfe5zXDvr65BDLE3XXy/19vq66ipPX/sap/JJe+4lHfkGW5YQQ+sG+03Ykzm3/iyIWiwGBwqytopB2HZY50wM6IKHGDJNiGJNFmf75BJjTDU/ikXfbM3FXPuTa/l8eTgbcyWXsciFH8keBA4APOH4mPbe29fVV9sZ+tKXSiee6BmleeGFAAcuOPK1994xve1tvgECt90W0zXXoPh97byzddPzO1b4zTd7uuNLXPbj6SUvkT760dTeA9fH0THa8PT4PyxAcEmKBx7o6fjjJW6c/dUvpQce8DUwmDmREBCxfLmnd5wmtazAM+Lrve/1xD1geEzwllx7rQUIhFLwIpx+ukxeBXka+T65jEW+bW2N72ejP4VqM2w9YcttDX5namM26MylzVzK5mIUh6k3L4AQpoFsA+Pez6Zyz6cfwW/zqSefRVIIgOTqgI58xyLfvhSi/a09FkGAcDchhoR0+OHSoYcSMrCW82Gv9fSaQ6W77vJ1ySWeUZ4D/dK73+1pxx2lj33M1y23eLrySumZZ3y95S2eXv1q6cKLOEZbOv4ET696pTQyIuPuJ9yQySLntHI8DQ4guLK4+QmFHHxITCccn9Bf/xrTV7863YUQnFPBLZh1ddInPuHpkkt8nXWWp6eflv7v/3zttJOMB+HGGy1AWL2bp/e6HIRyrn9PeWR9PlMl67dzYW1mJTJEgUKuzXzWRT7fBrtZqHpCsG6LIvm2XQhZ64iaKS1bk4a8AEK+HZ3JAOdrtWYDLDNVTjMd7GQe5ltPPjwtRNuFmrz50JLPtzMVZKlyEMgnuOoq6atfk9avI2FPevgX0i8f8fXRj3p64AEuJ/K0//52dwBA4pZbYvrH3321bpQOO8zmMZx3ng0F8PePf9zTwIB0zTVcehVUHVuOvPEgXGSt/F//mjvszb1LOuecEv3oh3ENDsqAkJFRT7d9NnWMgTDFEUfEtHYtN4B62msvXyef7Bma3nqSp9W7St/4hq9TTo2ZPIqvfNnXn/4kk1R57bXS5z/PnfW+6edf/pLZ4xGtzXxWb/ZvZ2NdJFM1F2jIzqlwJfLpSz7fzlRGzWQsCgIQ5gpQCDesxS+VbvALNSnC9GAu0BCGztkqU4yxeO1ruQXR1yOPTPVqhx2k//kfLh3z9Le/SQ8+yOVF0sv393TkkfZMgd/9TnrlK6Xbb7eW91tPZOeBdP/90nFvlu78im+UOW5+rPQ//1n63vds2CHTg5fghBM87byzzPd33GHPZXjzmz2tXm2TBzdvZteF1NeXGmxQ/sijPB14gN2FQGLk975nEy2rqz2dcgo5ETZMQVjh6ad9k/PAs+++to9895OfSn/8Q2qAUIyxSMeXubAutmZ/Z2t9hWk3GgvLpWLOh3zrDgUQ8m0kzGTZ2mVy6VMuZXMVTKnKZ2qvELRsbV4Xsr1C9L8QdaTqk0v0m5apz/H8vj0ACYXt3nEqYWmJ/Q3vA9+isClLGSx39zu5AgsXeNpnH09veAO5BwmTCBjmoR63NdEBCvIjuBQyRvtj2bcfQhveC74nbOFoM5BiYtsj/SGsEjxlkd8ILbiQxlzd5pjLfIjWZvpZlwsfiy0nw6yNQtCQTztz/duJ9V2c2xzneucj+iIOzBcOsBWRExFRxt/+tvTEEzN31c+XPkd0RhyIODD7HAjlQZgtMguBSPOlPRsNqd5n+yZfmsJ8nysNuZYPQ0Ohy2SjMdv7QtMTtr5c6Uouj+VdU+OZ5MSRkbmxVTDXPoXlVS7lstFQiLWZrY1c6HVlc60z1/IzoSnfb7LRmO19mPYLUUdyO7nWmWv5MP0qdJlC0jgFEOTfagndQ9IFKuRBSWEIDlMmMyPNbT+F5nXO9c0FF+RcoCFnxhXhg7nAh7lAQ76szbY2s72n/TBl8qUz2/dzYSyKTUMYPocpk42X+b4vNh/C0DcXaAhDZz5lwox1Rj6Yg5KaGs/y/CmA4Ol8+QU+SRHVDSFhH6fqQ39DoLV+oVSS5babsAQklQvD6GILwmLQkK+VFZamGbI95WfJbaajoZi0ha07bLliz51C8j9TXbn0t1A0hW0zbLmZjEXYusOWKwRvZtLWTL4J0hr2+7Dl5spY5EJvIcZuJv3O1u5M5KT1IDQ1nhWTfyvX8Uq7Z/QgOEWfq8J3xAe/K0QdU0zxNF5dJ38OeBGyDVT0PuJAxIGIAxEHIg7MdQ74nn+2t3r16rMkFS3EMNeZENEXcSDiQMSBiAMRByIOJHMgAgjRnIg4EHEg4kDEgYgDEQe24EAEEKJJEXEg4kDEgYgDEQciDkQAIZoDEQciDkQciDgQcSDiQHYORB6E7DyKSkQciDgQcSDiQMSB7Y4DEUDY7oY86nDEgYgDEQciDkQcyM6BCCBk51FUIuJAxIGIAxEHIg5sdxyIAMJ2N+RRhyMORByIOBBxIOJAdg5EACE7j6ISEQciDkQciDgQcWC740AEELa7IY86HHEg4kDEgYgDEQeycyACCNl5FJWIOBBxIOJAxIGIA9sdByKAsN0NedThiAMRByIORByIOJCdAxFAyM6jqETEgYgDEQciDkQc2O44EAGE7W7Iow5HHIg4EHEg4kDEgewciABCdh5FJSIORByIOBBxIOLAdseBCCBsd0MedTjiQMSBiAMRByIOZOdABBCy8ygqEXEg4kDEgYgDEQe2Ow5EAGG7G/KowxEHIg5EHIg4EHEgOwcigJCdR1GJiAMRByIORByIOLDdcSACCNvdkEcdjjgQcSDiQMSBiAPZORABhOw8ikpEHIg4EHEg4kDEge2OAxFA2O6GPOpwxIGIAxEHIg5EHMjOgQggZOdRVCLiQMSBiAMRByIObHcciADCdjfkUYcjDkQciDgQcSDiQHYORAAhO4+iEhEHtiEO+L4v82cb6lPUle2PA54kz/PMn+gpFgcigFAszkb1RhyYUxwAFIzH4/ITvhTJ1Dk1NhEx+XDAU1lpSQQU8mFh2m8jgFAUtkaVRhyYSxwAHIyOjSkWi6m0pKSgpOGJmC94Ix2tW7MPW7Otgg50gSsr1FjEEwkl4gmVlpUqFnkTCj1KZ3urV68+S9KttuY9JF0gKV7ghmZWnY+xk0X6UIYnW7mZUbB1vwrT361LUdTatsCBkdFRlZaUKhbbvl2yYdZXmDKzPSfmA41bi0fwIpGIC6BQXla2tZrdTtqZRQ8ChsyCBZ66u33FU+CRWEx68YulZ5+VBgdTj0dTk7RqlQUH//qX1Ns7vRz1Us98AA+NjdK++0o//aml2T2JhP1b8LdtZXYyPkuWSPX1duw6OrbNfs7meMXjCcUTcZWVlc0bS3+m/Covl6qqPPX0WKuhuloqLZ2SCy95iTQ0JP3zn6llQm2ttNNO0t/+NnfnYU2N9KpXST/7GYpxilNWUUoFdhDNdCgK+h39WrhQamiw47dp0/TxYbTHx8eNh6xkWxSUBeVmLpXNEkBgMqP8zzxTuvVWT//8p7+FEq+qkq6+2tNtt/kGJKR69tnHLpaXv1z69Kelv/51auEjGE45xdM3v+mrvz8XpsxO2T33lN78ZunKKyUHhFkYr3ylp+pqXw8/PDt0FbPVV7xCOuEEaWDigbhSAAAgAElEQVTACvNvflN67LFitrj91T22nQhOZMp++3k6+mhfV19t59O553p6/HHphz+08uWMM6Tubumee1Ir0t139/Tud/s66yypsnJuzpUVK6R3vUv62Mek0VFLI31fvVraay+7hpB929Kz887SO98pjY1JAKQf/9gaUsEHD0I8Ho+8CAUd+FkCCCzW//kf6fDD7UDfe6+d5G6yAw5A8xdeKH3uc9Latfa98zSgQPn7+LhFzTfd5Omuu3z9/e8WIFC2okL6xCekK66QNm+2v7t31M97Ftjw8FTb6XjLd9BDe3gz+DdAlT9M2ro6aWTE/j3TA12p2qY/1IUF1Nc3VQP1vfWtnhYskD7/eSvkHECmLmsxbek5wYqgf+k8LwWdQzOsDPpvugnhba2h887z1NTk64MftP2KnsJwgNyDstLSbT6Ji/l0wAEWcF5wgfTe93pavFj61Kd8szaZU6wf5EbyOuVbFM+uu3p629t8vf/9dv3wDUCD8siJoMWeanSoB1nAfzFKnMxBYSNraIM6qCubnEjVNvW4tR30llLnq18tve510v/+rzUwgnKC76CLb4J9gD5omssGFPTSpzVrPH31q75OPtnTK1/p65xzpnPQ5dlURMKjMILDauPZyUFAqWEpd3d7WrSICeBPLpo3vtF6BZjgKMbrrpP23x8r09ODD7JFS2YBP/ywpyeesKjixhs93XnnFEAg9IA1cOKJvu67zzMLYONGX08/Le28s6d3vtOfBAgop1/8Ij1PWZB4Olas8JRI+HrkEenBB6VDDvH0ohdZgbPnnr76+jxdfz0oNn3SxItfbAUQdQI2/u//rDvzfe/ztHy5b6ybj3/cWgD0f599PL3mNb6qqz3jQeC3Rx+1Ag/r+5hjrKXzt795+sY3fFMnz6mnetp1V1/XXDNlZRRw1uRdFWO4dKmn667zdd55EuN1/vlWsH7oQzbsFD35c4CZODI6prKy7QcgHH+89P3vA6yla6+17miAwvveZ9fPr3/t6YEH/GkhuzPP9M36Li/3FI/bOblsmYwSwjBgjeOdxDpP96DI3vEO5I4tgefiq1+VXvQivBrS+vWsWdaopxtuSKi/P72cWL7cejuQk6zpP/5R+ta3pLe9zdNee/kGbNxwwxTQwRv78pd72mMPX9/5Dv2Q/v533wCCXXbhOwsE1q719MUv+sZND71HH+3pda/z9ZGPSF1d+c+3YtQAQPvMZ2RkGZ7GD33IgraPfczT889PyYmtDRDmsoQqXNLwLAEEFCvegcsvZ7FYRUYY4VWvsgr0mmt8JRKesSZvuUV6/etBv56+9S0LEK66ytMPfiD9+c+pAQLuNhT4y14GaPCMQn3qKel3v/MNGn32WU/f+Y4FCVgHTLx0D8p76VImJEJE+sAHrBLfZZeY3vzmhJ580ip6LOA//Um6//4twyXUDVpH+T33nG8EDQuWhYo1gRBikSPc4AsWACDhTW/yRNyUBU+OBXXce6+vJUs8XXSRr89/3tPTT/v65CdtiAWhxPOGN3g68EDfCMhU+R3FWMi51MkYvuQlnt7/ft+4Dq+5xtNjj/nGPXzTTTED/OZD3kgufZ6NstsjQDj9dLtObr11KuQIMMCCBji3tsqAaRerB5iS/4M3a9UqT//v/1kPwtvf7pn8JkKczhpPznFyY8p8Pv54z8ipK6+0dX/4w56+9z3p+ecJdfhqa7OyjHqRR7feioyb7r2kHerC+0FY8bOftSCBNYyRw99bWqR3v1u67DIL/unrkUd6Jn9p6VJff/mLZ+THD35gjS5k6w9+4OnXv7ZA4Ec/kh54wIKll73Mylu8rJlk4GzMXddmc7P00Y9KZ58tvec9NkSEXP/ud0v0858nJuXE1gIIcTzZLjEeGzsEc0gpC6SLTPuCNZqtDqfw3c6PYPl03/N7CR7nvNDCLAAEFsBxx1l33rXX+rr+eouQ779fuvRST888I6O8WQwsMhYSCw8LnXyCMACBEcCyRpHjqejstGPCgjzhBE9HHOHruedo09OTT063JoKjx0IHvX7xi4AR697DEnnmGU9jY9a6pw+48k87zdPQkK+7706fFPmWt3g67DBf//mPjGfjP/+ZapscBJC+AwiO3hNPtCGG22+3SpP+42U59lgLGvj3brtZ6+bnP59ya1I2m0s0xNwuShFoxjsCQMB7s3KljDBESH/8456eeioCCIVg/PYIEE480a6Jf//b0x13TCVAsx7e8x7PhBu//nWrxLFEkREozg0bWEeeTj/dN2scDx1KCcv/wQc9/fGP6eck7V1+ufSXv1gFTFtvepO13r//fU/vfa9v2qEuQP+++1rwDpghKdIZEBgaGByHHSb9v/8nvfCCbftPf5oCNHg2ADUOILh5gtf1ta+dymGCJjyv5Cv8+99WFrgEzC98wRogLgQyV+UEfcO7yPh85zs2jILnBMBw772eHnlkaky2BkAYA9BNMDyTYg6rwNMBg+S6w7bl5kKwPAChdMYgYRYAAhPz4os91df72rjRIuLNmz3deKNdRPfc4+n3v/eNWxBr/8YbbWyNEAPWM98Tdvj61720HgQYhXeA+q66yuYgBNE+HozDDrMeBhTU17+eOmuZtrDMb7sNl50tg9B44QWsAE+77+7rM5+xoAXLYGzM19e+lh4g8D1C4zWv8bTffr6+/W2bg8H3qQAC7kVyEAjDfO5zU4sBgPWyl8mAEZeQBC/ZBTAfHhdiuPpqyzsSrqyHxQKknp750Iu5T+P2CBDwwt12m6eLL/aNBf+Tn0wp4GSAgIxBvhBSwDI99FBPRx1lQwzID2TTQQd5Ougg33ggAbGpHuYwVvjvfmfXM3MZEL/HHtYIIdzx8Y/7xkp/4xs97b+/TaRE2WMIuYdwiMsbwntB2wcfnNBjjxEasHIiFUDg92AOggvDH3igzfXiW+cxwQuyZs382NkFXwBxjBH03367TJgYgIBhST+m5Lo96yNVDgLgId8TFwEHk21NnP2RyqIPIxUyeRSyfR9U/mG8D9SHJ4E/uT+zABBwGX34w9Kdd1r3OsoPtAwCZ2Fu2mTzCfi7de1LBx7oqaXFN4qafABCCLffPh0g3HOPr3/8w4YMXAIfFilJjiBottIBFF7xCpu7gHufXQO49l1iTyoGEuZgcuHJgB7cj5//PO7IWE4AAaFBlvW//mVdf1g65EN89KPWygEgnHyy5QNlAQf8fuyxNikHi8MlVmJxY+Xg3WCRsFWQ8ggYnr33ttYCYZi5ah3QNwAcYIu4KAIV0HPRRbafxXoGRhIanVztE6vGk8pKPFWWeSpNs5KGRhMaHvUlP6GG2rItXHfxhK/eQfbreqoq91RZHtirGuhM32BCY5xm6EuL6qYOLRqP++odihuQmfA9lZT4po66Sk6Jy86Njs2bzTxd3NhojlLmyQcguCOZgy2nOtqW7HEnqAyZE1KTLWfJT2JiMmZ6576nUnvwzfTOp6vDJSkCEM4/P6Fjj40ZK55QwxNPWOl+5pkxAz6/+S1f42O+amtjxmvFTqrhYd+4sFmbJDm++tWenn3WxvGxzqkL8DrB2mld4zdk2N57e/rEJ6y1f8EFnn760wGtWVOpt72tJCVASDWusAjXP/F1wgovfamVFXgMoI38BDwIGD7828m7/fbDi4nxNbW1G/CBbMNoIYeCMEtDA15aOz923NEmdt53n02ynosPcuLSS61MYKwIuf73f1s5HJxi6TwIgAbWRnVVlRawT3IGD7NnPGFnYiqrP6yinkHTW3zi2hobt8ell2dwDwRXTllqcZSFpFkACIceisJnC6NTeL6uu87Tj39sY3OnnGK9BCQDkmj45S/7JgbP1qOqKl9/+EPMLBKy3//2NztcV1zhackSFK2nyy+3C4vF95a3sE3QLiTcdVgAF17oaeVKWwZ0yuJwrvlU3GJiIhjYh8uEJNRw113kRcRMIiCufysgrAcBV3+qhc+3CA2ADlYCbd9xh2eSiXhIbgL88C1Wx49/bMMPACq8FmVlnmpqErrhBk/r1llL5PDDp+r60pesl4PvP/AB4qe+WVjZMqYLMWlnWgfbU7GuSNiqqfENX0naLObT3jeugUGbzWmtCjt+vu/Jg98LylSVQrlv6BzV6Jgdq8b6UtVVTT+RkHeUoT4U+9KFW27FGB331do5atpL+Ant1FxlxmtkzNfGLvu7nTvQ5PH/qq4oUVNDWUaQgHDcuKlNNdVVqgcJTzz5AIS+vl61t3co5sWsUPSkivIy1dbVqx5NI2LgI1q7dp1KJszTSYvK97Vs+TJVVkztFeQshg3rN5i6VoFwA8/Y2JheeOEFxWIlE1IYJRtTdXW16usbVD6Zme5r/foNisfHtaKlRSWUn3jgHQDzyCPHdMYZL2jhoqW64PwaLVs2rve8d53i474uuKBJhx5ard7euC69tF2+v1jvfnfZRBK09NvfkvNj18273209jOwqIkfoV7/KnKRI+xg1KF3+/p//xHX+BS/o9a9r0YknlhtPI+v+8MNtG4DjVHIChUgOwj77WHBCePGhh6ycojxGCgCGEOqjj3r6ylesZ5GcJpIqMRaQn6wlZNUBB3h6y1tIbPZUW+ubEIgLg7Aj4NWv9k0Ytr29mKsuv7p32MHKRnIumN4koZJcHnzSAQS2+XZ1dam6qlq1tTUzImTcrFf7aSowwHj3D46rtppk4OnlUoUL7ArP/gSBd3L5jt4xM8+QDdnqmnk+wiwABBAviwB06wQi1jwyhj+lpdaiJkmRCYGCdvF0km/4nj/83bnNgluQqNcNkjs4BGWMC5FvqJNdASwosuWhIdvZGgCX+nrosTsFaBcaqN9Zu25PcqZdNrZt2z5tuxggU4U+OxQPncFDwfhu0SJPvb1gWc/Q65IPSbAiAcrtfLCKzx5C1dk592P5KGncpsSAwy2b7AsrUwkHEEpKPC2qKzPjP57w1Tc4bngKb1ctme7CGBn3tdEodqsC4e+qpopptq0FCNYMo9jKJRXTvBF809U3rq7+cTuffWmnpZWmDkDDyFhC0LSgtsxYBUMjcfUMxE2bNVWlWlKffnP70NCQunt6tXBBgyoDG/jzAwh96uru0pLFTfJKPPlxMu/7zZ/m5qWqrq4yAGH9hlY1Ni6aVOJOqJWXlZuDa9wzMDCgtrY2eV5MLS0rVBrYrA9AWLdunRobG1VRUW76PDw8or6+PnNK3ooVLRPlfW3Y0KqRkREtXrxEdXW1SUAjoeeeW6vy8oSamppVVlatnp4B9fe3G8AyNJTQ+LhdE9XVMVVWVBijAqua9Qi5bo3yX9ZyXR27oHyz3rMdQkQZ1jdPd/eo2trWa9nyFZJfPinHnPzLdM4CZabaRtZM5SAwt5CXPLAwKG/4DgUK7fyBXsrzO2sMOcHj+oH8am721NY29+UEa5OdJoRR4UcyuMqUg8AJogljBcxMdqQLL7jaDEDfPKqmReUqSZEV6Cz5bPkL6ahLdiBSDwCBZ0m9BQjZvBgzCzPMAkCY2RBFX0UcKAwHHEAoKy9RyyILEHgIPXT0WFS+Y/MUQGDhdQ7E1d03Jr7h3HcE64rF5SYs4Z4gQOC3uupSNdZNKXXqxcMwhq+ShFkAQrO1sJ9vH5bnxyY8E1apIgABCAPDcRPOaE7hkXBtd3V3a2R4RM3NTdNirfkChO7uLqOcpxS9rzVrXlB5RbmWLV02CRCWL1umigxxIUDgxk0bjYDmxDs8AkswdSceBxCWLl+mqqDXIR7X+vXrDKhYabwOFiCMjo4qVlKyhSdicHBQmybibM3NzcYDwW/t7e3acccdJ0MvmWYSwr6np8d8C13DI8OqKK9QbW2tiXH39/UZHvMeMObCOYQ+ADT0D14AdNatW68VLSsEWIqe4nIgHUCw49KvykrGpEJ4FAYHB1RTU6vRkREDNllsjCVhCDeeQWpH02xBYA0jF/hmZDShCvz4nlRVUaKayhKjuNk22zMwrrqaUvUPjGt4PKHayhLV15SqdyCukphUXWk9Yb0DY8ZzxnsMhoHhhAl7Enos8Tw11JVOypzNEx6EJQ1lRpbwLY031KY2JGaWrBgBhOLO2qj2OccBCxDiKi+PWYAwgb43942bhVxeFtPyRdMF+vrNoyI8QPiBMizehppSLQwsRgcQOOqVfASsNDwRDoCQw7CpCwFghcYkQPCkdR0j5rfyshI1L7BCwLk0g1ZHKmairNraOwygWLJ48TQBV3iAQM7LGhNSaGlpmQYQgp4L6AwKWpTm+vXrtXjJYsXH4+rq7NKqHVZNgplJgLBsmaqSTGs8Dyj4VatWmbskNmzYoNLSMuE1WbFiufm7a6+tvc2AEEBBECC0tbdr55122kL4p1IGKJTn16wxJ/LRT9ocGhpWVXWVhoeGDTBAqXBq39KlSyeBEUCGvlVWVWp0bNyY7vQLb0lZBBCKLgfSAQTmHusDb1Ndba2Gh4cFoGZ8x8bGVVbOf62SN2VqardwNKQCCKwt1ujwKAaDr96BcdXX2gujyGPCC8jaxdvR0T2iWGnMAAEU9fh4wngK23pGVV4Sm1Tq7V2jKiuNaWF9qQEHXT2jqqwsMWFGQhiAiUUNVjYZgGDCnWXGsIGYxQ3lJkzqnqBXIQIIRZ+CUQPbAgecB4GFXF1p4+vjcZnERRb24vpSawlMPOQHtHaNGAS/vLFcoySDdo0Y5QYAcK5OBxBY4Cj4wZG4liwsV015zLj/NnaPmd8W1papC6tD1oPA9939U6EHFBJ0VJbhAo+pOk2yY3AsbP5B9RYu9/wBQreWLltq8xB8YuiD6uzsNKGAuro6CxDWb1BVVdVkHoL1fnCK4eJJEnt7e41Vvnz5clMPYCGoXDMBBPfOWeIbNqy3noGhYaO8lzYvNe2MjY0aWpqXNqt1Q6up33kQCG2Y+PME2uI/KP9FZEgnPQAEQBCAhzp4Ojs3GyuUf/M7Sgeg0rCgQQsaFqirq1Nd3T3Ck4J3hPySjvYODQ4NqmVFBBC2htzIFSCUlJRq8aJF8mIcjhVXZ1eXmbdNS5ZsASTTeRDMXDdAgRDDiJoXVdq7fwLBUgsQRlVXW6raqhJbnrt1PKmte0zlJqxYaqZmECAMAhB6R7VssZUR/UNxDQzF1TxhvAAQkFuABqDIwroysx6SwYGjJQIIW2MWRm3Mew5MJSly9rbtjtkGJU+lMRZriVnI7unoGzfoHbchHgSeNW3DxjOA298lNDqAUFoaMwseoVBeGjOgIp6Q1m8eMdbF4oYytW4emQYQqKt7IK6+oXHjfXDLHIEF2EAopNumNDwyoq6u7i3yD5zwmulJirjLN0/sjAjyqbq6xngqoA2AsG79BuOadYmKyQAB4UYZLLampibD63Xr15mwxfJlyyeUu81BWJrCgzAJEFasMMoXgFBTU6PyigptbN1oPAu0jYAfMgq5Rc8888wWAIFvzFhPCPVMAAEPQuOiRWqYyHoH4HT39EyGNOgDAAEAAsgg7OF57HJaNjlv8HBs3Lgx8iBsJYmRK0AA4NZOzAlIxKswOjqmpiV2bgcfAEKqGL/7DQ/Cps4pgBD8FoDQ3j2ipY0V0xW4AQjpPQgGIPSNacWEF5J/471c1jjlQRgeiRta8XoiV1IlRDoP5DYJEEjUIykw1dYiBsElNloLIvudCltprm61ZkiICnNG/FYjaB405EIMZYQYFtr4HYuoezCu3n6b+OMUP7+vbR9RIi5VVniqLi+RT25A/5gSfky1VTEtaSg183PSg1BiQcG6jlFT9w5N5eofSqi9Z9S4Etm2SEgBGLDT0umJjiahLO6rfzhhkhTZygR1eBRaFqfe+9np8g+aFttdAIEnfw9Cl0n2Iwegt7dbAwODWrVqpfk3j/UgtGr58vQ5CLhxUeoIcCwc06OJ+AlhCpIVM3kQcAm3btxolDPxWaOYa2qM5b7mhRe0aOFC4x0g3o/QX7BggZ599tlpAMHlIJSX26Rkl1CcPF3RC7FYQv95eo0BQdTHw46O7u6eiTwICyhbN2xQJQBh4UKt37BelZVVBlS4hzyJdevXa+UcCDEQtXHJkfNgic6IxOwAoUZ1tXWTIQbGamp3jAwAHBkZ1ZLFjdOSa808T3cM4gSlQYCARR/MhXQAwXkCXOesB2FUpbGYFkzkKjkPwoL6Ug0NJ9TdN64VS/BISYMjCSN3ljVaOYAHIRH3zZbrjp4R1deUTTNskuUAczv3A5NmMQeB7Pv//u+Y7r03kfIccHtfg2cuKUp3myMnLLIn1u2RZYvc5DYTk6lsM37zPQuATGFcR3NpyyBbrzgshPPeOaAl1ZapGa20In2EYOYcCA6A+fa37VZWjpM95xy2nbJtiaNpZ5hmnAPNU0mK5CCQMW8/ZsGuI9dgLKHqylI1NZQaBY3lP/2ZOuYEj8DKid0MbpsjFj8AoW8ors6+MdVVlal/JG6Uoslt8KT1BiBM7WJwNATHkL939sfVY3Y9+NqhacvrBV3+ASIJhbaFwsvjLgY8CMEkRZNHsGGDibkvZe9tSIBAHXg4lixZrJKJnQsI87ZNbVq8uFG1tXUZAQLeBq6sBiDAE2jA8mtoWKDNnZvNropFCxeZrWwHH7xSr3hFTNdf/4zZaXHUUTWKlQzrzjs3aqcdd9SHP4zlb89GSHXjIduq33l6XMe/eY2WLp0OEAghuO2ZyR6E1tZWs9ti5crl5j4HZI5JmGzbpBV4PmYxBwG5xemDTzzBtursO7ZyWEoFLcoa4IyD446z99JwWu2ttyY0OGiteeTdMcd4+sc/fNOX5Cc7QJieg9C4qFHl5dYjyJMNIGQ73Ki1Y1hLFlSodEILO2veAgRCBVPhSNpjLm/uZeeUr6YFNheKMEVleYnJQcBjQALkMnZUARCMB2E6QOAbtjn2D8ZNmJJdFIQsHJ6ZtzkITAaOE+VgII4XTT6HgPdBgMCxyMHHbY90HgQu7mA/sDsHgLKABhYGB4q4o5ZdHUGPRBjFymFFnKr26U/707YfUl8q4Z5t5WT6Jt275N+hmz3XHN+aziJy9AX76Hi35QIrLsjAuOKALPZbc3gL48MJaew95yhZ7rjgoCvOcwgzJtl4nO59OoDAYlrbMSIOLCKZiIVHjBDkXlHmmWQga89bdyNbExn8xoZy1VXGJjwIoyYkgBsQqwJPgXvIawAgjIwntL5jdBIgACxaO234AWDhDmqiDcIOXf1jJgdgVdOWmfCERVo3bUqZf2CEUJ4AgW2OuOzdLobunm51d3WbBEUsf+dBWLqs2WT6Bx/npn3++edVW1e3RWyXkAK8XNnSMgUQAkl/KNyOjs3G4iM0gTvf7mLYYEIMAAQmyprnnzcWfXVtrY49eomOP97XiSc+qze+cZnOOadKV1wxqMces0mO9qwUd7sr21Wt8iGEwN/3379ep50W13/91wRAqK0zNOJBIIfC7qSwHgTCCmz1JMTQ09tjaH3zccv0pjfR5pg2bmpVYnzcAISy8ikgmsvcziSnkuVBcF0nr3G2OHKmQqb7FpK/2dpygvY4/+FnP2MXiT2HgsOrODX3ta+1F+/hUf72t+0ZMcUBCCMGaCcf5JUuxBCkoa2LnAB7aFhNld2lwN9JbsYzkAwQ+HZ4NK7OnrFpIY2qCpIUy6YBBM+XSVpMBgh4Ftw5CJt72CotI3umGRoTRGIA5X6a4ix5EBhoTgLknm8uM7n5ZhtK4OFgkJe+lKOYARG+eefOL+DUQGuJ2oOP3BHKybc5AhzwDnJRCROMm8qoH0WK5cClUBy2xJ7axx+3Rz6newAqHEpEeY475nvn1uc3rGIGhMuGUNbZBAAnHK5eTWKMpesvf+HyJXvmONYNt7LRBosAzwWnRnI/BZcb4XX56U85Ac7eZUGfQNTuGtf99/fU3u6b67F5+B5UDuLGquGIaU5poz7odWcpEIo74ghujLQ3Shb6gSccPkM77CriSOV997WXcZ19tr2d7jWvscfTMi+Cx88WmpbJJMWYp/pqtiL55pS04RFu4rSCp2lBuTnsiFwDNMTi+rKJslPU2LMLOMgopuaFZRoZtecglJXEzCJlQbZ2j2lkJGHaaGooVw1AwgAEkhR9cw4C9ROO4ERCXPDkP1AH2dEDI3Ez4bEqli6csnYcFbjmOSUOJZXqiNlCAwQUIwca4QlYsXy5SQzEtU88Pzlu29TcbL0ybPVbsWKLbZDE6NmSuGzZMiOQ165dO1mP211AvQtNCKF2InHMHpRUU1OtBQsWGja0bmw1WzyJ/x9ySIW58Oyss9bq9ttX6PvfL9GPHhjQQH+7Xve6hokDjEb073+PmDMn+KakpEwVFa3aZ58K7bnnIu2+e1z//d9rtHRZo157WIORUW3tw/rD73s0ONgUAAhTOQh2a+QmvfrVZTruuHqdd95GVVaWqbNz0JyD0NxULtYm65aD0TguOJOcQMZxMRy3v+IBYH1ziysYiTWMwYSMRFYiD5BHXNZEvdzLwqVTv/mN/X2vvbiF1sqQ1lZ7QRSntvLff/5zig4OmeJK5Y4O33j5kEOcm8AdFO58FuTSUUfZi9U4rC2brMt17UKTq5ND7sBjyG8Ol9qwwTf3zzzxhKeHHioEQAgfYuB8tOQwd3K8n/ecp8J6JszgEgbN7/GE2Z2QKo8BLyVnc5TheeB/KHJCcQlfRBjdVmqqxuhwBgSGDPUxjy1opR373uUqBrlE9blf3DRLAAFvKEcHf/Obnk46yTfH66KsUZKcWoiV2dZmTzLjxLEjjrC3OXIXA4y49lrPXO7EouEJAgT+zfGkRx0lcQIXExlFyi1nP/qRr7e/3S6QP/7RKlyOPuaUtFQPQINjTVHgKFsUOAer4K3g39D9+OOeoYmTz/BY2AN/Uj+cl87Z6Exy7qLgyuNLL/V18MGejj3WLmhumuRaWJTn4sWeuQmOUx9ZvJzARhsctMTxr1z68tnP2gunWFzcjOiOp2aicVkLApOzy1HAhx8u/eY3ng49lNvQpjOYMBEAACAASURBVE4j22svezobR1lzcVahF/6RR9rTM3/+c3u9LMfB0uYll9gjU+kfJyoecghWRPYDaXIVPMHy7b0kHXIksj2qlIclhiBmi6JJUqws0TCW/WZ2K3DmQcW0Mw/4hmOViQMiCDgUiYW+YfOocTGumAAIbIfkNxY8sUR2QgAQAATMmZ05KMmThsfIURg325+C6VC8A6g0L5huFbj+YNUODA6puWnJtCRB9z4fgMBpheQPJG9fZIsfmf7uDACzjzzFQyjC9xMm8YtdDqkeQAJxYAACnoLgwzkHZWUcaT09YWxkZNj01W1vJPTh6OTYYBTLxo3j6uwsNce5j47GVVMzrre+tdKs+9/+dlx33WXHqby8wgBVjlhmHWOILF+e0HveO6wjDi/XySeXmPWCYu/oSJiLl9wDHeR8QCNj+c53etp557gWLIjp+efj5t037h1WR3uFuYSuowPwjnHi63Of84xhku7h+Heue376aWsEIFuQiytXeuJqajwBzz/v6aUv9c1R9FjcV1/tqafHN0YH4IL1jRH1utdZufHQQ/aaa2hlPXK/Dce6u0OUAPDUwQmsXCL1yCOeXv5y35zG+I1vWAWE0YY8pi4uzst2cNRM1intAHaggZAIXmFkG3xA3j71VO4AYVMb2xxrzAmgQ2xz7Owy4a0tcxBSexCCNzgG+5RK4Wfqc7by2d6nqjtT8mSw/MQRDTkOySwABCYAipI70lGC3GvApUO/+Q2TwjNHC3/kIwmjBLnW+bOfzf02R5JyUK6XXOKby5a6u+1NiyBx2qTu//s/33gvnFchJfM9Ww+5DrjpAAYsCjwX7lhk7kPgOfNMzxwFzdXLqRQs34GGOSaUC2Q4Zpj73S+7zDfnvnMcKrescSkMFjYLsanJ04UX+uboZa5v5XfOVcdTAUDhuux77uEbe7IYiBuly9GpAC7CK7/+tfT731v3PkessuA4Vx4hwgUzWAXQhqeCXI9Cn8nOeEIHwKax0dMxx9h+QD/Hbbe3exoY8LXrrpwTb4+JxrVYrAeX/niKpBSUFHuXHcoGjeMedEp6upqyApNEQtBFZZlNDsTqJ38PpW4W7kQZtlK53Q5YApyJwEsOU3EPOx2GRuMaNVuaEwZUEJbAQ5Huae/YbPfjN1vLNvnJByAUi//FqhdeAxBQLMxnQlXIFMaPd3jLzjrLMwrU3eYIIGBeokwfftge7X7GGfY2R259fe1r7fHfWNockxw83TS5H4TQ8BIcdJANRdIuihtZx/HyKHKAMLez4hkFGCdbpdSJwmZdIAeQi3gpWbuA6pYWT+edxyVv1s3O/Qxf+YoNHWA04Y1EhgAuyMd67DHbxkUXAUi4GdLShecBcPDlL9sr4s8914ILZAtX0q9fj8yx/MSwADygoPmWdYr8Kcb10NCKHAKwcSU1R0y7XBH4AkjKFSCYQ4xGRkxIjD946sZGx1ReAficWluATMJaqQ78MluhAzc5ZlPU6XYTOBmSSbrNBCQ4eoLf5p9/QK2zABCw1LiCFHeZvenMN5cMcVMXSpHJ/4c/2OueSVK85RYLEPAgfOtb1lK+5hrPKNo//3lLD4JTzu42x+B1z3SZOxW4F56bGLH2uT3y6aczKyRyEFC+n/qUjYMxkVFyf/qTvb2NB+uXvAqUYaoH9E3IA6WMkMKFh7XjAMKBB1prAP6wGFgYXOb0rnf5xgPAgnS/G6VVaRczQsQBBHjDfQ+4ovgdGqEHxcvfAQ0ISujn+uzrrrMhk2I9tHPeeZ52280mmsIDBCnuToANfdpnH2shENpAaL7jHcUNMRSrr4WqdxJcZjkZFiueA2DYYlhfb7PtI4BgPWYoRqeUUWY88DX5NkfmIxcA4T1j/u2xh6fTTrMAATnB/SpY0bz7znemLodLN9bce4C386qr7LHNzH/qaGiwipuHEAGKjrmeLneIJErWPLTjEQQIOIBw6qn24jZ3URPrl35gLCArCS+izGnf7Mn3rEwgv8cBBGQAxslee/kGfMCDT3zCGj7kBXH/BCFJC6w8fexj9qjpYj8cJ3/FFb65dwK5GvRQzBQgFIpmNIQ7cjmM1Z6Pog9DczoajFoPVAAEKp3RRU2mprO91atXnyXpVlvnHpIu4IDIMDTOqAyKjUnIZBwb44hLqzTOP983Wfm4ob/7Xd8geK5eZTFwPTIT5O67fXMlK2GJL34x+3XPTHoUJK49lJA7a53/0uZ//Ze1pFkkmawDchBwiV9zjQ0tsHAQKmTYfuEL1m13+ukxLVmSmLy6OJk5hCmgBaRPngCJemQ8c7kUHgTCClgzQe/DTjvZ++kBDsmIPRVAoE2soHPO4Uhc69K84w6b44AVAD8IufAgRNx9GDb2Z9PvCh1eIIwDWINH3HZHeAOBhHUVFJBHHunpgAN8Y9lkus9iRpNuG/yI+H97R6cWB+5BiACCBQh4CVGq3J9y5ZX2/pRUAAFLmrmI67q11a4R5AIJs07BksuE0sczQLlUVr/jO6CfXVUXXGCBN4r4yCN9vfKV7KywlzUdd1xMxx2X0Lvfnbou5j55V9wwya2zAOydd7YXSHEXwcknW4MhGJGBxssu88yFUA4QOZpSAQTeEc5F7v373/Zemo98xDeyGG/DL3/pT15bDe/cfTh8h/HBRWKFDi/AV+Qj4I5rup0ccv9FVswkxFDIpR/0JEyz0CcOP0pnwYcBFJPjFVDw6UBGqh0Vrmzw3czuXwhybBYAAsk1THIWIYsIxYzi+sIXyDkgqc6iYJAzk4MQwS67eDrhBN/kC7zoRTGjWL7+9SkPwvXXWxcZoAOXIOiXBY67nwREYnG0xZZAwhabNvnGmibWhReBNjJd2ESiEpOT7YQoVXZd0BYTGpcXk3vPPTPfisaCAgDhZqQtwAVeDNyBJE3OBCBgNXCRzHPPeWbroLtIihsfuR0Rr4HbwXHMMVbQ/f73JDf5RigAPKALK56b4HDLEo4oNEgwWNS3V20TYiAMgiDEk0T4p67ON/kSLp+ikIt6W60L1ynxd9ym6e663/5CDFZOsFZRmnjr2C4HiGdOkxm/ww42SZCwAqCbNYmHwK5/TxUVvsk7uuQSK3IB1CT+sU7wRmZ68NQRRuRqZWTUxo2efvELa+QAQLq6bF7Vpz5F7lPqmljDhBhQ1gCKykouM7M0cbHSTAECOU8kN5JPQL2sR/oI+MBzC094kMHkAf32t7bPhDiQExho9A9w8vDDnr7xjcLmIEAPfMG7Cn08yEpkOOFobrvF+8JveJyR/8HdaZkuayq0DHAWeiq/c7rwQi40hPU+pCvH78kh0Vzanyo7CwCB7YK4xIh9sSixXsm0R2GzUElmI5v8r3/1RMY/E5e4OAqEffMkG2L1g5TdBCEpEZRLXSBQtyMCIcGEJ8mIOCJ1Mclw3RPi4LZDFjMutUwPwgUhwbdMXhL5EC70hYlLP6gfIJLpofzee1vacbnTbxQyVguJm08+Of1r6KZNdiG4PrkSLF68Gk6QUMaF1gmHYCG4GCTfAJDoA39YhP/+t/Um0DfG4+ijPf3kJxY4Feuhn/AAntMuV3HjJRkc9E3MlJyQ6CkcB7YngADXmF8kJjPvmV/MNWTFo49aa36XXew6Yy25nT3kyCBbMCRQoHxPYh7fstsIpdjXZ+en2zWVaYT4HpnAAx3sBKBN1j3GBeE11l6mh/LQRHvISeQbdWFMIROh3e1AcmsbWQDocDc9BuvfYw+7xuk3OUguXEA78AT+OPmCLMMgog+AHGQmfEGB0z7nFBDaRX4V0pCgfvKyksMKyFryEpBnQe8NIRMHJOjr1gQIhVuhc72mWQAIc50lEX0RB7YlDrAV0l46NONA5LbEjqgv2ygHCH2Mx8dm9VCqbY+1EUDY9sY06lHEgQAHxrnRheOai5mNGnE84sAsc4BrnAm1lRY6OWKW+zW7zUcAYXb5H7UecaDIHHCuVy5LSperUGQSouojDhSVA8xxPGWcSRHN8UKyOgIIheRmVFfEgTnJAbZEYmFFIGFODk9EVB4cMOBgfNyE0TjoLHoKyYEIIBSSm1FdEQfmLAcMSIjHhQj1YrHI0pqzIxURFooDPmfiJExyIuGzKMcmFNdyLBQBhBwZFhWPODB/OWCvWk4YwRo9EQfmNQfMvQUl5uTTKKxQrJGMAEKxOBvVG3Eg4kDEgYgDEQfmMQcigDCPBy8iPeJAxIGIAxEHIg4UiwMRQCgWZ6N6Iw5EHIg4EHEg4sA85kAEEObx4EWkRxyIOBBxIOJAxIFicSACCMXibFRvxIGIAxEHIg5EHJjHHIgAwjwevIj0iAMRByIORByIOFAsDkQAoVicjeqNOBBxIOJAxIGIA/OYAxFAmMeDF5EecSDiQMSBiAMRB4rFgVkACFw1Gp3TUqwBza1e7jWJ7vDJjWdR6bnJAa4C5lr4Ql5BPDd7Go4q+MFV8NETcWDmHJgFgHD66dJBB82c5OjLwnHgm9+UfvSjwtUX1RRxYLY4UFsr3X67NDw8WxTMrXbLy6XTTpNGR+cWXRE184kDswAQsFqjOzXmxiSJxyNvztwYiYiKQnCgrKwQtWw7deCtjZ6IAzPnwCwAhJkTG30ZcSDiQMSBiAMRByIObB0ORABh6/A5aiXiQMSBiAMRByIOzCsOzAJAyJRERGJNIR5CGNXVtiYSlwrpaiPxh/pwz6d6SPpzyUHEQ8fHC9GjbaMON/bBcWas+J3E1UKN/7bBragXuXIgnWzJNq94Hza5EbnCnGW+Dg2Fm7M1NbZsquTsqiqJ0Ehvb+reQhdlwraVK8/mWnknDxiTZH6lkh9zjf5ti55ZAAgHHODpkEPswkLJupyEn/1MevRRP+1CXbBAIhFp3brsQ/CiF0kXXSSRqPPd79o/tJPvg+K/+GJP3/mOr3/8I3Vt++0nnXmmbfvuu6UHH5wSPkzwlSuljg5pcDBfaubX94z3a17jmf5/5Svc4W558d73SsuXS7/6lWd+j3a4zK9xnSvUst7e+c6YamvtHGKt8QfFetttmefVTjtJra3ZExyp77OftbIE8H/NNVJ7e2YOVFRIn/mMdMUV0saN08tC5zveIe28s/ShD1mZkfw0Nko33ii9//1SX99c4Xbh6UA+HHGEdNRRnpqafD37rKfPfc7Xhg1WT+ywg3TccdLvfic99ljh249qTMWBWQAIy5d72nFHqb5eeutbfX31q55Rls8955tF6oADi9EpdRbSEUd4evnLpeuv33KxB9EmCJTvWGzvf7+nJ5/0df/94RMjnWeA9oPJlNBAnRde6On++y1AcEII1jqhRNv8ft550t//Lv34x1MAAWEBwPj2t6UnnpjuLuF7V4dD0W7IoCn5t/k2oVtapEsvtULy8sslrKpPfEL6wQ88Pf64b4AC4O/znw8/VvONBxG9xeMA6+4lL/HMGmWXFGvwN7+WRkalP//Zn5QryAq3RqEmPi598ibpc5+TnnlmS/qS5QFGQkODXd/MX8B+poc1T7lrr50CCKxz54VoqJeqazxt2ogbY3pNtA1AuP566YMftAAhKB+TZYID1/M1CfzYYz39/e++Bgakk0+28ha+HXOMp2OPZUx9ff/7nh56qECu5uJNx22k5lkACExw/jQ1SZ/6lHTWWVJXl13QWJWHHiqtXm0X3i9+YRE6C/K1r/W0774WwfN9d7dv3Pe4/F7zGruQQPX/+Ienf/7TTqAPftD+PQxAYHHtuaenvfe21m1fn6cf/tCCkeZm6cADpUWLpL32kr70JTv+lZWeHnvMtvWKV0CTp3/9yzdbi/BgPPHEFECgzqYmT2ee6euBBzz9+99sQfKNaxEh8rrXYVF7Ghjw9fjj0l/+YnmCQHrTmzw99VR6r8Vcn43048MftuEWhBfW0ste5hmr6JxzfBOywav0pjdJZ59tXarFfhK+r3g8Lj8RCZti87og9TvlmWG43FC+852lki99+SvjRlYw/5qbYzr89SWqq/f1+D98/fa3ccVKpLo6T1ddWaq7vprQmjUJs3aRLYm49JKXxrTP3jEDKHp6pfvuGzf1Lljo6fLLSnXd9ePqaM88f8orpFs+U6YrPjyuDRt8HXxQiVpWevre98b1xqNKVVYuvfCCr9/8Jq6SmOUU/dh7r5he8pKY6us97b+/dO4HxjQ0iHws0e67xQydzz2f0E9/Gje4orQM67tUA/2+fv5w3NA53574BHBizM54V6kWLpQ+dt24Djggpra2hN761lJjTDzwozTx3fnW4TlOr+/PAkBwPFmyRLrpJul977MAAUV8wgmeDj7Y1333WUWN0v/0p6Xjj5d2391anevXW4Bw992e2tp8nXOOVaKPPebpVa/y9eijLL7cAcIuu6CsrGIeHfV0wAG+Qe3EB7F4ASq4vaDvK1+RXvxigIunL33JtnXOOTE9/zxCJGEUXjJAWLVKOvVUadkyqbPTuj7XrPF0992+jjnGWj0PPugZzwogAc8DyhQ+XXYZdHm66y5rCc2358QTrRv1kUc8veENvi6+WNptN+t2PfdcaxmxZxsPEQCh2M/4+LgACDHPUywWkxc2AF1swqL603JgdGxMpaWl04xslgLK0f3Xffz2t1tN+9WvJoxcqasjHBAzwHvtOk9vONzXAw/KgPlTTvW0skVqa5OGR1DW0le+nNBee3s660xPf/4zLm5Pr3iFr3PPTZj1t2CBp0su9XTjx311dEwtyGQ6oAEr+OabY7rqqoT22svTf/2Xpy9+EUs5rte/vkT77usbD+onb0qozOIa7bO3p3e9C+NDGhzydPjrfZ1/fkK77+7p1FM9Y2AAWurqfN19d8IAoOpqTx/6kKf+fun6GxLyE9knUyp6s3+VukS6sci1PsbroIM8nXiip09/xtczT1sjDePi4otjeuop5GSIzoVoOB3NheRLCDJMkbBthikXpkw4uuYQQMDC/uQniU+zKH1jReJeuuce6W9/syEG4vuf/KRVkngL9tmHuKN1v+GWwiJtbfV03325AQQU8RVX4OqW7r3XN0qcOnGJH3dczICVq6+2ngW8EtS/xx4WIHz5y7ats8+2AOH++1MDBNpAUH3gA5SxHgFciFgCJ5wgHXyw9PWvy9CAV8GFV1j85F4AKOZjwmNLi6fLLvNNvBYPydFH+wbw0D+AFwCMsYQ35JnAHxJLi/WMx+NKJBDGpREwKBaTi1DvyOjoFmOWShAiG97+dmCDZwAC/95vP0+nnCJdcIH1ViFLDjsMr5ZvQPh113m64w4b5sSKHR+Trr46pj/8Qbr/voRWtHi64ALWvpU9DQukSy/x9PGPSx2b/eTIwLTeAxBuvNECjZe9zIYyCC+yrln/x77J0847ASKsfBkblz58BZ5I6ZvfxEjyTIjhAx/wDcAgZ4GcKmjr6rL0uwcDijqTD4vKpDByVSbpyif/nku9k4ral/Z9iad3nmbzt/7wh6mcNMbtwos8PfWk9OBDqXmeS5vppuhM6sjlm1zHImz5sOWyLc1gPb6vs73Vq1efJelW++Eeki4gMpetnrzfJ3sQcN+jRC65ZCoZ56qrpF/+UnroIenII0HxLOapHISjj5aw/G++2S4MAML69bkDBDwQhA3+93+lp5+WVqywigqAcMMNnn76U2LlvglnABC++90tAcI553h67jnyE6YAAsr+Jz+ZnoNA/771LW9aDgLC4s1v9vT611sBdO+9nh55JH3CZt7M30oV0Bf4tcsuNuyCMEMIAnYYM3IOSFB0+R14XRCAbgdKMchE0ZSXlUXgoBjMLWKdmQBCklCbAAh4EKysOOaYmA45BM+VXV+ECU8/3QLX3j7p5ptIiCMHwYJ95t+XvuQZT9fzz/tatYOn886VLvgg8VELZMklInnQAYR0AhqAAADhv+RYIb9cXgO0EHffYUfpUxMAgbDjF74Q0803e3r66YQBCB/9qAU3eAdI9MWgAFj/4heevvENa007P0ZSGsMWI5JNwYdRdimB2YQ3J58pQAj2w1dIt9/h6y+PTd9ZEgQI5CBkoiFMHwoBEDLxkvqzjUU2Gmbaj5l+F6THzKe5BBCgh3DCd78b08MPJ4xFee21uON840E47DC7MM4/3y4wlCoAgVg2lgBWwnveg2veKnCesDkIeCu++EXp1lutYgYc4ALnvyQYPfWUp1tu8XXUUdJb3mKV2y67eAZIkGm75542PPGDH8QyAgSEBPF3Qgm//70FAAgJFKdLnnrpS6WTTrJhBbfToarK18iINy8z/Omzs3IYK0IMV15pp2JwxwIAaY89rKehWPdDjCFlPM9YotEzvziQCiCk6sGUB8ECBAcIzjjDM7KDKYBX8OUv93X55b6J93/iE57uunMqcRiAQBgAj+bvfpfQRRfFxE6Hc8+19RmAcIkFCJsDIYZU9DD/b7rJ06c/7QsaSNK98UYrn5IBQkmpNDrCkdGe8ZwiI849N6bddvMNQMBLysN6QvYQUvjfK6T2NqswK8rtmkr2NE4DUGkUVyGUiut/trpSKndf+shHPD38sC92tCU/BiBciOcVg9HBoZnP4UIApWwKPuX8zAM4zKS32cBcRpAz2wCBJEVizuQgsFhIVPuf/2Ghelq1yldnp6dPfcouahIFr77a7gzA4v/Vr6SeHhsKWLvW5ifw782bpS98wbISgMCWGeKL3/oW1kBqFrPg8ADstJNdhCQb7rijzUF45Ss9veUtvlnY6BXi1ffcA02e3vc+X5s2Wfc4SY1/+9uUB4FvsY5JtgRQsGgBBG9/u82n+Ne/PLW0WIV47rmeamrYxeFp551tTBK3Iot96VLrigekfPaz8zMHwQnDV7zC0zHH+MZLhAVE/kl/v2diqWxNveUWb9KKm8liyPaNUzLkHUTP/OJA7gBhKsRAEvC118Y0OOhr82ZPu+7q6667pD/+0Soa1h8K9z//sWv5hhuYozGtWOEbdz3f4AU755yEyUcAIFxzjWfWPl6wO+7wU26jdkobb8BVV1HGM3MfJYdhQTjj2GM8HXkk+UjSnXfiZfB1/gWedtrRelIxhqANcHL8CTHtvtrXmhdsLhNe2Isuwniw8u/KK+mjTL6DA9/ZlHXYWVCoetK1B72sf+SvC5HgMbn2Wt/kpu29t8ROKLyPyHhyv7LtIAm2la+HJSz4MbKuyCCs2GPh+jCrHgSQNbsS/vrX6QcZYbmvWuWZTGLAgItHAyBIdOMPk4RthkwgcgHYEcGOAZQO3gC3XYnwAwueh9/SHUbCe0AHIQzqZAHvuqv9L65xkucQMk8+KS1eLCMYSDQkB4J/Ey/E6oAugAS0ovDYfcGDB8QtWOrhOzJ0EQp8CwigX7W1dhcD5aGDhz4deijuRj8twAm7yGe7HIIVwcZYAZbwluy4I9tc7c4NElCLmS8YhRdmewbMvP2wAIEWVq6yUhrDwT2sI3KYWGOEEp59TopN+IDBi3ggCXOuWeObdY/CBdD29flm3SOXmLcAfep68Ys9xUp8s7OA9+kwJ/OZ9f7Pf0pDw9LKFk/NzVa2Yfiw9gEAyAxTZsjSuN9+NqSAsfTiF9vy7GhApiE7kIvQ45IkaZ8zZoaGfCNTwz5bQ9mEpQU+Bc+rgT/0BVlKwrpL0IanGEz0dWs+c4lXW6Pfs5qDkKmDbp9wqjLBQ1AmUV0OJ6FlatdtiUpVJt27TN/k0ke3/TN4toL7PlWft8YEKXYbrs+0szWM+gggFHtEi1d/LgAh5frlxwl9kgqE8orM/+A8NAqJA5eydKsYioPQhwMwweYdnankRFCBFm8k8q85F37lUtYNcbbxyr8H20cNcxYgbB/sj3q5tTkQAYStzfHCtZcPQMhVycyU6kK3U6j6stWT7f1M+ZEOqKVS4LnSkGv5fPuQT3vBb7PVk+19vv0IgqhsoZAIIBSC21Ed84YDEUCYN0O1BaGZAEI+QjWfb5Mte/49W9Zrvv3I9/tCzKxcFGmm9sLmGxSC5m21DsPD2UxS3FYZG/Vr7nIgAghzd2yyUZYMEGai0GbyTTa6cn1faBoKXV+u/QlapLl8Oxfpng2aCt3mTOpL60mIAEIuUzoqO985EAGE+TuChQAIYXs/EyEbtm5XLmwbzhouhHciuc2wNGQDAdlc1cmelly8LLnQmG0M8q2rkGORTGsutGUqW8ixiEIM2WZU9H6b4kAEEObvcOaTgzB/ex1RHnFg9jgQAYTZ433U8ixwIAIIs8D0AjUZFiDkYomlIq1QcfBMnoJsNGZ7n80LkcpTkKsHIl8aCjHsYWnIp61sbWR7n2vbqfIjsrWR7X22+ZBtnqfrQwQQch3dqPy85kAEEObv8IUFCLn0MJvgzfY+jJt4Ju7gXPpQCBqSwUOu/c6HXr5NpTTD9CvXdmejX8nhlGzzIVcglysPHL/ThXmCYxEBhJlwN/pm3nIgAgjzdugUBiCkEr75xN2DwrSQyiWbksglRh92RPPlQ65WajHGohA05AI8ijVOuYxFIWgIMxYpvQxRkmLY5RWV2xY4EAGE+TuKYQBCsHeFDhXMFufCWNdhacsH5OTzbbpxCUv3XClXKB7k05+tOR8iD0I+IxV9O+84EAGEeTdkkwSHve65WD0MoxzClCmGFTzTPudCb7Y2wtQVpky2drK5yMN8PxfLFIo3YfkTpr0IIMzFmRLRVDQObI8AgcvFfHcGb56cdbeP5lnNjD7P1YMwo0ZSfFRI/hWKpqie4nIgjPIsLgVzo/YIIMyNcYio2EocKCZAmAuKBCAwxu1inqfy8nIDDHp6ulVWXq6a6pqcuByPxzU+Pm7qqKio0PDwkIaGhrWIG43ERUNj5l1ZWZm54bTYz9YECIlEQuPjcQ0NDWpsPK7SkhKVl5epsrJSYW8CzaZk4JhzFxeLdwnf1/jYuKF9e36yjcX2zJtMfY8AQjQztisOFAsgDA0Nqbe3R83NS6fxs7OzU2Vlpaqrq8+JzyjcjZs2aXRkZAvlW1JSoubm5pSKKh4f15o1LxhwsGLFtNZ0gAAAIABJREFUCqPQ29vbxDcrVrSYmzKtN8GX56W/8hrlv37DenN7XizmqWVFizZu3GhAwfLly1ReXqENGzYYALF06VLTXrGfMAAhnSLIJR+Bdrq7ewyfpoCPvWadf9fWVmcEWykTwnxfnV1dSnC/8wSWgv811VWq4vrZwBOmD9l47eoYGBhUX3+/FjTUG3CTCx9StZGLoi1kP8LwJxd6w/KhWH2A1rlGQ0r+RUmK2ZZa9H5b4kAxAALgYNOmTaqoKNeyZcunsQvl3D8wqMWNi3ICCVipKOiR4ZEt2F9SWmqUdEmsZIt3DiBAy/LlK4xC6x/oV3lZmVHqPGvXrTPKb/myZSotLU05vCiVzR0dqq2rU+OiRaYewMHwyLDqau396bMNELIpq5lkbvf09onxhP+LFi4QvDaW/kSIpq+/T4ODwwZwNS5aGN6b4Pvq6NhswAGKmmdkZMR4KSorK7RwwYK0YaCZ9NMNKnTTjmtzpms5HxqSleEkbQW+tyIbjWEARLY68n0fhoZsY7Q1aYg8CNlGI3q/TXGg0ABhcHBQ7e3tRvkuXdq8hbWPgO7oaBeWXGNjo+rqrHLN9jiAMDw0opaWFUYhucde8ztl/Y+NjWpkZNTQgLX/wgsvGLACQOAZHRs1dJWVlml0dNSAGZ7GxY3G8uf34EOZ3r5e9ff1m3ACyoVyAIREIq6KCqvgUgEE+js0PCTCExXUXV5RsMuLwngQMvE1k2DlXU93j4ZHRgzvFjQ0pA2bMOa9ff0qKy0x/AkTXrHzYLMqqypVV1s7SWb/wID6+wcMGIHHiYRvxtCGBsZUVlZuvD48Y+Nj8hO+SkvLTBmjeH3r2Zj894TSdfXY69RtnUHFHB8fV8JPmLF39KcqSz28dzRAF6ZvsL5sczlXpZhNAc6kvdmgYWv1I19+ZFwXkQchX/ZG388nDhQSIDhwQHwel38mRYEnIReQEAQIq1a1qKQktaW/efNm9fX1WWUhXzXV1aYdYs4ABJR6a2uryROAxrVr105zbVbXVKu5qXma9YriByS4p6S0RCuWrzBAaHBwSDvuuIPpK+XGxse1bCLEQLihdWOr4uNx60b3JepvWtJUkClSTIAwMDCgvv4BVVZUaMGCBkuv5xlvAuALK59xdmrWKXZ+B0xkUwYo6fYJgFAfAAh4ENo72rVgwQLTxsaNbea/o6NjhoSmJYvN2Gzu7FI8EZ9sv76+XlWVlYY+vB54eQhlGSAxNqaOzZ1atGih+ZZwSXNzk/kW4NbV3W08F2a++r7pL30D2PX29mlxY6MBpOPxuAE11dXVqq+zoIYwSTye0JLFjaHGtJgu+nQEZBuLUIRHhSYAqM72Vq9efZakWy1P9pB0AVMpYlHEgW2OA4UCCCSvtbW1G8Ha1NQUytVsFeyAFi3K7kkIhhgQ4LFAOIGwQE1NtYaHR7ShtVUxzzMKJubF1NPbY/ICKEMOAsqC3AH+vWzZMpNo2N7eYRQaSgWrNTl/YGRkWL19fRroHzDKo7KqSpUVlcbzgELaYYcpgOByEAAg69atMwpo4cKFqqisVG9PjwBRDQ0N5rd8n3wBQrr2SUhEeaNgodOBgDi/t3dMCErfKMmamqlET3hE/1DW1VVVGUHClAehYjJEQ8WDJnelTwuNB6FMmza1qSQWU119vcpKS824d3Z1GqVMHgGKG3BCbgnggXmyqa1dtTU1Zk7w9PT2mrmxZMliA/QcQDAKvrPTeCca6utNO4SShoaH1bR4sQEMbe0dqq+vM/2hHcBmSUnMzBUe8mJqa2tUX1tX9ATLfOfLbH+/LQCVKMQw27Moan+rcqBQAAE3PooFJYxyDPOgPLG6efguUzb8tBwEXLxWTRmhXFVVbax2hH13d7cWNTaqfiJ0gcLZtHGjoSkZICxfbvMj1q1ba1zZ/DtdDkJ3d5e6JizP6qpqozwAGqkAAsADd/X69RuMBb54QtmQD9HautHsoFixfHkoV3wmPhYLIJCjgfdgSWPjNH64UIKjCQUeBBD0efPmTqPI+d24+9PE1R1AwBvjwATzwXh7yqh3gRnf1k1tWtjQMJkzAAADvDQ0WI8B9TDv8CigyPmts6vb/Ibl7/uAnQ5VV1vAQP6BAwiJON4KWxfA1sQmJAMKFi1sMOGgrq4uA0LwinSQYFtaasbc1C0ZwAQwCYa8wsz9mZbJFhYq/t6ZzJRnAwGWw5N5qTNlw6x9FwGEWWN91PBscKBQAAHLfEPrBpWWlJos/mwCE8G+cdNGjY6MqqlpiXHbZjqaIAgQli5batpxwgaPAf/GmkOJrVixfNILgEIBvLhdDEEPQq4AwSkWAEk2gEAeBNavgTGBjnmxmLFUW1paQnlZZgoQwgjqTMpkU1uboW9xI5a0pQJe4qp3fSLRNAgGu3t6jKWOciffwkK41MrAAQS8Eo4/xPFR1FjzNjzlq3Vjm8lHMAqc/JHRUePW32KukOxowiELjJeos7NLjY2LjNIHBKDEAX/kVLhxJO+A/mxxJoYn1dZUG88G+RB8QwihdeNGw4/unm6z06K0tEQ9Pb1qWrIk69KdqWJ332Ubz6wEZBiL5G8LEQZJN/YzSZQN0pcrH8K2F4bPRt5EOQhhplpUZlvhQKEAAvxAKWIhAw6ygQQTrx8bmwAHNVkPLgrmIKxc2bKFpY9C6di8Wb29vcab4LLUUSjr168vmAdhaXOT8VhkAwjj8XFtbN2o6poaLQqGE0iolJfWU5HLvMrkQchVkCa3i5sd5YfFbBTtxINljsK05yBMbeXs7uk1ljVWOgo+k/fAAQyTpFhZqbqJeP6Wiso3OQhBgODyCQgv4ImZ8uuTeBgzf0yOwuZOVVVVGs8Q9C5e3Gi8TpMAoalJjBE0LFzQYBIdg09JzBNgjtwHvAiElrp6etS8ZIkBDYAlL+aZvITFE+GGXMbOlc11nHItP9N2ZtKXsN+EVdph6ytUuTC8jTwIheJ2VM+84EAhAQIdxoXb1rbJgATOQEj2JCC8SRJEcZMkmLznPR3TggBh2XLrQXAPypp2SKxra2szSq152VKTg4B7eXhoyMTTXZKiy0FwHgS2OeLexhIkpp7qlEUXYggDEABHWKsvrH3B7K4g5IBFPTI6ou7OLrNV0Crd/BzCyQAhjIALMyldPSR7DgwOGnCFiz2VV4iyPd3dGh4ZVUVFmRoayP3I3q90uxim07elBwGAgncDYGGAly+TrNjf3z+5uwSa+vr6zVyEEhJVq6rt2QpBD4KfSJhwAkCCMIN8e8JmX3+vmZfsaKA9gCdzDEAE+KFeEiEJX9iwxvRzG6yhme/oWk7kUk+y+z6Xb9PNi5mEBILthrHMw8zJfMoUgg9uLCIPQj4jEX077zhQaIDgQAIJfCh1XOnBB3CAgM0FHPB9MMSQvDvCJRzyO7sGCFu4MnzHLoKy8iBAaDUWowMI0EquAt+gTEiyTAYJAISwIQZ3UBKAhURMB2AAIQgrdjFUTyisfCZMsXIQgjSheAcGh0xYhGS80rJSwzvi94wjAIIdAChZ8j7CbHE0wnZim2MF3wV2MQTbJoMh2YPglHxXV7dJYmTsAZt4CpYsJknRghN2k7CjBYBGeMHRFQQIlGTcAULUwx92aAAcSGg03gjJeKVIgnSHK1E/iZA8AMZUgDKfcY2+nbsciDwIc3dsIsqKwIFiAATIRGijIJOz9Z0wDus5cF1GwOPqNccZJ1lnWLbEvVEGWHXEn93OhfqGenV1dhnhzx59fieR0X5jdxJgJUKXPUCnwljByUKf3Ab6Q4a+2d7neaYe+umSEKEPEEAc3CU74nanbhQYCXlYoIU6ZbEYACGVtQXP2KHgthoGpyEZ/ZxjMJODh9itUFZeZhILUz++CF3g1cErFHxQ9PDWgMeSEtXV1EzL6WD8CAXgzOBwK5e0wPwB8OAxcH6O4eHh/8/eeYBJVlR7/NyenHPYvIuIJAUkiaIERclBQQF9SkZyVHIWEBBZeQQJShYXBQHJQcDwzEoQEARhd3Zyzqm77/t+p6Zmenp7pntyz27Vx7Az3fdWnfpXOP8651SV9HIAl+/rDoXc3Dx1H9jvIQ2UhbXABtKyo4F+Y90pMzA0J2Q9UNIVNS6ma+U81bpNVY6pvj9V+SOxdQRhOtB0ecwbBGaKIMwbAOaxoIkShOny+WLKZ5cBhAGCZRX3fF5BT0T5TOTZsbrVdLXFVLrtTMgwU9hMBMepYGLfjVcPRxCmA2WXx7xBwBGEedNU6wiaKEFIpIbxJsZE8pjqM06GqSI4fe+7tjBYrmOVcbsYpq+TuZySHwFHEJK/jcaSMFaQIs/GDxEcneNYK8pE8pouRTKWeXwy+U/mnVjKYCI9I5b8kfhNVqaJyDWVMiLrmoz9YSJtEf1sdKDlVHByFoSptIR7d94h4AjCvGuyYYFjWRCmMvnFUxIzjVSiPvTpqmOs+kxn3tOZ10xjHy//seoykTpO5NmJEKN4sk/n944gTCeaLq+kR8ARhKRvojEFnE4Xw/xFwUnuEJg9BBxBmD2sXUlJgIAjCEnQCJMUYaYsCBNZ6Y337ETymSQEM/raVOWf6vsTXUXPVFtMRz2m2lDJIoM7B2GqLenen1cIOIIwr5prlLBTtSDEMxvP1KQcmW+8MuJ9P17rJaowp1JGor0nXhnx2mKm3SHjkRErW7w6TEdbJIrnVJ4bK8bCxu6M1xaOIEwFeffuvEPAEYR512TDAk+GICQyySfyzGRRI2/SRAMpo8tLRMbJKN3IcuK9n4gMk8XJvhdPhqnkn2hbxKtnvO8TIR9TqcdELS2TLUvxcrsYJgufe28+IuAIwnxsNSPzRAhCospgsqvA2UJxOuoRT9ZEFF68PKaKYzwZ4n0/G0ozWdoiESymq73mLAYh1k12CRxpPpV6J/QuMvATDif0+Kw/hGzj3QI46wJNsEBkH6udx/tugsWM+bgjCNOF5Pj5RLdl5N+2/cfrx7H6+UQIwuzUcnQp8Uz8KQEzdudq/MZTLPNhbrHYJYOuiNfH4uEd7/1k+H5OCMKCBSJLlw7dcB+hMFav5izyuYVl2TKRvfYSufdekZ6e6ZeFjs1NroODIqHQxPM//HCR554TaWqa+Ltz+QYDu7xcZMkSkbffFhk6NXZYJC6IW7HCk7/8heNfZ05SRxBmDlubc0mJyKJFnrz2mq9kkDGVm+vJ22/72u/331+Eiwl/9avYspSUeLLHHr48/LAZJzYlShDoP+Qf3ccmWvPpnOCDQZHDv+5JQ73Iyy/btehEJRr/eU5n5qevb+L5Ll/uySc/6csvfiEzOv7Gk2xcvD2RrT7hyYoVIk3NIn/5sy8DAxOvZzK8MZ39aqr1iefSmROCsOOOnnzuc76kpYl89KMi775rlOVvfiPyt7+ZKk+GKY73zljfRX9eWSmy664ijz02sQkm0dUvE9eZZ3ry6KMi//73uhPFWPlYOW+4QeTGG0U+/HA0TvyVKKtOVNapdj77PnJ97nOeHHKIr+36/e97Ul09uu5nnimy0UYixxwjMuZR9dMgkCMI0wBinCw+8xlP9tvPl+9+V6S0VOTqq0UVz/PPG8vcLruIZGcbohud6B/Llnly2mm+nH8+t2WO9HMlCGmpw7cnxgy+8kU22cSTb37TkyuuCK+jRHQFz30GEwgKiFzxD1s/huIKouePSJkixxkEYe+9PWlvF/nTn1gVxY5LiK7TcNljPK9z5dD/PvWpgGJ75ZVhnVsjU7y5cbvtAnLAAb6cd56ZlyPnYDu3jGditzIkOgdNpBci+y67evLlL0MMRD7xCZGqKk9uvnl6zLwTVdgTfT6Ruk40z3htMYHuPa54c0IQmCQgBKwob7pJ5LjjRNraDHPVy0ZyRZYvF2lpEamtjQ8vHaiwUIRVKKySvLq7RbibBjZNeaxOGZw1Nb5wl0kgYJ6BkQaDnnzwgS+sfFDgNg/e4znkbGgYcTtgAcjP96Sx0de8+b6sTOS//x2Z0MaSmsF33nkiv/ylJ//6l1lhWdMe8i5aJNLYKGpJoWybKipEcnI8OfVUX1auHCEIyEzdWS01N/OMkb+ry7xJHqzIWlt9YZKifmD73nuz50axdX7lFU+++EVfbrllNEFg4txrL4Plt79tLCwzlRxBmClkR/LdaSdP9t3Xl0suETn/fE/H8U03+bq6pb+SGHu2j9o3Gf9chrl4sSdf+QrKyoyn/HwsT550dAalqTEg3T1jB/3RhzbdzJNjjvbkggvC+j5jwE7A5MMYWbMGGcz4synWJM27WEP4lzHW0GDeKS31pKnJl8pKT8ff++/7WlZFhSfNzb7OD4zlqiqR7h5fSopNQZ0d3KjIvY0ixUWehEK+zktWDvLt7DR5gQfzVm+fyNqq0bJGy0y9P7OzJ1/4vMiFFxolb+cP/sViC/H+739N3nbOYawh5xZbBGSHHQxBSE0TSdW24DpoU++2Nl+Kiz2prfWH883O8SQjXaSl1agriF1Hu6/zbzx3SzwFFvk+dVu50pNf/1rk2Wd9OfbYgHzqU77OhZEWpon07FFEbowg0sko7Xj1UuIVo7yJljVWXccjDpHv2PLilTsnBMEKilJlRXzKKSKtrebTzTf35OSTffnPfzz5yEd8+dvfPLnnHrPyjJXo6HvuaSaUNWs8KSvz5fnnPXn8cV8uuMCTjg5fNtnETEZMVN/7nsi3vuXJ0qW+LFxoPmeQnHaayKmnerJsGYrKk6uv5nY0892PfmR+3nrLSICZv6jIk5UrfVVom2/OROZJSoov5547djdlcjr8cF/N7JAAJkmY8EMP+fLZz4p87WsMYE823thXawqrLgb3CScwgCE3ZgL9/vcNQTj0UE92283Ue/FiX376U2ORwaR75ZXmXX4/8UTzDm4JVla77+7LRReZ/GYzQfyY9CMJAgrj8stFVq0yFgbIoiMIs9kq018WBGGffXx57TWR7bcXOeccYxFEmR5xhMiCBb68+qond989Mq4h2fY5xlJeni/f+Y5RXlgi3n/fk+xsX6qrRW691ZCN6ER/Zy6gTCyBH3xgFOGTT+LW8uX00xnfnpLvigpf/vd/Rf7zn9iKl7wzMz0lORkZnrobc3N9OeMMX0n2Ndd4UlfPVdaiyvhHP/LlX2+K3HyTJ2vXinzkI4bc/OlPIn/8o8i3jvBk0QJfnnpa5Ne/NmVCjHfeWeSii3xdMGVlQaQ8uewyzOeeziVNzZ4sXyby1FO4XGLL6gVEvnqIJx/fUqSwyNQ7LV3kgQdE6ut8OftszxCaZpHyUl+uudbg+NGPenL22cwLkAdf6whBgBhceBHEwFPSjrXluut8ueoqFLXIm28aMn/GGRAGxq4vg0GRH98Ktp5878qwEG8xlkLi80QUqX0/L9+TG38kcu65vi7GjjqKviDafiyyJpPWsdTEkSlSoU5U/kTli6esbT7xSECi+ZBfvGeTiiAY87PIX/9qFLydNG6+2bghYiXM0kwsVmmiTKurPXnsMUMQUJzXXmsU6267iVxwgSEIrGTJF7Z7xhnGtI1lYeONPTnsMJFrrzUEgXT00Z5OapALrBQXXmg6Z2qqJ2eeaZQt5OPKKz155RWRp5+OPZDp1JtuKvLVr4r8/veeEHNBGe+/L/LDH4o88YQnv/udL0uXGkVKvbbf3pNddvH1+85OU09cDMjxP//DwDVWFur1wgsmLxTuDTd46sKAfHV0iNx994g1ZMstRf7wB2NpmM0Evkx6liAwKSLr3/8u8o9/eDo5WRfDTJgqqauzIMx8i0MQvvUtM4099JAnL744YimjXb/xDbMihyCQUPYnnuhJf78vd91lVrsnnGBcDJ/9rCd77umrQq6pHZDMzBQJDsZWL+S9cKEnW20l8sUvenLPvb6EglgLzFxy2mmenH++L13dIod+zZPFS0SuvsqsiKMnSvJCJq65vuuusJSVeTqWzj7bl3QWDSs9+etfRZU2ivL++3154w2j4JubPbn1x2E56EBPLZgPPmjqf/LJnhJ75jb+ZkV/9dWexjv97e++HHiAJ1tv7cn3rgjLqacHpLvLlx//2JfNNhM56SQzPsaKq8DSsMMOonW/7z5DWt57zxfa4gtfECUdWBBPOCGgON93v8iFFzAP4dr1ZZttArL33r5cfIkvZ50ZUKvG/feHZeOPMh96csnFYdlvP1MGGIInxANiBCEK+yI7fQorpif/ec+fEAEYr0eiE2jTK64w5bKIgyyxOGK+fPbZcMKu1Yn0/HiKcyJ5zednk4ogYKpj5WsVLoMIBfLiiyY+IdLkbkFH6bNiQHGicBjEtbUjBOHdd3156CFjWucHJXv44d7wCoJ8MDmiRCkPVv2NbxjGbAkC3+NHvf56o+Ap77LLjCXh858Xqa830qAAX3vNk5/+dOxVCTKgJB9+eMTFwORzxRXG+gBh4Zkf/xiSYgIm33vP1If6QxQgCKw8WGnfdpspG8xeeknk//4PAmTcCGDygx+Yd1avHummsx2DYEuOJAhVVb7svrsn//M/xlrChLbjjiLPPGPIINaamSAJjiDM/HSFUtp/f1/bkfFy6aWe9PYaMsAYhaBDCixBYHxdfjk+ZWMChyDYGAT6DAQdi98bb5gV+IdDloFYNUFRbbaZJ0cfZVwMlgR/6UsBDXz8zneM1QJFihwQ676+dVehjMHbb/fkqqtNrBCr6rPOFDnrbF8yM4xiZ07A5YD8EAFW4Dff7MkddxiLBQSAsrAkYAo//QxP1qweIQjIf9TRASnIx+3myxVXYFUR+ec/sW4YjJiv+Bc3Cyto/o5Z7wgXAxYJxhNlH3kk1hiRG//XV0vApz4l8qUvebJqlcixx3pqvejp8WXbbU0Mwvev8eUH1xmFXFPry6abevLN/8GSEtZ8rr/ek+9fI7LlFmbRBUGI3pUyneOWlikt8XQuwyKF++OO283CCDL5179OzoIw86Ng/SghqQgCCg8lfOONnqDYGaR0VKKZ//zndRUGHfGgg4w575prTMwBA/4PfxghCHSgZ58deRfTGAQhK8uXe+5Z1w8fiyDQ1Oec40lXF344Q1hYgX/+8ybaGhlh53YCHG93AnWECDz+uKcTAYmJBCVO8B6rHSYcYjMwbx55JBOGJ7/6la/1xNzK4Nh7bzMpQSQwp0JY7r/fmDNxnVx6Kf46Tzbd1NfBFbltE6IxF9s4IwnC2rWsjJDP4MYEuNNOvjz5pCf/+Y+ZlKdzorHD1RGEmZ+4bAwCFrdLLvHUfw1RZYzEIgiMKZTtddeZcY+FAR8zLgb6OAqSFfK++4bVtcdYJ34gVkIpotRY/X/3uyYGgYRiPOQQTOrGPL7zZwOy7z6+XHChL+EYu4noqxCESy8TefNfvhxwAFZHkdNP95WYYy2E1EPoh/tWv7GOoTRtEDHfIWlwDIKAC+U732X3jsh224qcdZYv/QNYNjydY156aWgc+CIDETs6outOvT/9aU/nhXPOMXMnn2GtZIcCih+CgFsDcsQq/JhjPTn3HLMQOussE0tBrAjk5+KLjeUFc/6WW2J5CWvbff3rnrpUwQBLBXOYHae4OqjsWO7geD1vrFU77Y9FlJgM5jL6BPMdFpVI/BNZ9SfyTDw5J/L9dMQbzIXM1BE73ZwTBHxaJ59sYhDogMccQ+yB6ajbbWd2O9ApMOHHHhTG1E6MwCGHmIBBdkKg/C+8EDPgxAnCEUf42vkx3WNqI+F6YOBhLWBFFAyaFQJ+OdwKDHAYdXFxQJ55ZmyzF50dlwbxAE89RcS1ef+ss0yT4M/beWez5QhXxlFHGRMbBIHfGZjgse22nipU4g5YCeXk+LptDDcD6YQTTB5MWHYQM3DJm/pBNGzcx0Q6/GSeZQIBG4gPdWD1gh+YGAg7mVBHBryLQZgMwsn1jiUIuMkYjxCF557z5JFHjK+d/gqZxypGH2C1C8l+6y38975azSCx+Me/8hVIgwku/sjGITlg/xT53pW+tA0Fxq0zJ4jIgkpIhFHUzBv49usbjNJ98EHM/AS6ibz6qsjPfx4eta3PTsYpqSI3/ihFt2riCiS2gfF+4olhdTFcfVVALr8cBTVCVPr68cMHZCUE4YPRBMZYEAJqqXz5JV/WEHQ4FER88skBVdo/X+XLc8+aAMZDDvZU4d94o7F47LJrQH75y7Cu9mM5WHiG+C3cHddcy7jypb/P1J1dU1gmGhqN++Cxx8JqoWN+ZM4gCHPrrX2VjR0QN9yQojst+PtznzN5nHaascZAnH7wg4DOg1ddFR7eUhkMiVx3bUDefpuyQjHdNpYsRcqfiPKD0EFUsCz95Ce+fP7zAdl8c1/OOSe+eyERBT2eDJP9Lt6IjOwdqojHiYGY7HeRMkweB/8kb5NNNjlRRG42GW4mImirSWzSj4dK1PdMErgQmEisOd/6/jbayPjb8PVbE36s7FG43/42+2ONgqQDE/HPgGAV8frron59y3LpbPvua4Jc8B9Gs12C+pg8UMQvvICPa8RPSiAjfkbM4NbdgenxyCN9nfCYjO6+20xy4yWCMwmYIuiKYMzbbjOrGj5bssQMTCZMJtOCAmNuZZBigkXBQgrYVXHKKZ6Ul/vy4INmciB6GmsJid0ZyMsqzEb6Usauu3py8MG+Whhika4JNmFCj6MAaGf19Q6de0GAJuTKWl7Ky01wKtYVVj8zlZwFYaaQHcl3m22M35s4HsYdPnTGFAHJrKy//GWUn/kOawBkmbgY4k8I3v35z/F7m9ghiPBBBxmTOX3l3ntD8re/h2O6G60EftiXL3whTVf9lPGzB8Pyx/8LSUmpJxdekKp5oQDvvS84Zj700+XLAnL66Sk6Hm+7PSynnhKQyy4PSjjsy/nnpcn1PxzU72zCt3/N99Pl9juC68wBg4PE16TJ1lsRa4EVcVCXaJSz9VYBOeywFPne94LSNWQZYXfDwV9JUzccz2AZfOgXg+OfneL7st9+aepCYKzffHNI/v1OWDbfPCAnfDtFsXjxxbA88qsS4g5dAAAgAElEQVSQfr/Xnqmy//6efLha5DcvhmWPPQgwDMr226XIcccFlMTfcUdIzjorRS69LDi862PlDalqgXjq6dAwuWLB9P2r09VFdOdPxsZ1sr2PufDcc1Jlo4086e4SuejiQd3d4dLMIuB7c0gQqJrdSjiK7fhmi89EzOB0/sjn7TYe8o02VY+3J9jKZN8btQ1qSO/Hyg956cQTMYtbmSN9ePHyiY4fiK43OwUw10MMHnvM00NZomWaCxdDdFsiUywcJ4LfZIaGIwiTQW1i78QaX5HjnO/tM7HiiijN9vPI5+x7ifQRnrWENHLM2M+RJ5F8IsdodD6x3h8vvidS/uh3x5oHY9VhvNaIrHf0c+PNN/bZYXfB0Hxq51FIFYuUbbYRDVa89FJfd2FFpkhZJ9ZjEnuaurEgnMwBc4mV4J5aF4E5JgiuSaYPASwFEAOsGe++68l9943sWZ6+UuZ3To4gzO/2c9LPDQJYgYhngDCw64LdUokQrLmR1pU6fQg4gjB9WM5xTjBsyAGrEeILZvLI4jmu6qSLdwRh0tC5FzdgBLAg4L7FFWwPWtqA4diAqu4IwgbU2K6qjiC4PuAQcAg4BBJFwBGERJFyz60HCDiCsB40oquCQ8AhMEsIzAFBsHcxRNbQBqCMFbQ0FhqYvthxEH2u+yyhN2Yx1IetfezEmK3dAhOpcyDAeQscRT17vkQwIRKdQKNYQVr0i1hH6E6kXvGedQQhHkLue4eAQ8AhYBGYA4Kw224c6GG29tmoX4gBhwexJTHRxLuf/rTIZz5jTh2cKLlItJzJPMeeYc4a4OQzTlazsqEA99rL07MauPhkKokDULjZjP3lE1WsW20VkEMOCeu2wom+OxmZIQTcW8EW1FtvHb11lXb80pdMO7Ll1W1znAzC7h2HgEPAITDdCMwBQSDYxd6+yAFB7IVmJUtgHZYAuwUucjtUrGpbgsBFRxwehKKLfifRvGz+sZ6P3IYYa4ugVf6RZfMO24LYkmNPc6MMe5Iitzly6Ul0snnF2+JJWZyLvs8+nFG+rlK19YiVD2VAEA4+OKz3PViCYLcpIVP0NrNIfOzWs0S7IvlfdZW5pY5tmJyUGXndMyc/2ot6uEvDXdaUKLLuOYeAQ8AhMJMIzAFBsNWJdZsjp+0dcMDQ1aEdnMDGYUKxAbAEgTvQuXSEk8c4dIXTCNmjG5kX17tyctt4rgieP/BADisy15tyIBIHu3DwCBYBTivcYgtzHCyHMqF8ORCGw1xQruZgEV8WLOAIaE9XwlxE9Oc/GyIAYeC2xUMP5fAmc8U0cnLZCQp9jz24tZFTGo2slD3WViLcF5TLkbR33mkIAvctcB78Jz/JCWieKtq33jKHJyE/J8GxUucQpYIC8w6Kmc+5U4Jjj7nJErL29NPmGGu2SpIndYWIcY3tE0/4E9ohATYc5MQJdtG3OdKGHOsKOeRUyeOPdwRhJoe7y9sh4BBwCCSOQBIRBJTQ8cdzjzr3JHiy3XbmfH4ucGpuXrdKliB885vme04+5B56lO+TT3JUMXfR+/Lii+aaZcz63OsQyxXBZ9wUxrWnjzzCrWXccGbcBMcfH5CPfzws77wj8vrrnl5qwtngrII5Kppbxd57z9yB8MIL3AVvjmbmytt33jFHzKLouWqWy4m4OwGFSHzC6tWe/Oxnvuyzjyef/SxHPHuy7bacPmduiYx13zl5QTI4fQ5FD8EgFuNnP+MENXOMMpdBcaXrsceay5C4S/3rXzfvcIASJGibbczJhZCG/fYTwaqBdYfjVS+5hGtijYuEy6EgE9xzwfHQXGE7mT3Q0bc50n4HH+wptnffHdBz6N1Ry4kPXfekQ8Ah4BCYWQSSiCDYS4uuvdasNjFNc477o4+ao0ZjnbxHDALKEjM79yZw3zxKkxsceZd/udwDssGKms9i+bhRXsQKoFxZiXMUMxfIcDzsvvsGpLw8rO9ytgAXmzzyCGTBV+XZ2mquIOUYZqvQsQKceCJHx44QBAgQ76P4V63y9HY667LgaGVW7lgcIBj7729kiTzKNbIjUA4uBhQ7VgAIAnlzH4W9vAq8sCTsvrsvt99urme95hpfj2neemsTg8CFUFzO8otfGEsHxIbjnLmIhnP0WfFzwQ3xDtxyyZHJY105G6+jRl/WBFGi3lzkA1ngaGjuqSDFIkbx8k/kexekmAhK7hmHgEPAIQACSUQQ7HXPrFS5pQsFx61drIC5yngsgsDVx8QxoJSxArS2YkUwivjxx0eOYEbZ4oqIdYAQN8pxg+Kpp5qz4VHc3JrI3Qoo2aYmX1f6EAcIwqOP+vLmm1zOZNwMyECsAWXybyyCANyxYhB43p5T/8EHI93y5ZdHxy9EdthYMQgQEJR4aam5vAq8uASGC2+4dwLFj8LHZfCFLwRkt93CqpzBDksCuy1wT3z1q+YoVZQ0sQOcmpaX5+u/WGAmewBT9HXP3InBbZjISZ4Qt54eT107zzzjbnN0E5RDwCHgEJhbBJKIIKD0uMDnzTc9+elPzWr2u9/lbnSJGYdgXQzcUIhCQ7lxMySXGlVVmbvK77wzoFemYp3gNjBuZovlYmAFjrvg6aeNMt16a2MBYHV+5JEBdWH87GdhjSOwBAEiwY0rVVXmGmgsH1g7iJsgOJH36+o8eeghUz4JJYiS/u1vzaVPKHPIEKtn6sN11ySunWaXg73MKLqT8CwyovQpByVLDMX225sYDtwrXE+N1WBgwFfXAFYW7pwnfec7Jh4D9w14EccA4YEoZGWZmyuxvHB5FfLyOztFuH1vMon3sYwQb7BypXHPIC+4kxYs4CY6X3GALDgLwmRQdu84BBwCDoHpRGCOCcItt5ib3uy93gSqsR0O3zfHBqNIMefHisZHSbI1DiVpr3UluA7Fy/Mo0COOMPfRo9jfeIOrSMfeEsh54/jAKRtlhtXisce4NRGC4Mv995t8zjnHkAjIwVFHGUWLosMlwi2JrNBRcJAV4hggFyhGe5kT98rvu6/Z6pee7um1sdSV2yezsszKPRj05LrrTIDgWAkZTz/dBBlCEAic/Oc/za14H/vYyI4QLCPIwA4BgiT7+802S6545e4GYjgIQKSsl182cRzsLsHiApnCykCMBURiMrEHYIN7BnywEpGvvbHSEiCue774Yl9dRJZMTWc3t3k5F8NMoOrydAg4BNZPBOaQIKBs2PaGgo3cOsfKkut/29u5b338Wx1ROpj9eYd82BUQSSb4nF0FxCcQGDjWipzGRQbkYVWPAqNsPkNh8a89gxySwO98Rv7FxWZV3thodiVYJcp7KEeei9w9gdKFEKAs2flgb0XDusDODs8zLg1bxngdj3c4WwDyQWwB9WMFTv7Z2Z40NBhLAIlnwQLLB3kbk75R3HxOnSFH4GlxJJ4Dqw4kAffHZAiCtW7Ym+FsfSjDtjuYUO5MH3jlCML6OY25WjkEHAIzgcAcEoSZqI7Lc3oQYJfDLrt46rJ4/XVcEDMTEzA90iaeiyMIiWPlnnQIOAQ2dAQcQdjQe0DM+hNTscMOJkCRcx8mYzlIRmCTjSCwLbW9o11NKcXFxeJP9BSqSYDc1tYmmVmZ4oknPb09UlhQIJ4XGDOngYEBaW5uHpYtLS1VcnPzJAtT2lBC7jrMYcIuogLJxhwkWKQ6pKurS9LT06W0tFS6e3qkrbVNrWSVlZX6b2dnpzS3tIgfDktmZqaUlJTo8y45BBwCc42AIwhz3QJJW749TTFpBZyEYMlEEJqbW2RgcFDJVyAQkIry8hknCKFwWKrWrFHl3NHZKSj/JYsXj1tuf3+/1NXXifhGznA4rM/n5edJSXGJtkJfX5/U1taqws/NzZHS0jL9vK2tVdra2iUlJUUWLVokLS3N0tnVLQHPk6VLl0pra4u0d3RKSsBTkkK+kISysjLNyyWHgENgLhFwBGEu0XdlzzICyUQQ2tvbdaXd29srff39M0oQULz9A/3S09MjnR2dukpvb2+T1NRUKS4ukTS7nSRGeyhBqKtTxV1eXi6hUEjWrl2rSh8lT94tra3S3tamn5GWLFmiCt4SBJ6pqKyQlpZWCRKF63mybOlSqampkWAwKOXlFZKZmaHkY2CgX7KyjAXCJYeAQ2AuEXAEYS7Rd2XPMgLJRBBs0GZHR8eMEwQsBazwI10YZh8OgbbZUlZWPmZLWIKQnpEhJcXFwt+4HLKyMqWycoEq9bq6WunrH5Dc7Gzp6u6WhQsXSkZGhrS2tUp7e4ekpgQkJTVVQsGghH1RdwLkApmQLScnR10TuBaig1lnuYu44hwCDoFhBBxBcJ1hA0IgmQiChX02CALEwJKE/IJ8jT/AxVBeVqbWAywJYyXrYgiHjGsBy0AgJUUWVFaqQscCUFVVpdaQ3NxcaWxq0riGwsJCaWttlbaOdsnPy5eO9g7JyEyXsO9LcDCoBAHXRFNTk+YR8AKSlZ2psRipqUMHZGxAfdNV1SGQfAg4gpB8beIkmjEENlSCEAwOSjAUkrraOnUTQEpQygsWVEpKytjkgIawBAGlXVRYKIODA9La1ibpaelqKeju7paGhgYlBwQ/tjS3qPWAOIdWXA/t7VJWXi6NDY2Sl5erRIUfCAJkA5cFgYrIhDUiJTVFFi9aNG7g5Ix1EJexQ8AhEIGAIwiuO2xACGyoBGHNmjVKEAgOZAWPYsa9QNChjRcY14JQVycZmZlSyaEbwkmlVarMFyxYIJ2dXbpbYdh9Qd6eJ8uXLRsmCIu5flQ4oyNFauvqlCAQg0D59r1QOCQ11TUyODgoS5YslrQ0t5NhAxqarqpJiYAjCEnZLE6omUEgOQlCp/T1981okOLgYFBqaqo16KCivEJ9/wQqslVxvADFYQvCUJBiZWXFsKuCXS5YCZqamzXwELJAIu6gt6dXyivKpb+vXy0IkBDIAcShuqZaBgcG1YLQ2NioMRBYH4LB0DDx4Pl4cs1MD3G5OgQcAiMIOILgesMGhEAyEQRM95wLgKmf1Xh6eoakpqRIfn7etLeI3XlA/AGKt7mpWd0DiShh62LwiS6MSMQcEGdQXV2tOxzID2uAnmvQ3KyBh8Q2jEcQ2MWAxQDiQO68T/AjJMZtc5z2buAydAhMEAFHECYImHt8PiOQTAQBxcj2xsjEKjs74gCi6cLa+vnz8vI0poCy8/PzE1LCwVBQDzuy52IHAimSlp4mWZlZGo/Q1dWtMQf2cCRbFrEEaalpGojIDgV1a3iiwZGhYEjJBXKw9XIwOKguD9wKyOjIwXS1vMvHITAVBBxBmAp67t15hkAyEYR5Bp0T1yHgENjgEHAEYYNr8g25wo4gbMit7+ruEHAITAwBRxAmhpd7el4j4AjCvG4+J7xDwCEwqwg4gjCrcLvC5hYBRxDmFn9XukPAITCfEHAEYT61lpN1igg4gjBFAN3rDgGHwAaEgCMIG1Bju6o6guD6gEPAIeAQSBQBRxASRco9tx4g4AjCetCIrgoOAYfALCHgCMIsAe2KSQYEHEFIhlZwMjgEHALzA4E5JAjp6SL8hMMiAwMiweD0Q7bRRib/Dz7QK+hnJHHkbHTefLbZZiLd3Zxbb4rlmY98xPze0SFSX28+Qz4+T0kR6eszz8eTNS1NJBQy75J4NxAQGRyckSrOWKbglJlp5Kf9OTcoXt2nIkwyEQRODbQ/3Ekwk4cD2XJiYUe5nOTY1dUp+fnmQKPpTORtkzksaXrzjycr5fMDxvwkQ0KeucAikbpzsBXy2YOvEnlnos9E9nv7ru0nydJGE63TXD4PnmE/JOJ72senb4zNEUHYaiuRb35zhBQ89ZTIyy8b5bDrrtzwJvLb33KpzNRgP/FET/r7fbntNpFxbrSddCErVniy7bYiv/zl6GNoUdQnnSTS2Snys5+ZekGGkGfBAl/ee0/k1luNTCjGU07xpLzcVyV/wQXjy4oyvfBCT/7yF1/AjfSVr4hsuqkn113nzxuSADn45Cc9OewwX4kOGD3wgCevvTb1dh+rQZOFIDCgm5qaJTSsPH09rriooECPHJ7OBK4tLS164iG/h0JGOQUCnh6OyJ0MHInMkcnLli2bViUaCgVl7dq1wumLdtLiiuiysrJpnMRio8UR1g2NDXqUNVdT+eLr3RHcQjmXidMjOWI6NS1NFi1cOEoUMKqpqZXikiLJSM+I+o6FRaeehFlaWjpjVaCv0G7c+kn/mInE7Z+9vb3aDyAitBGYQBLog9On4GZC+pnJkzmBO1IqKir03pJEE7epcrQ5ifFt70hhnE09zQFBoO4oRBQ3SpIVJBXr7TUr4qOPNgThrruMwrQkgYpnZBjlyfcoYfKKXEnzrFW6rLJ531ooLFjghsWC7/mdU2Qjy0Ae3iNfnhsrIc+223qy//4iF19sRpKVl7z54f3IVT2/o8y5FM8SBN6DJGy3nciBB6L8xycI1O/KK40V4tJLjexXX82/nlx+ua+r8Oxsgw0WDGvh4D3ksfUD78iUmzvy/NQ7VmI5XH+9yHPPmZ/TT/ektNSX737XYDcTKZkIQld3t5KClEBAJ/229g4pKizQz6Y7cfyxvTWxbujiJY461j6bkqKXLUEQli9fPvxcSgo3LY6WhAkcRZsSSGwCo9zVa9boLZBMWNziyAVNkBIuaCLp6keJkieUGZ3s6t8+Z1dIkatQyoHweJ55314KFfACqkyZcME4LS11+Hpr38eyYMgoBMYmi5NePZ2SMiSbufnSymueRW5/QpM5cjU3N0lvb59whPXiRYuH30ce5F+9eo2Ul5fp8dWRVgbkamtr06OrITr8Hb3a1vYZ+jxSyVoM7ffRCigSW67oDodDqrxt+9vvDbGM3UYT6Rf1DfXS19un5AAiwn0dlEs7rlixwtzNMdwvDPax6mOfMf1mZDVp+gZYrPuuaUPT9uDAs9GEJBaOw/0CfIcUxnhtEI1xZBsYXTGCo60Ht6QuXrxomFDHI0rkCbHiwjNr/aN/MNYg/dQTXCLzsfWwnw3jzDjwRnAewvAkb5NNNjlRRG42nX4zETlLRELTPUcN5wcuxx0nkp8vctNNRimBN0ph661Fdt8dk6exIKBQ//Uvo9h23NGTXXc1A9r3Pfn1r0U+/nHe9/V3Pt9oI0/23FNk1SpfvvUtT8nCP/6BAjJkA0IAOfnDH0Q+/WmRvDxfnn9e9G/SXnsZGQAVpb1ypT+m62PzzUWwhPD8I4+Y97EMMFEdeqgv2dme/PGPIq+8MrIipsMedJBIWdlogsC7WCL22y9xggAJuOYaBoWvpKKpyRCEz3yGutEpfFmzBuuGIQWHHurJP/8psvPO5u+HH/blzTeN3CtWiBx/vCd33+3Lv/89s2Z+M0BFystFrrtO5IwzRIqKRM46y5R73nki7e0z0/2ShSBYJWYHq64e6uolLy9X8oYU58wgILqi5xZHFKctH8UNQSgsLJC+vn61bEBWcnKMEmciYgJHyZLSM9KlpKhYvDgmeyZ8rppmpZyRmSGDQa50rpaCwgIpyC/QuxyamltUIbHKZ1IrLimW1JTUYWXMqqqoqEjaOzokFBzU+xpQXtwP0dPbq+NtoH9AJ1yIhyUi1TU1sqCyMibhYtXV0dGuV18z2WdkZGoZTJrcRsktlKxqwYkVP/VAkXG5VV19vaSnpcrAgPkcRU658SZzSy7WVFVJWWmJWpBoA5Qk7QC+ej9HX5+WE0gJ6L+lJaWKe0triwQHhy72yjCrw7LSciVVvN/VzbXbncKlWnyGTGBlVqY1kpeXL9QbYpKTnSNFRRBEo4ghbZSdmmosPWBpCQJlgwl15TvajYu4bL9Auff29eqgprzi4uK4pKke/6r2K4Mr5adnZCoBWrF8uZbV1NSk3yMjJLa4qEjbllRXV6sEs7u7R+WmnSgX+bgVtKmpcfhd6lRcbKxkJIulEkA+830pKizUPkDq7OqUrs6uIaLl6buUy5XmkPpwiIvV0iXsh/VWUnCiD4AjWHC3CGQpNZW2K1Es6EvUEZlpJ+4iKSjI1zahjqauvrY944SxQL/gvpTxEvlyO2pZWbnkDPWjyOfpM+RF37YJ7Gk/ZFGcm5u0X5nFddqwda+5pVkGBwZmnyAg6PLlImeeaXzu995rSAB31HzjG55svDHsT2T1ak+tCpjvscShSO6/X+TDDz054QRfHn2UzuDLMceYvHp6RI46ylgZ7rpL9J0vf1mkocGT++5j0BjFeM01IvTv227zZNEiXxXzOeeIfPazIocfbuTp6/PkmGPManYsv/6BB3qyxRa+WgPeesuYa196iXgHX7AAHnqokfWRR6afIFx2mbFW/P3vxlKAe4G/f/UrX8nXzTeLNDd7cvrpvvzjH5689BIkwpO0NF9uusmTnXYyJOV73zO4LFmC+8Pg9u67s0MQIFenny5y7LEi55/vyVtv+bLnnr5cf31A3n57ZtwMyUQQIgeyTsKtbVJSUpzQDYtTIQ9jEQQUcXZOjhQW5EtnZ5cqE65dZuJoaGjU1T+ToU7Q9XWSm5On8lqSEUsmSxCYwLGUDAQHdZXCCpjJnDypO1YTjBXNTU06oVoXBCugDz9crYqrqIiJOk3fYYJr72iXtpZWKSkt1QmaiS4tNVXKyyv0QqimxsaYLhPqQ90ojxs0/XBYsKpgUWFCZiKHIOXm5khjQ6MqMBQvSgElhIL3dYWNck5RN0Z+Xr5eSBUvITs4Y0anTN43pnxfFTepem2N4motCCg2lBFKpaOzQ8mLbQd7GydKqbGxQUpLjbKCbFAWN2yygDAYpqr5WhVkS4tez02dUBgoWeQwFp4mycvL0TJwR62trlbSmpuXq0SssalRFuq7lNMinV1dmi+kArxwnVQM1WksPCgTEhMK+ZKekSbdXd2KP9hjxULxUSeNg4C0qdsjNNRv0A1rVAkvqFygn/OedVdYkmUtca1tbRIcHJBFCxcpIbS3j0JSIQIoda4mz87K1jJxf4AF2ECMqDPv8ntPd7cUFhVpecXFRdLfP6CrdPpcW3ubdLR3qPUnJSVVlb7ty8hYXb1W0nCvlZZpOR0dHdoGSiBCQe2HuJcYG3wGnvFcDZTNO/Qf+i54WSIE9pBo2pr+xjN9fb1SX9+gVgpkpB70B+rLeOR3xpYhWvTH8NwQBIRHSR9yCDEHIg8+6Mmzz/pq1sfFgGysZq2L4JhjjDXgjjsMecC0/tRTnrzxhi+XXy7yf/8n8uyzKH9fbrjBkw8/NF2TvCAZkQSBVeudd4q89prIRz/qybHH+ko+WI2j4J9/HgXvyQUX+HLuuWMTBKwcY7kYkB+F29g4MwQBi8Frr3ny2c8aG/BvfhOQT37Sl/ffx88q8oMfGCW/447GKkJ9zzrLk5tvNvEP224bkAMOCMv554+4M5AZsjDVuI94kyTf04ZbbeXJKaf48sILnmyyicgPf+jLjTciuyELMyFHMhIEBnlDY5NkpKcr0x9P4SaCbbxnqtaulZysLFWsoy0INbJkyWKdYAb6+6WmttZM1iGz6s/Lz1MZSUxwPT29snTp0nGLswQBywT5Ylo3JnJcDiM+dj7D793b16fPLF60UM3tliDwflFR8aiy2tvbpLm5RTbaaIWuMiEMPd09qhSZFFkJLsKEH8PKYWMxmBBZwbFyRR6UDJMmEzMTLlgtXbJEJ/PBYFDKy8pkTdUaVR4oJzX7t7erklkWBwvK5Ln29g4lXj093dLY1Kz5W+sDSuGDDz6UiorydSwfat1obR12MUSCgcIFK0gKSpBVLn5pc6V3qipU6sbkz8qZVSeWicysTFmzpkrrBYkz1oQGVU6Qjba2dmnvaJOyoZgHZhtIgCVTmLezsrMlKzNDCRfkhWDXpUuWjjuRKEEIBPRdyCdXnKPQUc70Oeta6evvU/cX45YYGvoFslGfgqJCKcwvGLKQ1CqBgaiRWDX39vcqeUDBQ/Doq/Qzyl60aNGwIrUuHepP+fRDS/bo+5CTysoF0tPbowQKq0/12mpV7v39fYrR4sWL1TLH6l9X8oLVe0BJP/0CXPmeciF1hjBUm5iYoTGlfX31Gu0P8YhBZNujyE2MUZd+nJmZIRUVhmRQTlXVWikvL1VroJLfUEgJnRL9ujrt1xA+5IoMKDZlzEEMQvSMsu++Invs4cl55/nqbjjqKONigCAY/6BZ4bMSfuYZ8xkKcNUqE6i3ww4iRxwh8uKLZjfAypUjSj0WQcDvfcUVgCOy8caY1kXOPtsEE0ISCJLDVXHGGb6avcfbGQBBwC1wySWjFdpME4SLLjIBfcjd0uIrFsiB9aKkROSGG8z4JAjwwAN9JQgnneTJlVf6GruwzTaefOUrhgDZ4M1YuzHiKZvJfk9ZCxd6cumlhgQSU8FnBGhitWlrm2zO47+XjAShkZVGgBVyYUJm6qkiM56LwQYpsgrjueUrVihZYCLJzske9r3qJOxhujRm3bGSjUFQFwOmPRRMY6NO1CjJ7p5uaW5q1smJiZLJjomVFc4wQVi9RhYsqJTMIROwLQulzup1yeLF+hEBfCgnJmvcEWNbEIyiRVlnZWXqSgrCw+ReXlauK2SuqebaaQgCckIQIBPEUkAQMM8WDxGW7u4uVXJWsY2FhcZFVFfrBJ1fkK8rRpQLkzXKiTQZgmBcCLX6fsaQ68HKAMmBmH344RpZtMis+nkeOVgBZ2VlqwvIWhN4jxgJnsFCgqm+u6dXcrKNfCg+Whtljkm+pqZaZY/0p1PPwsKicYNdLUEoKi4W4hFKiovVNWAJAljTT3CzZGZkqCWDPkPb4lIaUerGPYPLAfKDHx53h7FkpCqhNe9CZpdJd0+PtAwRJxt/gN+/rKxUMjOzpBal4Pvr4DjsngkG1XVjlbtxV7SqUq9aU6XWkMgVPJhB+nEfMJ5sACZ9gL8hCHZcQBCoF/1tIgTBtgv9iXELtli/cI2QIA+MKfoZ/Rn5ITEk5AB/iB1EEhIR6Y6YE4KAQli0iEY21oAvfEHkgAMwMxs3wTpHIx4AACAASURBVCGHeLLVVr4qC6wMKGhW4zk5nlx9dVjOPNOsOO+7z5Pf/97XuIKrrqJT+moi//3vR8grBIE877nHPIeLIZogfPvbxtSNEmUnBZaIU081gYSnnTY+QcC0f/LJvhIYysEC29Bggg6RGfcGLpJIJUwMAoQcNwAy2fkVVwdkye5iGMu9S14QhFtuMTsiKDcz01N3ygsv+BoEedllnrS1QQA8aWz05fHHIUGeXHUVfjLiJjw5+OARgoCri/eI5WhqmqoKSux9SCDWnPff9+S223w54ABPdtjBl+98x7iJZiIlE0Gg3VlBqqItLJzW3QPjYZcoQWAy2WjFCl1hoAgqK0Yms0TbxloQWMnaiRDFzg+TJYoNxVwyNJnpCrujXZV+JEGAYERHZUcTBFaJ/KBEUCasbpmAo4M+TWAX8RaFkpubp1UxuwpSDUFobFTCogShaq0sWbpEOjvapa9/YIggVOmKGbMyygnyAOFYtgxrythkSXcv1NZIViYK1TyHFQayYVw1iRCEFrWyYL2ITBC4tPS0YRwjvzNWGAiCwTCaIKiCLC+XLNw8urumUSclrAooP2uViSaCtC31wc8O0ZhIIo4DCwKmbbvl0xAtLAgrjE/eD0tFuVnpWlP5aIJQPmz1MAQhVwkC8RbWHYTMkD/ysxYEyqA/miA+4rRMUChEp76hQeNfUKLRiTaGwPIdbhfiWyDPzZYgrK2SwoJC7TfRiffiEwRfVq9ePSmCEN0XoHKQPvoUJAZCg9y43hhL0QGStCVuN+oINiNjbQ4sCAQjoriIxWKliJvsF7/w5Xe/M6tIFDMrW1wDKFBWwygwFC7vElBYWWnM0E8+aaDZe2+IhlmRskK26YgjPNlxR193KqxcSQSxL9dea1asxMlgccAHjoth992JgTDK/Y9/9GS77YziH8+CwCQPiVi2zARS8h5xALhKyBfrBgqcVTGfUT92Peyzj8kXUvLqq4YkbLONCd6kfKwlP/mJWV1HJwgCZOrmm019SFtu6WnwI9scv/Y1ke23N3EU7e2+3HKLsRKceqqnLhjwwbx/0EEmuBG3wic+YUjRHXeI/PnPs+NmQG52boB5R4cn+fmG4OH6mamUTAQBEzBBe8VFI+RgNvbqJ0oQeI6IchIKCKWG2RkZBweDEgya4LDxUvQuBiZKFBC7BpiIVDFr3ECZriAph9XWkiWjLQiq3KK2J7a3tUlHhAUhkiAw8aO8NBi2DJ/wyC4GiAflopghCayudGdHVua6FoQhgjDaglClA9n6j3mXlXtJyfhbDwlys+Zoq2yNAu5WUkMCY0z+KBlW/9FK2eSB77py1EoV+XB1LKis0EBBlC6KkTpagmBI2miCkJ2do1hQLmZpSIyJRclW3MDGbLsslrzcvCE/tgmipN1scCNEjH5hLUDxzlCwFgSIiXVzoaBQ0AQpotAhpihhtRDU12kgXXyCkK/yEzyL/LxLWcgFQQCL6mrjFoGUE3SIRQGXDiSHPsSKW10zGvvh63ZMrBORBMFaECIJgsWivKJCUofM+7hIiG2wFoPxLAi0Ae4lSBPWjERcrLQzMmvsAa6LYFDrj7zEy5iE9aJa8SwswFU3ErBIwCSElfFh3S+VCyojttjOAUGwE8qyZSawrqaG4InRSgllWl5uVsH2ACW72iaQmu8BkM8gDWyRwzXAuQCRwEZugURJ8h2K2W6jYwIhf1asjFEIC7JssYXIYYcZRRzvACfKgMCgaFtbzb+kyLIjt+2xcuY7kpWJ3yM/t9s1x5p8kSnyXAdbD8ohH3DB4oL7AXns97Y8nuEnMo/FizGBGqvObCZkxt1A2fGwnqpcyUIQmHgwS+vwHQacnS85UpC/7gpkqvWOfJ/JDcXOisKWzW4CFAHmTUMARrY98i5/4wphQuR75MdvzE6G8boL/tyqqurhhbXZMYCvv1yVErsQcAUQcIbfOCMzU8uIdDGgMCNN4LYuWBtwMSxetEg/YqJkpQmZgGRQdgNBWH2cvmX80mZ1lKa+Yd63CpgJ0p7PQD1RDihpsFq0eLF0dnSosmTyxsXA6hfTNfhhmrU+37HaiXIw5bLDwPp/eZbVHatpXBfWwoJcKHyzQyJdFi5cNNxOGg0/1A6Ubc3R/A7hRMmiHMOhkFoUFi4wQYqYru3KUMlTTY0qChSLKpW6uuFdCmBBuZBBjZuAfLS2aRuplcPzhn3nNkAQqwaYoLAgJZjsx5tHIAI8b3ZKmB6EBYEASZQoWGs8AAdK4dLIytJ+QR0IbqRP8K6Nm4AE2Kh/lDIuBvWne5765MGZuAgToNojROgT9JmekUGkvrarzcviSD+nfvQLym1rw4IQUsULfrQjckLysHhRDz3foa9PMdLDpnKyNSjRxhxAUugL+jd5lJcPt7taFBublNjxLv0vliUjso/xnHURUDlO+0hNS1fLC4G9NtGf2DWzeDH9f8Q8W1tXKwN9/eKlmLaDzECsRpToHBKEqU56KJbjjjNm9lDImM+HdmFNOGsUKocprVmDUmVXgNklQeCkS+sPAslCEEA01n5yJpmZDlKM3P8c2bKq+CNOPYz+m/f4nojr9LS0hIlkdD1j1RHFp3kOxTaMJ4eV2Qay2WfN3xDfkTHLZ5QHwTH+d3Oqo32OAEVW3ChR9BTPRuJjMYj8DIJAMBwKFisKW8MSabPxcI/GxNbNnrUQ2U4j35ntp9HfQfZY3RsXjT2fJbptza4r+72JWqcubAU0++ZHt4GnGPJddDDbMMbBQUkHiwSmC3Adq86R7TnIttZUcyhKpEzR70dji6pkxwx9CgzBIrpPmbob8hQZLGjLgjiwDdKWNbpfmH5lnh3J22zB93W1jtwWGz5fVwYwHo1WZNsmOheYMsJaJpYLrHPR/ZGdHH29PRpsGWmVihzTuFZsXUeacB4TBKwPmMpxReBumI5TVD/2Mfaf4hc3vvpEzDwJjAf3SJIgkEwEIUkgcWJMEAG2Oebn5al7wqX5hQAKEVcB83paWoZ0dXeqhQnXRbQ7Z37VLLa0EG9282ABwkpiz69IvG7zmCBQSWvGmi5FPt35Jd4Q7snZQMARhNlAef0uAx81gY/x/OzrNwrzt3bscuDcBSwKWEzYQht5kub8rdm6khNXgBsuOytrEuRANezcnYOwPjWEq8v8QMARhPnRTskspVlpzn6sTjJjMt9kizT9z3bM1WxjZes6uXIdQZgcbu6teYmAIwjzstmc0A4Bh8CcIOAIwpzA7gqdGwQcQZgb3F2pDgGHwHxEwBGE+dhqTuZJIuAIwiSBc685BBwCGyACjiBsgI2+4VbZEYQNt+1dzR0CDoGJIuAIwkQRc8/PYwQcQZjHjedEdwg4BGYZAUcQZhlwV9xcIpBMBEFvh+sf1ENNOB0u+qrWucTJle0QcAg4BNw2R9cHNigEkoUg6KU4zS16TG/AC0j/ANcOh6W0tERvdnTJIeAQcAjMPQLOgjD3beAkmDUEkoUgUOGRk9t8PXK1tr5eT+jL5QpTlxwCDgGHwJwj4AjCnDeBE2D2EEgmgmBJAufucJVwc3OLFBbkx70hcfbQciU5BBwCGzYCjiBs2O2/gdU+2QhCa1u73giHeyEnJ1stCC45BBwCDoHkQMARhORoByfFrCCQbARhYGBQuFGwr79f+vsHpLioUG/Lc8kh4BBwCMw9Ao4gzH0bOAlmDYFkIwi24iZosVnJQWFBwazh4QpyCDgEHAJjI+AIgusdGxACyUQQIAWRd8wrQUhN09vlXHIIOAQcAnOPgCMIc98GToJZQyBZCEIoFJbm5mbJzcuRlJRU6e7ukv7+oBQV5utVwi45BBwCDoG5R8ARhLlvAyfBrCGQLAQB60F7R7sEgyE9KIn76PNycyQ9PX3WsHAFOQQcAg6B8RFwBMH1kA0IgWQhCCOQ+0O/ehtQK7iqOgQcAvMDAUcQ5kc7OSmnBYHkIwjTUi2XiUPAIeAQmAEEHEGYAVBdlsmKgCMIydoyTi6HgEMg+RBwBCH52sRJNGMIOIIwY9C6jB0CDoH1DgFHENa7JnUVGhsBRxBc73AIOAQcAoki4AhCoki559YDBBxBWA8a0VXBIeAQmCUEHEGYJaBdMcmAgCMIydAKTgaHgENgfiDgCML8aCcn5bQg4AjCtMDoMnEIOAQ2CAQcQdggmtlV0iCQrASB2xw5dtkevTyT7UVZpEAgkHAxgwMDih3ycV+EO9ApYehm/cHBwUHhh5SdnT3r5SdTgb29fZKeliYpqSlzKhZjrq+vV7Kzc6ZVjrHmjUTnk/6B/uG+kpGeEeOiOEcQprXBXGbJjUAyEoRQKKQXNaWmpEppaYmerDiTae3aKj3eecGCBQkVwxFO3T3d0t3dIz09PZKXlyvFxSUJvbuhPsQpmdyrMdsKurevV+pq6yQjI0NSUlKkvLx8VkhnsrZzVVWVFBUXSW5O7qyIyFhub2+TwsKiUQQ8GByUqqq1snz58mlrD+aJmpoaKSgsWKd+dXV1emR7YWHhuPXu6uqU3t5e6enplaKiQikoKIyafxxBmJWO4wpJDgSSkSA0t7TK4OCApKamSllp6YwShP7+fqmtrdXJq7KyckKWAN5Zu3atTjzFxcXrNGjkxVPRX45YRiA/3qg6enqIpDlJcixyFGlZsc/wWfTzsT4br+fFylelSSDvsWTifTDOAKeiopj1ioVVdH7j4bkuvgZD7vdAGVVUVGodrLXI1sm+Nx5ukynXtt1YuMVq28hnxyozkT4Vq8/Y9xhXHGMeaS2jv8HBJ5v3WP2J/LDcVFdXy+LFi3U8W9mCwaCOnWXLlg3LMp7cvvjCf/HS2upqyc3JkaKiouGykANiVFBQIHl5eZrF+HUVqa6ukdzcHEcQ4gHuvl+/EUg2gtDb0yNdPT2SkZ4uA4ODM04QWHHgImAiy8nJ0RVGohYLJhkmv1gEAfNpa2ubhMIhXTmXlpbqCpakFpKmJmGSzMzKlHAorKuV1NQ0CQ4OSnNLi34HR8DMWVJSMmqV1d3dLZ2dnfoMky4rQurQ2NgkRYWFwyQHZdjQ0KATY1ZW1rgdmTq3tbVJT2+P1j9S5g7uyAiFpKTYWHOod0tLi+bHRExqaWmW3r4+8cO+lk99UUKtra3S19cnuGS8QEDlTUkJSGlpmX5Pfijxvv5+CXie5OblSn5evn4ORmE/LKFgSHJystVaE0hJkcqKyrhtxLPt7dztEVT5KJfyrAUBbBqbGmRwwGDIjaFZWdnD+ba1tYrnBQTl2dXVpb9TJ3AeK9GHWlpbFAPkzs5C5m7NFwJJmdSJ56hfSmqqlJaUaPkGwxbtIwMDAzIw0C9paelSVlameIdCQWlubhk2f4Mxedo+Zds6GApKZkameAFPy7ftTjtAhsmLFTbP2NTY2CiZWVnS3dWlfTMrO0uKiyzh9aW9vUMxAL8s+ms4nJDFjL4H/gODA9onPPEkNzdXlbQlCJUVFdLS1qrKv6AgX3KGLBvIqf2xp0dC4bBkQy5LkGn8I9gbGhskoG1VouMPyxHjevXq1dr2jFXwBWtkSEtL1fHF2ItMzAuOIKzfus/VLgEEkoogeJ7U1ddLUUGh+veZJGfSgsBEt6ZqjSocFGN/X78sXLgwrvKxsCpBqKmWzIyMURMmyq6utlYVNwoeRUVZCxYuUOWxtnqtfp6Xny9dnZ06+S5atEgn0f7+PjVvQhyYNFtbWyQjw1goKI8JEyWDyTY9PU36+vEpp0tOdrbUNzTIYDAoixYuVBHNs42yZMnScc24TLmdXV06aRYzWaakaL6YoVFeYNPY0CjLli3VCRolAjEqKytV5cfNmyj5khJDglBEKAKr7CBJLc0tkp6Rrp+jKJi4AwFPZWbChnyAEfngrsnOyZbq6rU6uQ8ODCr5oC80tzRLeZmZ6MdLKEreg9wgc35+vmLAe2qKrq1ROSA4mJRpA1xMlgDU19drPZDTKjR+52esRH+tra3TtkIhQ4Ty8wuVPC1ZukTbk/rl5OaoEgPz/r4+XV2TauvqFAvIYkogRdsZpYaSZ+Xf0dmpLhrkhsBgCYBAkFBoKPDCoiLp6e6Sjo5OJTR2xUxdDClqVPkiXQys5JXsFRdp/8S9Rx8CC8goBELL8USam5olNS1NFibgjqMPBQchNs1SUlqi/QG3IfminGlffi8qLtY+D5lauGChPtfR0aHvlZWXKRb0TdqOOo1H4Blr9PvSsjKpXrtWxxRj+sMPP1Scw2HT9oUFBZofmAYHB2TBgoWjxkgsggBZbG9vP8nbZJNNThSRm01H2ExEzoL3JzDdukccAvMLgWQiCK1tbWaiKizUgctkOZMEYWBgUGpqqmXp0iXC7/UN9bJo4aLhFV28lhyxIIwmCI2sEgcGhiezweCgNDc1ycKFizRLJuQlS5ZoOZRbW1ujyskGOjIBMoEyodtYh8WLFqoCwPTJeyiO6DRszl2yWCdiVnDIaJXIWPWBILS1t+ukbJQkpuCRp5EDUlNYUKiKluc6OjsUK7vS6+zkXZTK6HdtLviAcTHQtjaxsqytqdXVnl3BoVhJFRUVhoSUl8lA/4CWCYkiH0iDVXzx2qipqVk8z1fyMlLuoNRUV6vSRvmAN2Xl5edJQX6BPgZBoP8tXkwdEwte5XneUznr6yUzI12KiorVvL1w4YLhOtK2kCz6RVNjk/rhLUFQV1dFBc4lbWvIgbXSRPYLrDIGk4Vq3amtqdE+BWnA2sC7vBeNU9XaKv08kiAQC5Cfn6vmdNKaNWu0z1C27UPl5WXaJyALkNBECAJ50SdRtosW4WIYCYy0FoQFCyqVAPM3z+HmgzRAHrJyciR3KIgRpd/Z2SVLlxmiNVbiOfoQlkD+BZsFlZXq4sKdgVUC0sP4UTxDQW2DysoKlcOmWASB9qqprnYEId6gc9+vPwgkC0Fg0sFEXlpSrGbk7q5uNU2WFBdPaHfBRFqGFQqrOCZkXV01NunqiqDDRFIsFwOTDkqCiZEJ0UQYmDkNsy3voDyWLF6s9WJ1jXLCigFBsEqG1QqTPXKRJ4qKVecHq1crRrm5xpcamSijqmqNKmGiw/HHlg9N9PHqg7yYZ1l1p6Zhci+UnOyc4VUVKzMmVhRSDfEE6ZAiY4ZG2aG4ySMtPU2JhK50TTCFJiUIGRnDyo7PmMxRQGp+xg8+9CzkBgUFLkzk5GvJC9hiXbGKPF69sKAgRyRBQLmSz4oVKxRfvkchIAfmZhLfIxOxC4m6nGg76gNB4F/qi3sHclVRXqHETvtGcFAJHH518EZxIYPGaWQYlxJo1NTUSlpGupQWl+g7DfUNKi8rbKPcQtqPwId8sfCgxHmGvCBz6xCEGEGKEJiSkuLhHQUQBPt3XV2tZGVna5uSrMso0YDeEYIwmniPxCBg3QpoH4I4QxCwYFXX1KgLJhDRL3BBQRzHI2zMGVi7MjLS9f2uzi7JK8iX7k5jpaNdaH8lsnZs+rjKCtUaNh5BwMJRX9/oCEK8Qee+X38QSBaCgBm7o6MrYjI2w5dJekFlxagV7XSgzwTLRIiStooMZZ2VmaWTUCJKwRCEGsnMHFGWTPpM5KyCrLKx8pInSoTJ26z2AqNWTigoLBr4no0MYfX/trW3DROK1avXSH5BgZpIYyV2C7S3tUt+Qb50dXXre4nUxeYVxh3Q2iZEc2PKt7sOmNDx47Liw/RtrAUjfluwIBgQKxArPUhXZNwDiiYjg9XwiAVBFXVDvSxdsnQUCURelBxKOyZByMxUxZtIikUQTGBqnaxYsXw4pgIygn+dFb8lCIGUgGKQKH7xCALlomBN23vqRsOCsnSpcQGZQM4MdbdEE4SmxkYlBNYF1oVbp6lZzebgTn2WL182TBA0mj8iKM9iFWsXgyEIJcNtbQkC8QD1dXVKUmxMAqSarYC4AhJJ8QmCIUejCEJqqpLDSKta5Bgar9xgMCT1DXUat1JeXqExIcwhNqamqblJY34YX5Epuo1jWRDor7W1dY4gJNLw7pn1A4FkIQigGRl+1N5hXAyYNiMjz6cLdfJmEojcZoWZvKXFTOCRq9/xymTCwdph/fNMRgRHseK1JMCahllBMhEyAZeWlUpebp76vjHb2hgEJsaMrEwpKykVlDUTP8p5yRJjccB90deL39qYviE1LIVsVDr/4m8Fs8KiwuGVXzzckIt3bT7IiBUhcgWKkmcfPaQhcrtg5LuYbFF6EAEbcDayImcFiGvE7LYg+Iz6EpxmVqi+hELh4ZXdWAQBRZ4/5AqIV69YBAF57aqZfCxpw79tCREr8qkShPSMDCVy1oKAgsESg1I3gZ6tGiMxyoIQQRCqa7DUGKtGY2ODhMK+msvBqb6uXgM7bfwC9aG9sawQUwHZwAoTHbWvFqYiLFC5w8RnLILAM8hI/160eBGh/+rKUNKeIEFQrNdWqYUMwhhrF0M0QcCKQtsTaMl79En6M4o93vkNGl9SU6PPQ6awUpm4liLtM4w3/oaU2SBZG+xr+5IlazaodYScsLthjSMI8Qad+379QSCZCEIkqgRZsVLBRJ7oCm4ircKqvKO9XZYuXTb8GopCzf2VZjJLJLFCQnEiIy4BFD2/o/RRCJYUMNmg5DEBswOBoCsmQEzN5GFXS51dnRrQZ83ImEkJUFuqpMWYYtWcTwR2aqqSBxQbfnmb+J7VKrLYCPnx6qLKqrVV8aC8cCikygA/c+T7TLYoThQPysMmAgdRIsiMfATnUR/wsAn3BMF6ilNKiq5AwcQGXVKeulxCISksyNfJHD80q0DwQbEy4auLIRPT/fj72W25+JcJIYh0MfAdMRSK81B9IR1lZSNnJNTV10mK7npIzJpEnoylhvp6VdrImZ6ZoQG3VZjOh0zjWIiUhHmi8Q+0kyWpxsUAISBewhdDELBElarSxzyuSm1oVwb9YvGixYo7+GLZoS352xJESCiFQQyUlA0RQZ4jSBZ3lFoMSkvUpUTCUgQpoY15nrpgpaD/0XaY+hN1MdjdKD29vboAwLIFGYw+B8GSNvKFIPA3eFiXit3xE28Hi3UXUa7GZwQNIa+orJTsIYICTvQ7Ozbpe1jaIhcF7EJqaGgc7q98TwqHQ44gJDIxumfWDwSSlSCwMiaiOhEFN5mWsEGAo09AxAXAtrfR+8Tj5U9QGCtfUmSgIYSDcpiwMcfbLWlMRCg9tYx4ogf5oMzt9/Y9osXxx7IqZ6fCyErGuCrsysf48I39xa5++Beikyi5QhZkIk+UEDsOUGCRCR8skysBZ1ZWM2lGvJsSkIy0dFUk0cliTp0j68Pndusf7Q1WFiO7dx6FYaPfrRKM1y58H7nNMfp5AkQHgwNK0iIxjPfeWOWC9eBgUHeXQOBQpOBk4lFStU667W9gQEkUriT+tn2G58DeYhstO9/jY09LSdWdBPQLTOfkO9KnsASlCAQHt4C1iFBmdOI5+jrf2W2gPBP9t7rGkM0LqMUDuaJN9OO1hbWg8S91s+SX+kSOF41hGWp726+QhbZHPuoMaYuXonEjj8h8bR0t6eG7WPMM5fITOa5F3EFJ8fB3369HCCQrQViPIF6nKvj3mdCJ3MfkyeoQgpCoW8NmaIMf7d9M4n29nL/QqhN4vK2AiWIMAejt7VFzM1v0RvbIJ5qDe26mEcCCgGUBqxKrY/5mNR5J5CYjgzkJsV2JhrEGNOoW20R3kUymzOh3ovv5dOQ5+TwcQZg8du7NeYeAIwiz32QEmLW1mi2drF7YDTDeATyJStja1qrHPxfEiF5PNI9Yz2EGx7ydzQE6eh5D/FXcVMpz704cAaw7EDgSbhN2/+CumOop5fYAJnZR0O7s8OEgq4mS2YnXKFnfcAQhWVvGyTUDCDiCMAOgzmGW9tjc6RYBhZCou2K6y3b5JYbATLV9YqVvKE85grChtLSrZxLf5ugaxyHgEHAIJB8CjiAkX5s4iWYMAWdBmDFoXcYOAYfAeoeAIwjrXZO6Co2NgCMIrnc4BBwCDoFEEXAEIVGk3HPrAQKOIKwHjeiq4BBwCMwSAo4gzBLQrphkQMARhGRoBSeDQ8AhMD8QcARhfrSTk3JaEEgmgsCVvpGR8ux/tvuvp6WyLhOHgEPAITAlBBxBmBJ87uX5hUCyEAS95IhjcWX0vQLs53bb6+ZXn3LSOgTWXwQcQVh/29bVbB0EkoUgcPY8BCEnO3v4eFiE3XAPZHGd1SHgEEg+BBxBSL42cRLNGALJRhC4vY7z2e2Z/DNWcZexQ8Ah4BCYMAKOIEwYMvfC/EUgqQhCQ9PQnc/mfnhu7SsuKpzycbHzt3Wc5A4Bh0ByIeAIQnK1h5NmRhFIHoIgeiMit9yRCFhsa2uXgvy8US6HGQXDZe4QcAg4BMZFwBEE10E2IASSiSBEwq43xzU365W4hQX5G1CLuKo6BBwCyYuAIwjJ2zZOsmlHIJkIQuRlM2Hfl8bGRsnKzJL8/Lxpr7fL0CHgEHAITBwBRxAmjpl7Y94ikCwEAYtBe3uHZGVlsnVB77Tv6++X0mm6CnneNpAT3CHgEEgiBBxBSKLGcKLMNALJRBCaW1qF++fZ8piSkiK5OTkaqDjVO+1nGkOXv0PAIbChIOAIwobS0q6eSXbdM2ceWILgeSZY0SWHgEPAIZA8CDiCkDxt4SSZcQSSxYIw4xV1BTgEHAIOgSkj4AjClCF0GcwfBBxBmD9t5SR1CDgE5hqBGATB988SkdBcS+bKdwhMOwKOIEw7pC5Dh4BDYAoImN1M3MoSnfwp5Dq1V5HJpCiCsMUWW8iFF16gJ7u55BBY3xDoHxiU9LRUd+fB+tawrj4OgXmIAEesr1q1SurrG6KkD8v22+8g22+//azXCnJw6aX98p//wAFiEIQLLnAEYdZbxRU4Kwg4gjArMLtCHAIOgQQQgCA89NBDUl9fP+pptkHvsMMOst122yWQy/Q+AkG47LI4BCEcDkkw6EswKJKS4klq6vQKMdXc+vt9lQnZpiuxvUx3nUWklBTzB58PHLa2bQAAIABJREFUDvpsWZf09PhlYoAJBHSL+zqpr88XfoqKAglvaYs8VGey9aUOkVvoyBMZ+Yy25nvqFkvmWGXyPM+O9Tx4kdLSRoMANpSXkREfx1jlRhu3onG2dYwlVyRBiMYjVnuRF30NWW0b1NeHpKIiZZ16T0cbRfdB20aRfTA11RPbL8fqC7HaBtzivTfZvsV7yD4w4A/3Ifs3uCLzWP2E53p7TV9hTCcyvqYiZ6LvjtcWtj34l/pFJjCgrtH9fqwxFDkmx5ozIt+lbZuaQlJePjQ5RXw5HX0wUXzcc1NHYF4ShIsuukD+/e9+WbmyW/71rwHZdNM0ueaafMnPT46tWAyib3+7RfbdN1v23jtz6q2k1+yKvP12UO6+u1fCYV8nu6wsTy6+OE/q68OycmWXvPbagGRne3LkkTny5S9nylheGCaGK67okC9/OVs+9rGUdZTyrbd2y5/+1C8//3mJEoXxEnLV1IRVoS5Zsu6EkGjlmXjvuqtX/vWvoNaPtNFGqXLiidmyalWvPPRQj046e+yRJSefnCMFBeO3NYrm+uu7ZdNNU2Wvvdbdu8/3P/xhl7S1+XLJJSMnA9J2zzzTL3ff3S2//GWJKpSJJPC6/PIuxYM2Ap9TTsmVJUtG5L3tth4pLg7IV7+auQ4BswSBW5IeeKBX3nhjcJgU7rVXpuy+e/oocXp6fPnKV5rkzjuLZdGiFO0LhxzSII8+Wq5l2NTZ6cuaNWHZYovJtxF1+dvfBuWhh/qG24h2OPfcXP37iiu65I9/7JettkqT73wnVyorY5eFArnjjh7ZaKMU+dKXMrR+9KE77uge1RZj4R555TQrmUQSsj/11IDKR3tDDm+7rVueeKJXCgpS5LjjcmTPPY0s0amtLSz77desd1PsuGOm/PCHBQmT1ERkm8wz1Ocf/xiUVatMWwBDTk5ALrkkVwkB/Ro8N9ssTfbfP0PnAj5/4ol+ueuubgkEfDnmmNxh/GPJQJ7MBatXhxQX/j7kkGzZccfxV2PvvBOUE09skSefLJPMTEOykbelxZeGhrBsuunoOWcy9XfvzA4C00UQGLNmqI49Xu1yLN6IjmtBOOKI8+Tooxvk0ENz5Gtfy5L33w/L8uUBVZgkuwqxCtKyVj63AwVh7dxiV6m2I0dOEpErdDvhazV9s5rAghGZyIt3jjuuVQ44IFu++MWMYZmQg/Kj5zQrVzxF/Nvf9sudd3bLWWfla9mBgKcKHl8MKxwG3m9/OyDXX98hP/tZySgFEZk3g/aggxrklFMK5DOfSR8lD/KTV1eXL6Wloy0IyE+51MFihOy33tojra2+nHtuTsIWh+i6pqejSNtk6dI02WMPgxlkZ9myFHn99aCsWJGiyvrss9tlp53S5Nvfzh23rKysgHzqU3VKGh9/vHQdEgRJuvFGCEJYzj13hCBQvxde6Jd77+2R++8vnjBB6OoKy4EHNsv3vlco+flmUKAIbd987rl+ufjiVtlrr2y59NL8cQnCRRe1SX5+quy7ryGZrMhKS0esGrQVhOSgg5rkjjsMQSCtWROSxYtHLAi021/+MijXXdcpDz1UPOGZxQ5u7m169LFeeeyxXjn99DxVOKy8N944RU47rU3LhAz99Kfd8vrrAypTLP0dCvlywgntMjAQlh//uEhycjztQ6tWdcuLL5Zp/IVZqfqjxosZx77U1NZJwOPwpnQpKysdrg9tSjCVUWYozZGpprvbl732apQHHihR4nnqqa3S3OzLTTcVqgUGxbX55qkqL2XzEzm2+fzXv+6T3/1uQK67bt27KOg3lGvHhbVGRFqLIucba0GxYz9BnqN1pV7B4KA893xYHnu0V04+OW/YWsl88O67ITnppGbJy0uRz3wmQ845J1frwjx57LHNcsstRTIwIHLqqc1y331lsnRpbEshMqHot9kmQ3be2ZDshQsDalkEn8h5MvrvNWsGpKICK0WqBAIBJQiMq4ce6pW77qL80WqAZ2yKbjv7uSWGke0a67MA53dEAMozkc8lTirpTyNy2nzM2SBzm8DLypZofSYj8XQQhIGBQWlobBRmrsKiQsnJzo4pSntnrwRDYSkpzBn+ngVTamqKpET0j3EJwic+sYVkZ58u77zTKzfcUKTKONJsBat+6qk+HTCHHpotH/lIijz2WJ8sWpQqL77YJwcfnCVPPtmng6KyMlU76quvDspOO6XLe+8NSmtrWI47Llfz/OtfB+Xll/t0MPD+IYdkybPP9uuE+Nprg/Lmm4Oy775ZsuOOaTpYYO2rVvVIS0tY/vCHfjnllDwlCAzYX/yiW/r6zKr48MOzhs3Xb7wRlFde6ZdjjskeZtux0EMeCAKr6ZUrCyUtzTwVSVr4m/zOO69VHnmkbPiZ6PzGIgjUgZUzq9KPfSxNV1SWZPHvAw/0yLvvBiUvz5NddslQzCATrAap+xln5CgOfJ+oG8DKBkE49dQ2+dSnMketrCMnbJQsxGvzzdPkmGPGJiMGq0H58Y87paoqqKvrTTYxqx7ke/jhXvnvf4PafltskSbnnJOn8j7zTJ+269q1hnDdc8/ECUJ3d1gOPrhZfv7zUiksNMrczjF1dWE54YRW2XbbNMU1EYKwySZpcsQRpq6RygZS+OSTvUrkXnqpTxXff/4TlH/8Y0D7Fu9kGJ4l/f0if/rTgPzv/3bKXXcZggCW8dxyTIgdnV3S19srobAvaWkp8vvfZ8orLw/K9dcXDJuuOzp82XPPBvnNb8q1bFacRx/dIjffXCQf+9i6q00Iwokntstrr/XJvfeW6RjFCoKVA4JQW9suDz44KG1t6bLdduly4IFZWtbdd/fIbrulyy9+USfNLRly+GG5svnmmdp2TzzRJ3/4fa/k5vfLIYeEJDcnVUpKSyRtqJI33NAtubmejrO33grKySe3yIMPlkplpVFMdg5pagrLgw/2CG6a7bfPkAMOMOSM8h97rF9+97t+ufbaEYJAmzzySK+u5iFIX/96thQVeaoMS0tT5OMfN/X/5S97ZaedMqSiwtMx/KUvZclzz/XqeMIytOOOoy1D403mTLi1dbXy1psVOqddc03BcFsiT1VVWEnP88/3CcQICw/97Ywz2nRcH398jqxa1SU//GG37L13Vsx+aPstBGG//bKVpNo+yBhiobLbbpny0Y+mCJj96le9cuSR2fLKKwPyz392S2pqvxx8sCclJQWSlZWlc9/zz/fLo4/2aL9g3oUYMn8Hg0Gpb2gc7uAopeycHMnLHVEUyMMzKMPKivKhsRzWz9LT0qSkxPTr3t4+aW1r0wvFsrOzNZi9paVVevt6xacPp6frleWZmeNbdrHK1Dc0SFEhz5qB1NXVpcePL1y4YM6CiKl/W3u7dHV1SzgUErAqKMiX3Nzc8brMpL+bDoIAoaKNIQn5+fmSn7fuXS4Qug+qmmRBWYFkZ5mxQH/7b1WjVJbmSU72SHuNSxC22WZLefvtE9TMdfzxdICRuqPoL764XY48Mld6eozJ8qGHSuTqqzuEyZmV3AcfhNTszMBkAvjNb/rUJIopd8stU+WPfxzQyfaddwbl2ms75fDDs6WtTeR3v+tThXHuue3ChLhggSfLl6fpIL/11iL15510Uqt89KOpstVW6XLvvd1KNFCiX/96kxx4YI4sXZqiyufQQ7OGycA99/TJww93yU9+UixlZWObzS1BuP32bl09M+8xwLbccogpiCi5Of30Nvn85zN1sI7lYhiLINAgTz/dr+RmcFBk5coCHciUDTl4+uk++da3cnTVXVgYkM9/PkOuuKJTlRIm22XLzArs6qvz9fuJJEsQystTZZddTAdZsSJVyssDqgRXruxU8zlK5LrrCuJiBZGAvLHa3XnndHW7gMfll3foavGLX8zUyZVJ/bvfzdNJ+9FHe+Wgg7BIBeWDD4KTJgj7798s55/PoDVEaYcd0pWsnXhim2y7bbq2Hco8EYKQmRmQPfbIVGLz8Y+naZ703bPPbpN99smSkpIUuf32Trn33mJpaDBk9+67O+Wxx8qUqNEe993XI8891ydr1gRlyy3T1f1x2ml5ssUW45uKO7u6pKurR/LzciU1LVXCoaA8/7zIr37VryZ5lCZuDPr1rrs2yMMPl8myZQHBSnLuua1y/fVFuvKMThCE449vk85O0w7bbJMul13WIZCr554rk299q0mWLw/L5z5XKA880C27756hSm3vvZvU/7/JJn2Sk5Mtr74alp//vFjuuadHnniiQw45JFU+/DBDXnmlR+64I02Ki3MlIyNd3nwzKBdc0K5zAf3s3nt7FY8HHigatQqmn518cpt84hPpsvXWabJyZYccdVSO9gnI0uOP9ymZtxYE2vauu3qUWJ54Yq78/vf9SkhvuqlIrryyU0npYYdlafW/+c0WOeWUfHXxHHZYi+TmBmT77dPk3XcHZeut0+XYY0crw/EJwoBU19TI228vkId/2SNHH52jipb2hjyT+PuWW3oUY0sQKPekk3Jl+XJcd02yxx5hef31DLnjjqKYlh5rQdh883Ttw7i9ttoqVS17N9/cLa+80ic33likfXHPPTPlG9/IkT/9qU9++7sWefmlVHn4YfCGJJvnwaexkfk3TecVxgiWwcHBQalaWy3lZaVqbejr65eOzk6pKC9TckFCwfAMK8ny8nJV2iieNVVrJeyHZdmSJXoc+NrqGhkYGJDSkmJVRo2NTfp3YWGhpKSmSF9vn6SlpWn/GS+Rd1XVWikrK5PsbCMDirm5uUU2WrF8zghCR0eHtLa1S3FRkaSnp8nA4KCEQ2ElCTORpoMgWLlqamolNy83JkFo7+yR9q4+WVxRpJZxSxDeW9MgC8vyJTdnxB07LkH45Ce3lFdfPV6Z/cEHm4nTJhgyKy581CgDzNGf/nS6KjyY8zbbpMmVV3YoAWCyhhjU1wflzDPz5Wtfa5SnniqXI45okauvLtTnsBjss0+mvPNOSH32d95ZJOef366D7vb/b+9MoKMszz3+zySZZLKHhOxhEWgFl+Oxp7bntO5el6NYlYPUq3UBUalLFQ2VAgoIXBeoC0WrrUitoq11pS1qrXpxq1ZrpbZ66saWPZPMJJmZTCaT3PN7Pr4wCZMErd5r78l7Dkczy/e+7/O+3/v8n//zf765p9Ai7QsuaDME/9ZbMT31VNgiNG5OIkVSDFD4REfHHOPTmWf6NGHCwLws4wTtc9MN11yAsGJFuw4+ON0cz6RJgCQHORLxzp8fNPBz1VXkhIe+2kgphkcf7bJc7a23FpjjpwEQYEdIbxABu86HfsjlkmKoqXEYhE8jJHRH6QKE+vp4P1U+Ywb5Tq/Z59lnu1VX12NR85lnZuvsszm0k88R2v3EE5t1//1FFkUB+nCgRI4XX+w3dqWoKEVr14YUDPbqBz/Isc/fd1+RsUNEfw888NlSDDi5k05qMRsBGmHTli0r0AMPREzXcccdBdq4MWwgZNmyvL1AXKIGYcmSoH3O0XYQdefZ+GpqiGJSdcUV2bbu7C/ofF4LBvs0c2aLHnus2MAEjT32+uvduvXWTj34ILQ/bIBD4w/V+ExTs9+iOPeAdKLoLt15Z4cBU+wP4Jk1K0sPPxzRL37RqUMPzVBDQ1ykWgCyRx+dHCBceGFARxyRafsMrQL/Hn88pEceKdaMGU362c/7NGVyuf7852798Iet2rKlVAAvAMep3/Er3lOiCy/s1Msvl+j005v13e+GdcopJUpJydTRRzcaOwBwYf9ee227MXnf+naPImFYi7g+/thrwN69TwKBoN54I9XWfdV/pSg3x6vt27N19dWt2ry5UICl3/8upjffTNOaNQXmyGhHHtmk227LUFV1TN3dHl1xRUzLlo7RE0/AUvbpO6dJaakeXXRRRHMvStdhX8/TOecELI32/e9nG5vFvY+DTWzYPxyOKBQOq6+vVxneDPsVTfrF4dXV1+ndv5Vq7dqgJk3uU4Y33diUuXOd8yAcDunuuyMKhWQpBq83UzNm+HX55R499liv9pvUpfKyFD35ZLrWrfOag0nUdrgHNAwC5xyiV0DuvHmZysoKK9YT1/JlffrnP1NM57B2bYE5rnhPjz76OKIVy736+b1cF7bUYSJhEH7zm7Cdo9zT7h4EIODYx1VXmZPHOdfW1Ss3N0cF+fk2n9bWVvuxMN5PTwP8sXYOQMBRQltnZ2ertrZOfeozB0pUzXVgDHjv07ShAEKrv1UTdwME1gFWoacnrkxfpvVHegOGJxQOmS1S09KMxQpHIgZYMnfTegAe9lSsO2b2YW0H23/weJ17stn2QMnYsQPSH4mfxU6hUMhAFdfOz9uztvzoGtE6dmTsKUpRYWFBv915DYAGmCLSB6CNVMWArdwfdqNfgGVefq686QNZsbq6BuXkZu8NEPqkXQ1t8vnSVVSwhwnhOgCE0qJc0/9Eu+PKzvIqLyezv4qhtzd+acpXvvKV70tahxEOOeQA7dp1mSoq+rRwYZ5FQ2676CKEgT6deqpDSa5e3WGU5/vv9+jcc9kgfUYfLl+er0svDdghV1rq0QknZOrii1stVw09fP31+bryylY9/vhYO2SJQG66qcM29sKFQYvooN9xROef7wCE9es7NWlSus47L8sOzrlz24SD42Bqbu7V9de36733uu1AXbEif9h0QrKN7AKEhx8O67bbYCz2fMpB+oCjNF1zjUMnDteGAwj0A0DAmSUCBF5/5BEOVydvD4giMgft3XVXpwmQFi4cXhcw3JhcgHDYYZmaNWtv8Z773ddec5idjRsL+/P6iddlnAgd58xp0Z13Fu0WIQYson77bQ6oLq1b56RocJgcfkSnp53WoqefHmusDCwKYOizaBAACBzEiSkG6Hxeq63tsb0BOwOFCVvyy1+O6XfkzGMgQHAAL6yNm15gP59wQrPZHwYAChlAQBoFgECqh78ff3wPQPgsGgScUkNjiwoL8uxwo//cnCw98wwpjahWr96TYnDtz6FfW9treerLLmuzFBsgfHCDQZgzJ6DFi/N17bWtpgW4554xlu++6aYCLVrUog33S2UlFWpo6NFZZzXr2WdLNXNmq1auzJcvq1Z9fSU6/7wOPfPMWM2a1aKaBRF99as+ixyPOsqvlSsLdMQRXv3+9w6tfdPNcQUDYXM4m5+GVYlq8+aSfoCwc9dOPb05TVu3pmrlynS1d0RUWVGuww9v0j0/61bJ2Ey9+KJXL7wQ1tJl6SoucvbWKac061e/jik/r0C9vVFdemm3Zs8uFPu0rCyqY44NyZeZqfnzPfrPs6M65BCfrrg8xVgwwN5Q2oNQKLybks1Vhter9vYO01sQ/eKYamtrteUlr97+i09Xze9SeppH5eWl5mQ6OjrU2tamRx/1GeM2Z06Xxo4t1cUXhVRQ0Ke2NmnlqogefihVH32UrltuyVB2NmnVgYjbZRAQW5NiwPERxefkZNuYNm0Kad26VM2Zk6e5c32WjsLZf/hhSCtu8Gr9fT7l52XamLk0AAENwoYNAzUILkAgdWCOKxSy+ZaXlZqDo+3aVafc3GzLBXV2hFRdVaGeeFzbd+w0sACYgumCeYhGuw0U5Obmqq6+Xp4Uj9mOa4/khN296gIEmAc3HYFDbw8GDSCQusAWrC1sRGtbwP7LvmDtmlu4dwBNAcuhE4lzzcqKit3AZqcyMjIN2ATbg/J4UlVRXjYihmnxtyocCqm8vMzmk6jd4MuRSEQNjU27f1gt00AIzAz901r8frMVLTcnx0AX6RiAAGCK+557BGDaHe1WdXWVHnvssaRljl/72tf0jW98w4AIAI+x5Ofl2vxZGwBfYjOAkJO918/FwwB98EmTKkoLlJu9Byi7AAFCIT8nS/G+XnWGohpfUahVq+J6/72YPqltHAgQDjzwAB144NW6++6A7r23yKhmN3+4YEFARUVpWrQoxyisSy4J6LTTMo3yPPtsByDgYJctSwYQ2vTUU0UGEJYuzde8eX6tW1dkOcTZs9vsRsNhABCgRVFfJwIEcnJMaNWqPL34YkwLFrRq+fICHXecI+5hfUDMM2f6NWtWtimLaThzxuqK2IbaIcMBhFdf7dEttwQM4LgR0XCiJxcgXHHFHpFiYn7bBQhoHVwxESInRxgpy9MvWBDUo48Wi3TS+vVhq6Dg84m5cuYCbYszHqlk0AUIqMQHq/uZk1te9ac/OQDhgQeSAwTGuGxZhz78sEf77ec4J2jPs87KUnl5qtau7TSqua4urtmz/ZYLhi6fPr3F7Mcawf4ADNevdzQI9M/6IzocSVvhAgQiWHLRbnPL6LAP6SeYgRtucFI4iS0ZQEjUIGDH449v1pw5Ocai3XFHyCJvRKmJAOGJJ4oN7NAY89tvx1RTE9Af/oAIcKBQFsEaQDuRxeIwa2xqse/ncHP2xMVTHrf8N2k4T1KA4Npm69aYli8P6v77i7WbIR4wRwACDMKSJfnGCDU1oQnI1Tnn+E35fsIJDbrrLumAA8r1xz9GtWpVQC+9VKoTT2zZCyC8/nqpMQgzZ6bq64d12H6bMztTD27MUsnYHAPqCxdmKje3SVVVleasOjulk05q0oIFeTr1VAeMbt+5U+/81aOHNvosEGD9Ya1Wr27Vxo04mBJjTwAIl14e1LiqKqV4enX8f7Rp+fJCfevbXgUDBAx+LVmSruefT1dmZkSnTO/QX94q15o1QS2/IVWT9iM9lGE6hmQAgf0Qi6UoFgtYnpkxD24ug/DXt8fo5Zf7tHRphvytzaquqjQHuG37DhUXwVSlG9s5e3ZEsVivfv3rHD34YKc2bChSdrZfixen6Oijcywdmey8cAGCo0HwGV0f6eoyJ9fS0qczzmjR+ef3aP36NGNsSC8BIt55p1k33JBubJBbEsreQJ/wk5902H0GmHT7dFMMrpgRrQAOC6fuvJaibdu2q6ys1NIVOH3mynsAhKrKCnNu/A2ogMomKiZiZ7xNTU2moaFDnHZBAVUowzO2BhB2AUSdFCv98n0cHykGHD+OFifIZ3GoTU3N9jcROIwHzhWGAzYDB42mYfy4atXXN9hN6WopEhkU15EP5Qdwxoh0ASiMDVAyttixE39/sm27sUEA5WRr6vf7FQpHDGAl/gAbe83f6tf4ceP6mYldu2o1ZswYPfPM00kBwv77T9Vxxx1rgBVbYXvAFPNhPSaMH7c3QEjCIMDAfLSjWeMri5SZsSegcAFCfm6WSoucSqmdDW0qLsjW6lukLa/4FYpEBgIEnqR47bWLVFPTqk8+ienUU7Pt8Fu82ImcEUeRTmADkkcmD0aqAQYBA8IgcDDPm+cwCIiUoPcuvJCyHIdBuPHGAouK338/Zo4bKvTJJ0N64omxWrKk3RgESuegd8kt3nhjvmkcFixo00EHec2ZkGZAsFRVlaYf/cgR3/H5V16JaP36IlPn09asIbcf0oYNYywfPhJAYPy33z6QQVi8uEOvvhpRaamjAcBJLlqUp6lTk+eYXYAQDqcItT8NADV9eobdDAAEBH7MZf78XEuLkGdEfLn//l699VbUtAE//nGBfZeI/cor28zZYvOamlzLLXI4EfUVFKRavne4GncAAvnfb34zwypT3M0NCLvssqBFopTUPfRQp5VnzZjh5AUHNyJq1oSxMQau89OfhgzUEH2efHKTpkzxWr573Lg0A5jXXJOr6dOb7fqAgcmT0y1yJRXFgY047u67O3TddQW27sM1qPXTT/fb4eiKFAd/HhobAEOKYfBNPBggkLqiDI8G08VhfvvtnVaeV12dZlUa6GXuvbewHyCcdlqzaQ0QxZ1zjmNLdDMwCyjSaYcfnqGTT3bA63nntRm7QVmrq4NxRFrNu6MLB9UHg0Ft+m1Ub/45w0r9ElMUL7zQrRdfRJjn0ebNEcvJ43yTpboACBdcAIOQ11/yhr7krLP8eu65sbrmmlYTOh5ySKZeeaVLCxfmGyCHOYEZyM6uVW8v6cAObdlSYv0CGhELv/v3buXlerRocad+sQHBoE/z5nlUV9+s/SaO7xf1Iixct65Dxx4LNZ2innhAl1ySr6XXx1VbG7ezgfRUzYJuHTCtV6lpHv3xOY/uu8+j/Sb1au6FhTrooB799ncB/ewer7717V79bWuKpkyRrqnxaOs7+Vqxok0TJvYpRRnG9Fx8sTRuQpdq5vu0ek1ygMC59MEHMd11V7a8GX6zuzcDYV2hRe00YxDq6vSPv5cZgFqx0qempob+iO0Pz9Xpt5uytHMnVSB9qh4nnXJyVCeeWGVOHX1FIBDVrl0eOx+HCiZcgIDoEcCEc5o+3avvfa9Q553XqmOOSdXRxwT0t60ltid/9asi5eXF9dd3mrWgJs3OjyOPdFLBXIs1Pvdcv2AJI5FenXGGz1LAroPE6RMV0+obGsypQqV3dHTK39qqysoKc9I4SJw8EbALEKDGO0NhswFOEntB29Ocqo8eA1zB9nbl4FSHoej5TtIUQyBo4wAgtLT47bqlpSX918ehImCMxXqMwWE+AAScNamGhoZGGx8ABqAxoHKjt9cAkau5GO6MoV8XlJAaI4VVUVFhoAFwCPM1lAgTBgGHjDNPrH5oawso0B5UeqrjMwhb+np7rergheefV3Nz84Ah8d3JU6boyCOPNLEkeg0AEWuGrZn3xAnjBwCxoRgE0gcfbm9SdfmYfoGis25OiqGsOM+YBfqsbQioIC9TP17j0YsvNSsSje4NEHjUcjgct/wkBy1I/LDDMixS9fsR3lAakWJ5YG7+jz+O9x981NLjGFCxEzERMXKQf/RR3BwqNbw4RJTfXB+6FMDx7rsxEwDt3Bk3AR7f4fCjf3KdRHYIHdvbe3XooV5TQVMORP9ce9s2EJ+slMoFB3Yj1MetjA+mYaSHxHBtFMOI9xIBMGNCoOg23qNawo0gB282DnaeqQCIchvRtescAAJck4YKHZBEmoS5NjdT/phieo7EGmfEn1QFkKvEmbMWzPf556NM29mkAAAJj0lEQVSm3+DgH041z5i5BtqGoqLEkieZdgBHyTXplzENFQBA33PAQs27/UEFsx6sL30wD3QcrB+RM+WBpEjefDNqIlOEf01Ncft/5sDhPn8+OfMMA33DNUAqwrMpU/b0P/jz2BLbJwOEiQ9KwkmikXAbdoElYI5vvBE1oRvzYM9SCUC0BtMDYGAc7FP2pttYV9T27HnsCCNCoyzyggtaTZTpjskFCMVFgFEH1UMhNzV2Ky0tfy8tDfcdJbbY89BD0zV5smO7ZI3XYVDoy91DaAUQbnKP9fRwD8dN0MY6MjcaexY9RmPTDhUXl2n7No85cvYz99d778U0dmyq9V9X36hNT/Vp1qxSeb0RAzscWIn3CKlH9hUsWEVFi6ZOK1Jaapbdx6w/ufV0b6Md2oUF+aazwVnSsGu6N2KRYqy73NKY7KNp0zx29kgevfZaQH5/WMcfX27i5OxsqNeQIuESq6Jy555oI67PM1QAuJMnpygajVqumGi1tKzUKG0nxVCnwsLxlu4rr4hbVOpSuu/+fZe6ImNMyMd9Egx2qqAwpAMPqLT7F01Oe3vQSiAnTnRA/lCNe4U0HA2nV1aapnHjCm39Jk/mvqpXdfU4CxI417Kz49qxs1GhTspPU+1edstvGQsCYQI6zl72IGfUYA0C0T2VB6QacLJEpzjEVOpsjXXtNd1BaWmptu92iC6Fz39xkqQYYBASG/27FP24hEg52dxHEilyHRyoCxDcOcBmwKIMBgiMq343QGCt0Czk5+db6R/WNSlnQjnmsIuS8GY/czGu2q4BOCJVMRTQACAwt9ISB9i4zRiRUEQVFWUDXgewbd261USeiQ0QwL8pU6b0AwL230gAgTQRqZ/ExjhgEIrH5Kggd8/56gIERIpUMfB3bUPbyADBfdQyC87hMDjn7jqP4Wj2fVmAwVTsSN8Zrl832koWUQ2uIR6pn//L991nRiSz7eD3cIKouQEr558/vGMdaU6Dn20x0ueHe3+odR3q9Tfe6DYW4uab8y1C/iLbvj5q+dPuTXfMg/co60iKCFBBesxxbg64a2puUZbPZ7lfbmK/v83ESzjLZG24Pf5pbEapGqddlg+GY3BevM8cAIegm59mbDhNKhagTfm7obHRHgZUWlJu75EjJRolB0rjQOcwY18x10+27dTY4iIrjaO59iWXjJCMnK9L49p309PVs5tKxUnkZPsMcNpvxPAshVSPqd6JfnFyNPLjnR2dRokn1ukn2obnb/zjHzEtXUoFBs8bcCh2HCGHNMI9dz6T9ptoc0XJTlTKAc1nid5ysrNVXFxkzoCcdFoqAYDzzAjWiddS5OTmnedcjPR4GinQFlCwo8Pmg+MgeiUihzZ3v49tiP4rysv7896D137wOTGYQXDFeKjzsTssAXl0d73Js7Mu1VVVBh6ImL272RX6SgQI0P3sC3ftcOzRaJeqKiuHnfNIDALVBKwn1+HasGuINFlbSzEMYhAMINQ3mq1gISi7xEbY0WU4RkovMDfSfKylq6dAb8Kc3LWH2qfs003PsB8TgcdQAAGbAqITbQkAYEybNm1SgFK+hIZ9pk2bZr/FwPqx5xIBAozChGQMQjKRovrU2NJugsmS4oElxG4VQzKA8OrrbQp2hPbWIFx33WJDLaPty20B0gM8WAbNBqfmPpxBX8oJARBIFVVW7vujpz/rRAAIKNL/Nxt0Ozlm9GDuGuEgw+EucwAcvnaIxXpUNKbAnOMX2Ths2C84gGS54kSA4NKt9vAkD892SLMIEyeKU3EjKZx1MBCUL8tnkRY0MJS169i279hhuVwXILjz4yDE4XF4YQfOHSLE6mrHMUDNYiOfL9Ouy/oh1CJ65T1EYokAgQO9urJySIDAM1p4vkB3t5PjJr2A3XEMgCLYnFiMnG+dEgECKQdK/ZwywS77cR3GxPgBEOXl5f3PhDCw0t5hAIa0Bd8BTIyUl4/3xg2I4JywM0AOgRuRsNtwFqwFjtJNF4y0V3jo046dtabwZwz0gw4BJ8f6EHnjWN3r4fRYLwBfc4tfVZXlSk9QzKNXIHcOmGLtnKodnj3i7AtXwDjcuBDrbd+xy/YQe4JxEWVT5ojdsSvzZM0BIOT1EfeR/yeqNw1ClaNBIMXQDxDGI9xLMTtSbUF1Sk+8x/aju0+GGhdjABhhd0AAKJa1dsWRDvDtNntR6UFpMvOlXDQtzblnW/wtlssfzCBwv6MxCUe6bN9gM9irstJSPfnkk0k1CAcffLCOOuoo64N5umtkJamkGCZO6AfbzNkqU3L2ZhDoO9IVU21TQOMrYPH2BGEfbGtURUl+f5njzvpWFeb5tPoWj7F2DU1tAwFCTs40TZxYo76+0V9zHOnGG33/388C+8ogfJ4zG46N4MDHIaZ4UsyZoMj+ooEeBxMHlPOAmmQMwnZlZnhNBc4DchgPhxLfi8d7zJHwXmJExhxRtxM9Eiv7Mn39qRNs2RV1Dl0nohtoXcbCQczhm5qaZg7BPXD5JAdktLtLfb2Os/B6HUfn0LDx/gftMDbnb+cATtZchoccNSryWHe3PKk8idPX7yBxXl3RbmXZQQ6oI2UFg+L064wpZnNN8TDXrKTrxtoyRtbWKb8b+bdH+A0cnEhfb9xszHwTp2JjMZALmzPy9Rira1/r31jhFFsLp6TTGeNAyhznxVqkKtbT0w8sXHsiTHTXEjDBvmCuzr7IsPTEvuxh1pzPUmFgzpf1jKFLc/RPgAQeIoaDxxbsV65Ln4AeXqNKwP11VsbsagPcOXezpzz7Ni7M6YCcqIE+GgDDZVbc+dM/+5kyS0At43DXAjvQ9+B1c7+LraLdUdsJ3owMsy1gkz3urFVvP/sGowU4BHAwTxfgOeCiS5mZ7jMsYkIcCbNSOKZQebl7P7OBue2o81sJYz7VKrtbONKtDC9MnwMa7MmKqR5t304AYyMaCBCkqZKuJhP1eZ6Ro9catcCXwgJEihxu+3q4fikG/QUPgtptKFzngML5Rc3JU77GAT6wUWkyNFvl5HvdzO/nN3CkiCnDPGf+X+mJOe+jr927GzfB/a8MYNB3vygbfo5DTHIpZ31GTqR8saPY++qf/15075PPumdG2m/7mpJy5wqAAFzTnLSeA7hgZhLZJ7RHlDwCqPa9jQKEfbfV6Cf/7S0wChD2XkKH1ncOmNE2aoFRC/z/sABpH1cA/dln1HdpytSpUw+Mx+NHOBeBQbgKguezX3P0m6MW+JJaIBqlysBR5o+2UQuMWmDUAqMWGNoCqakpW/4HyXC5HCfnB2AAAAAASUVORK5CYII=;" parent="1" vertex="1"><mxGeometry x="50" y="679.3" width="146.42" height="99.4" as="geometry"/></mxCell><mxCell id="2h53RSlkPhJ42PSNKKhC-45" value="" style="shape=image;html=1;verticalAlign=top;verticalLabelPosition=bottom;labelBackgroundColor=#ffffff;imageAspect=0;aspect=fixed;image=https://cdn1.iconfinder.com/data/icons/Futurosoft%20Icons%200.5.2/128x128/mimetypes/binary.png;fontSize=19;" parent="1" vertex="1"><mxGeometry x="220" y="670" width="48" height="48" as="geometry"/></mxCell><mxCell id="2h53RSlkPhJ42PSNKKhC-46" value="" style="shape=image;html=1;verticalAlign=top;verticalLabelPosition=bottom;labelBackgroundColor=#ffffff;imageAspect=0;aspect=fixed;image=https://cdn3.iconfinder.com/data/icons/cad-database-presentation-spreadsheet-vector-fil-2/512/19-128.png;fontSize=19;" parent="1" vertex="1"><mxGeometry x="382" y="670" width="48" height="48" as="geometry"/></mxCell><mxCell id="2h53RSlkPhJ42PSNKKhC-48" value="" style="dashed=0;outlineConnect=0;html=1;align=center;labelPosition=center;verticalLabelPosition=bottom;verticalAlign=top;shape=mxgraph.weblogos.json;fontSize=19;" parent="1" vertex="1"><mxGeometry x="730" y="680.8299999999999" width="32" height="34.65" as="geometry"/></mxCell><mxCell id="2h53RSlkPhJ42PSNKKhC-52" value="" style="dashed=0;outlineConnect=0;html=1;align=center;labelPosition=center;verticalLabelPosition=bottom;verticalAlign=top;shape=mxgraph.weblogos.json;fontSize=19;" parent="1" vertex="1"><mxGeometry x="170" y="420.83" width="32" height="34.65" as="geometry"/></mxCell><mxCell id="OKXJbW4fyxSgOFdWdKQn-2" value="Frontend API" style="text;html=1;strokeColor=none;fillColor=none;align=center;verticalAlign=middle;whiteSpace=wrap;rounded=0;dashed=1;fontStyle=1" parent="1" vertex="1"><mxGeometry x="422.26" y="304" width="102" height="30" as="geometry"/></mxCell><mxCell id="gWZWCoP-DDjCs7tJkQ3K-9" style="edgeStyle=orthogonalEdgeStyle;rounded=0;orthogonalLoop=1;jettySize=auto;html=1;entryX=0;entryY=0.75;entryDx=0;entryDy=0;entryPerimeter=0;dashed=1;strokeColor=#0000FF;" parent="1" source="2h53RSlkPhJ42PSNKKhC-5" target="gWZWCoP-DDjCs7tJkQ3K-4" edge="1"><mxGeometry relative="1" as="geometry"><Array as="points"><mxPoint x="620" y="450"/><mxPoint x="620" y="339"/></Array></mxGeometry></mxCell><mxCell id="2h53RSlkPhJ42PSNKKhC-5" value="&lt;b&gt;Lambda&lt;/b&gt;&lt;br&gt;Attendees API" style="sketch=0;points=[[0,0,0],[0.25,0,0],[0.5,0,0],[0.75,0,0],[1,0,0],[0,1,0],[0.25,1,0],[0.5,1,0],[0.75,1,0],[1,1,0],[0,0.25,0],[0,0.5,0],[0,0.75,0],[1,0.25,0],[1,0.5,0],[1,0.75,0]];outlineConnect=0;fontColor=#232F3E;gradientColor=#F78E04;gradientDirection=north;fillColor=#D05C17;strokeColor=#ffffff;dashed=0;verticalLabelPosition=bottom;verticalAlign=top;align=center;html=1;fontSize=12;fontStyle=0;aspect=fixed;shape=mxgraph.aws4.resourceIcon;resIcon=mxgraph.aws4.lambda;" parent="1" vertex="1"><mxGeometry x="486.08000000000004" y="430" width="78" height="78" as="geometry"/></mxCell><mxCell id="2h53RSlkPhJ42PSNKKhC-26" style="edgeStyle=orthogonalEdgeStyle;rounded=0;orthogonalLoop=1;jettySize=auto;html=1;" parent="1" source="2h53RSlkPhJ42PSNKKhC-8" target="2h53RSlkPhJ42PSNKKhC-5" edge="1"><mxGeometry relative="1" as="geometry"/></mxCell><mxCell id="7" style="edgeStyle=orthogonalEdgeStyle;rounded=0;orthogonalLoop=1;jettySize=auto;html=1;startArrow=classic;startFill=1;" edge="1" parent="1" source="2h53RSlkPhJ42PSNKKhC-8" target="6"><mxGeometry relative="1" as="geometry"/></mxCell><mxCell id="2h53RSlkPhJ42PSNKKhC-8" value="&lt;b&gt;API Gateway&lt;/b&gt;" style="sketch=0;points=[[0,0,0],[0.25,0,0],[0.5,0,0],[0.75,0,0],[1,0,0],[0,1,0],[0.25,1,0],[0.5,1,0],[0.75,1,0],[1,1,0],[0,0.25,0],[0,0.5,0],[0,0.75,0],[1,0.25,0],[1,0.5,0],[1,0.75,0]];outlineConnect=0;fontColor=#232F3E;gradientColor=#945DF2;gradientDirection=north;fillColor=#5A30B5;strokeColor=#ffffff;dashed=0;verticalLabelPosition=bottom;verticalAlign=top;align=center;html=1;fontSize=12;fontStyle=0;aspect=fixed;shape=mxgraph.aws4.resourceIcon;resIcon=mxgraph.aws4.api_gateway;" parent="1" vertex="1"><mxGeometry x="230" y="430" width="78" height="78" as="geometry"/></mxCell><mxCell id="OKXJbW4fyxSgOFdWdKQn-11" value="GET /attendees&lt;br&gt;&lt;span style=&quot;text-align: center&quot;&gt;GET /attendee/{authCode}&lt;br&gt;GET /report&lt;br&gt;PUT /attendee&lt;br&gt;&lt;/span&gt;" style="text;html=1;strokeColor=none;fillColor=none;align=left;verticalAlign=middle;whiteSpace=wrap;rounded=0;dashed=1;" parent="1" vertex="1"><mxGeometry x="320" y="490" width="160" height="30" as="geometry"/></mxCell><mxCell id="OKXJbW4fyxSgOFdWdKQn-15" value="" style="rounded=0;whiteSpace=wrap;html=1;dashed=1;fillColor=none;" parent="1" vertex="1"><mxGeometry x="30" y="630" width="500" height="210" as="geometry"/></mxCell><mxCell id="OKXJbW4fyxSgOFdWdKQn-16" value="Local BAMS Install" style="text;html=1;strokeColor=none;fillColor=none;align=center;verticalAlign=middle;whiteSpace=wrap;rounded=0;dashed=1;fontStyle=1" parent="1" vertex="1"><mxGeometry x="30" y="630" width="140" height="30" as="geometry"/></mxCell><mxCell id="OKXJbW4fyxSgOFdWdKQn-18" value="Incoming Data Processing" style="text;html=1;strokeColor=none;fillColor=none;align=center;verticalAlign=middle;whiteSpace=wrap;rounded=0;dashed=1;fontStyle=1" parent="1" vertex="1"><mxGeometry x="536" y="630" width="200" height="30" as="geometry"/></mxCell><mxCell id="gWZWCoP-DDjCs7tJkQ3K-2" value="&lt;b&gt;Route53&lt;/b&gt;&lt;br&gt;DNS" style="sketch=0;points=[[0,0,0],[0.25,0,0],[0.5,0,0],[0.75,0,0],[1,0,0],[0,1,0],[0.25,1,0],[0.5,1,0],[0.75,1,0],[1,1,0],[0,0.25,0],[0,0.5,0],[0,0.75,0],[1,0.25,0],[1,0.5,0],[1,0.75,0]];outlineConnect=0;fontColor=#232F3E;gradientColor=#945DF2;gradientDirection=north;fillColor=#5A30B5;strokeColor=#ffffff;dashed=0;verticalLabelPosition=bottom;verticalAlign=top;align=center;html=1;fontSize=12;fontStyle=0;aspect=fixed;shape=mxgraph.aws4.resourceIcon;resIcon=mxgraph.aws4.route_53;" parent="1" vertex="1"><mxGeometry x="-20" y="189" width="78" height="78" as="geometry"/></mxCell><mxCell id="gWZWCoP-DDjCs7tJkQ3K-4" value="&lt;b&gt;CloudWatch&lt;/b&gt;&lt;br&gt;Logging" style="sketch=0;points=[[0,0,0],[0.25,0,0],[0.5,0,0],[0.75,0,0],[1,0,0],[0,1,0],[0.25,1,0],[0.5,1,0],[0.75,1,0],[1,1,0],[0,0.25,0],[0,0.5,0],[0,0.75,0],[1,0.25,0],[1,0.5,0],[1,0.75,0]];points=[[0,0,0],[0.25,0,0],[0.5,0,0],[0.75,0,0],[1,0,0],[0,1,0],[0.25,1,0],[0.5,1,0],[0.75,1,0],[1,1,0],[0,0.25,0],[0,0.5,0],[0,0.75,0],[1,0.25,0],[1,0.5,0],[1,0.75,0]];outlineConnect=0;fontColor=#232F3E;gradientColor=#F34482;gradientDirection=north;fillColor=#BC1356;strokeColor=#ffffff;dashed=0;verticalLabelPosition=bottom;verticalAlign=top;align=center;html=1;fontSize=12;fontStyle=0;aspect=fixed;shape=mxgraph.aws4.resourceIcon;resIcon=mxgraph.aws4.cloudwatch_2;" parent="1" vertex="1"><mxGeometry x="658" y="280" width="78" height="78" as="geometry"/></mxCell><mxCell id="MKGYFfNuaQKKxcBlgZuw-1" value="&lt;b&gt;S3&lt;br&gt;&lt;/b&gt;Kitchen Reports" style="sketch=0;points=[[0,0,0],[0.25,0,0],[0.5,0,0],[0.75,0,0],[1,0,0],[0,1,0],[0.25,1,0],[0.5,1,0],[0.75,1,0],[1,1,0],[0,0.25,0],[0,0.5,0],[0,0.75,0],[1,0.25,0],[1,0.5,0],[1,0.75,0]];outlineConnect=0;gradientDirection=north;fillColor=#d5e8d4;strokeColor=#82b366;dashed=0;verticalLabelPosition=bottom;verticalAlign=top;align=center;html=1;fontSize=12;fontStyle=0;aspect=fixed;shape=mxgraph.aws4.resourceIcon;resIcon=mxgraph.aws4.s3;" parent="1" vertex="1"><mxGeometry x="1180" y="430" width="78" height="78" as="geometry"/></mxCell><mxCell id="MKGYFfNuaQKKxcBlgZuw-10" style="edgeStyle=orthogonalEdgeStyle;rounded=0;orthogonalLoop=1;jettySize=auto;html=1;startArrow=none;startFill=0;" parent="1" source="MKGYFfNuaQKKxcBlgZuw-2" target="MKGYFfNuaQKKxcBlgZuw-1" edge="1"><mxGeometry relative="1" as="geometry"/></mxCell><mxCell id="MKGYFfNuaQKKxcBlgZuw-2" value="&lt;b&gt;Lambda&lt;/b&gt;&lt;br&gt;Kitchen Report Runner" style="sketch=0;points=[[0,0,0],[0.25,0,0],[0.5,0,0],[0.75,0,0],[1,0,0],[0,1,0],[0.25,1,0],[0.5,1,0],[0.75,1,0],[1,1,0],[0,0.25,0],[0,0.5,0],[0,0.75,0],[1,0.25,0],[1,0.5,0],[1,0.75,0]];outlineConnect=0;gradientDirection=north;fillColor=#ffe6cc;strokeColor=#d79b00;dashed=0;verticalLabelPosition=bottom;verticalAlign=top;align=center;html=1;fontSize=12;fontStyle=0;aspect=fixed;shape=mxgraph.aws4.resourceIcon;resIcon=mxgraph.aws4.lambda;" parent="1" vertex="1"><mxGeometry x="1020" y="430" width="78" height="78" as="geometry"/></mxCell><mxCell id="MKGYFfNuaQKKxcBlgZuw-6" style="edgeStyle=orthogonalEdgeStyle;rounded=0;orthogonalLoop=1;jettySize=auto;html=1;" parent="1" source="MKGYFfNuaQKKxcBlgZuw-3" target="MKGYFfNuaQKKxcBlgZuw-5" edge="1"><mxGeometry relative="1" as="geometry"/></mxCell><mxCell id="MKGYFfNuaQKKxcBlgZuw-3" value="&lt;b&gt;SQS&lt;/b&gt;&lt;br&gt;RfE Queue" style="sketch=0;points=[[0,0,0],[0.25,0,0],[0.5,0,0],[0.75,0,0],[1,0,0],[0,1,0],[0.25,1,0],[0.5,1,0],[0.75,1,0],[1,1,0],[0,0.25,0],[0,0.5,0],[0,0.75,0],[1,0.25,0],[1,0.5,0],[1,0.75,0]];outlineConnect=0;gradientDirection=north;fillColor=#f8cecc;strokeColor=#b85450;dashed=0;verticalLabelPosition=bottom;verticalAlign=top;align=center;html=1;fontSize=12;fontStyle=0;aspect=fixed;shape=mxgraph.aws4.resourceIcon;resIcon=mxgraph.aws4.sqs;" parent="1" vertex="1"><mxGeometry x="1010" y="120" width="78" height="78" as="geometry"/></mxCell><mxCell id="MKGYFfNuaQKKxcBlgZuw-7" style="edgeStyle=orthogonalEdgeStyle;rounded=0;orthogonalLoop=1;jettySize=auto;html=1;startArrow=classic;startFill=1;" parent="1" source="MKGYFfNuaQKKxcBlgZuw-5" target="2h53RSlkPhJ42PSNKKhC-2" edge="1"><mxGeometry relative="1" as="geometry"/></mxCell><mxCell id="MKGYFfNuaQKKxcBlgZuw-5" value="&lt;b&gt;Lambda&lt;/b&gt;&lt;br&gt;Anonymiser" style="sketch=0;points=[[0,0,0],[0.25,0,0],[0.5,0,0],[0.75,0,0],[1,0,0],[0,1,0],[0.25,1,0],[0.5,1,0],[0.75,1,0],[1,1,0],[0,0.25,0],[0,0.5,0],[0,0.75,0],[1,0.25,0],[1,0.5,0],[1,0.75,0]];outlineConnect=0;gradientDirection=north;fillColor=#ffe6cc;strokeColor=#d79b00;dashed=0;verticalLabelPosition=bottom;verticalAlign=top;align=center;html=1;fontSize=12;fontStyle=0;aspect=fixed;shape=mxgraph.aws4.resourceIcon;resIcon=mxgraph.aws4.lambda;" parent="1" vertex="1"><mxGeometry x="800" y="120" width="78" height="78" as="geometry"/></mxCell><mxCell id="MKGYFfNuaQKKxcBlgZuw-14" style="edgeStyle=orthogonalEdgeStyle;rounded=0;orthogonalLoop=1;jettySize=auto;html=1;startArrow=none;startFill=0;" parent="1" source="MKGYFfNuaQKKxcBlgZuw-13" target="MKGYFfNuaQKKxcBlgZuw-3" edge="1"><mxGeometry relative="1" as="geometry"/></mxCell><mxCell id="MKGYFfNuaQKKxcBlgZuw-13" value="&lt;b&gt;SNS&lt;/b&gt;&lt;br&gt;RfE Notifications" style="sketch=0;points=[[0,0,0],[0.25,0,0],[0.5,0,0],[0.75,0,0],[1,0,0],[0,1,0],[0.25,1,0],[0.5,1,0],[0.75,1,0],[1,1,0],[0,0.25,0],[0,0.5,0],[0,0.75,0],[1,0.25,0],[1,0.5,0],[1,0.75,0]];outlineConnect=0;gradientDirection=north;fillColor=#f8cecc;strokeColor=#b85450;dashed=0;verticalLabelPosition=bottom;verticalAlign=top;align=center;html=1;fontSize=12;fontStyle=0;aspect=fixed;shape=mxgraph.aws4.resourceIcon;resIcon=mxgraph.aws4.sns;" parent="1" vertex="1"><mxGeometry x="1180" y="120" width="78" height="78" as="geometry"/></mxCell><mxCell id="MKGYFfNuaQKKxcBlgZuw-15" value="" style="rounded=0;whiteSpace=wrap;html=1;fillColor=none;" parent="1" vertex="1"><mxGeometry x="779" y="60" width="531" height="230" as="geometry"/></mxCell><mxCell id="MKGYFfNuaQKKxcBlgZuw-16" value="&lt;b&gt;Requirement&lt;/b&gt;: we need to be GDPR compliant and anonymise a user when they ask for their details to be erased" style="text;html=1;strokeColor=none;fillColor=none;align=center;verticalAlign=middle;whiteSpace=wrap;rounded=0;" parent="1" vertex="1"><mxGeometry x="800" y="73.47" width="490" height="30" as="geometry"/></mxCell><mxCell id="MKGYFfNuaQKKxcBlgZuw-18" value="&lt;b&gt;Requirement&lt;/b&gt;: our kitchen team need to know&lt;br&gt;how much food to buy and how many meals to cook on an hourly basis" style="text;html=1;strokeColor=none;fillColor=none;align=center;verticalAlign=middle;whiteSpace=wrap;rounded=0;" parent="1" vertex="1"><mxGeometry x="1000" y="370" width="300" height="30" as="geometry"/></mxCell><mxCell id="4" value="" style="group" vertex="1" connectable="0" parent="1"><mxGeometry x="211.5" y="74" width="312.76" height="170" as="geometry"/></mxCell><mxCell id="OKXJbW4fyxSgOFdWdKQn-13" value="" style="rounded=0;whiteSpace=wrap;html=1;fillColor=none;dashed=1;container=0;" parent="4" vertex="1"><mxGeometry width="312.76" height="170" as="geometry"/></mxCell><mxCell id="2h53RSlkPhJ42PSNKKhC-55" value="" style="shape=image;html=1;verticalAlign=top;verticalLabelPosition=bottom;labelBackgroundColor=#ffffff;imageAspect=0;aspect=fixed;image=https://cdn0.iconfinder.com/data/icons/file-type-19/512/file__css__web_-128.png;fontSize=19;" parent="4" vertex="1"><mxGeometry x="268.76" y="33.47" width="36" height="36" as="geometry"/></mxCell><mxCell id="2h53RSlkPhJ42PSNKKhC-56" value="" style="shape=image;html=1;verticalAlign=top;verticalLabelPosition=bottom;labelBackgroundColor=#ffffff;imageAspect=0;aspect=fixed;image=https://cdn1.iconfinder.com/data/icons/Futurosoft%20Icons%200.5.2/128x128/mimetypes/js.png;fontSize=19;" parent="4" vertex="1"><mxGeometry x="236.23000000000002" y="33.47" width="34.53" height="34.53" as="geometry"/></mxCell><mxCell id="2h53RSlkPhJ42PSNKKhC-57" value="" style="shape=image;html=1;verticalAlign=top;verticalLabelPosition=bottom;labelBackgroundColor=#ffffff;imageAspect=0;aspect=fixed;image=https://cdn0.iconfinder.com/data/icons/file-type-19/512/file__html__web_-128.png;fontSize=19;" parent="4" vertex="1"><mxGeometry x="236.23000000000002" y="74" width="36" height="36" as="geometry"/></mxCell><mxCell id="2h53RSlkPhJ42PSNKKhC-58" value="&lt;b style=&quot;color: rgb(0, 0, 0);&quot;&gt;S3&lt;/b&gt;&lt;br style=&quot;color: rgb(0, 0, 0);&quot;&gt;&lt;span style=&quot;color: rgb(0, 0, 0);&quot;&gt;File Storage&lt;/span&gt;" style="sketch=0;points=[[0,0,0],[0.25,0,0],[0.5,0,0],[0.75,0,0],[1,0,0],[0,1,0],[0.25,1,0],[0.5,1,0],[0.75,1,0],[1,1,0],[0,0.25,0],[0,0.5,0],[0,0.75,0],[1,0.25,0],[1,0.5,0],[1,0.75,0]];outlineConnect=0;fontColor=#232F3E;gradientColor=#60A337;gradientDirection=north;fillColor=#277116;strokeColor=#ffffff;dashed=0;verticalLabelPosition=bottom;verticalAlign=top;align=center;html=1;fontSize=12;fontStyle=0;aspect=fixed;shape=mxgraph.aws4.resourceIcon;resIcon=mxgraph.aws4.s3;" parent="4" vertex="1"><mxGeometry x="152.76" y="32" width="78" height="78" as="geometry"/></mxCell><mxCell id="OKXJbW4fyxSgOFdWdKQn-14" value="Frontend Website (Static)" style="text;html=1;strokeColor=none;fillColor=none;align=center;verticalAlign=middle;whiteSpace=wrap;rounded=0;dashed=1;fontStyle=1" parent="4" vertex="1"><mxGeometry x="10.289999999999992" width="176.53" height="30" as="geometry"/></mxCell><mxCell id="gWZWCoP-DDjCs7tJkQ3K-1" value="&lt;b&gt;API Gateway&lt;/b&gt;&lt;br&gt;Routing" style="sketch=0;points=[[0,0,0],[0.25,0,0],[0.5,0,0],[0.75,0,0],[1,0,0],[0,1,0],[0.25,1,0],[0.5,1,0],[0.75,1,0],[1,1,0],[0,0.25,0],[0,0.5,0],[0,0.75,0],[1,0.25,0],[1,0.5,0],[1,0.75,0]];outlineConnect=0;fontColor=#232F3E;gradientColor=#945DF2;gradientDirection=north;fillColor=#5A30B5;strokeColor=#ffffff;dashed=0;verticalLabelPosition=bottom;verticalAlign=top;align=center;html=1;fontSize=12;fontStyle=0;aspect=fixed;shape=mxgraph.aws4.resourceIcon;resIcon=mxgraph.aws4.cloudfront;" parent="4" vertex="1"><mxGeometry x="23.75999999999999" y="32" width="78" height="78" as="geometry"/></mxCell><mxCell id="2h53RSlkPhJ42PSNKKhC-29" style="edgeStyle=orthogonalEdgeStyle;rounded=0;orthogonalLoop=1;jettySize=auto;html=1;" parent="4" source="gWZWCoP-DDjCs7tJkQ3K-1" target="2h53RSlkPhJ42PSNKKhC-58" edge="1"><mxGeometry relative="1" as="geometry"><mxPoint x="202.76" y="71" as="targetPoint"/><mxPoint x="100.75999999999999" y="71" as="sourcePoint"/></mxGeometry></mxCell><mxCell id="gWZWCoP-DDjCs7tJkQ3K-5" value="" style="shape=image;verticalLabelPosition=bottom;labelBackgroundColor=default;verticalAlign=top;aspect=fixed;imageAspect=0;image=https://upload.wikimedia.org/wikipedia/commons/thumb/1/1b/Svelte_Logo.svg/1200px-Svelte_Logo.svg.png;" parent="4" vertex="1"><mxGeometry x="273.28999999999996" y="74" width="29.47" height="35.48" as="geometry"/></mxCell><mxCell id="6" value="&lt;b&gt;Lambda&lt;/b&gt;&lt;br&gt;Authorizer" style="sketch=0;points=[[0,0,0],[0.25,0,0],[0.5,0,0],[0.75,0,0],[1,0,0],[0,1,0],[0.25,1,0],[0.5,1,0],[0.75,1,0],[1,1,0],[0,0.25,0],[0,0.5,0],[0,0.75,0],[1,0.25,0],[1,0.5,0],[1,0.75,0]];outlineConnect=0;fontColor=#232F3E;gradientColor=#F78E04;gradientDirection=north;fillColor=#D05C17;strokeColor=#ffffff;dashed=0;verticalLabelPosition=bottom;verticalAlign=top;align=center;html=1;fontSize=12;fontStyle=0;aspect=fixed;shape=mxgraph.aws4.resourceIcon;resIcon=mxgraph.aws4.lambda;" vertex="1" parent="1"><mxGeometry x="249.5" y="310" width="39" height="39" as="geometry"/></mxCell><mxCell id="8" value="" style="dashed=0;outlineConnect=0;html=1;align=center;labelPosition=center;verticalLabelPosition=bottom;verticalAlign=top;shape=mxgraph.weblogos.json;fontSize=19;" vertex="1" parent="1"><mxGeometry x="440" y="420.83" width="32" height="34.65" as="geometry"/></mxCell><mxCell id="9" value="" style="dashed=0;outlineConnect=0;html=1;align=center;labelPosition=center;verticalLabelPosition=bottom;verticalAlign=top;shape=mxgraph.weblogos.json;fontSize=19;" vertex="1" parent="1"><mxGeometry x="747" y="420.83" width="32" height="34.65" as="geometry"/></mxCell><mxCell id="10" value="" style="dashed=0;outlineConnect=0;html=1;align=center;labelPosition=center;verticalLabelPosition=bottom;verticalAlign=top;shape=mxgraph.weblogos.json;fontSize=19;" vertex="1" parent="1"><mxGeometry x="930" y="680.8299999999999" width="32" height="34.65" as="geometry"/></mxCell><mxCell id="11" value="" style="dashed=0;outlineConnect=0;html=1;align=center;labelPosition=center;verticalLabelPosition=bottom;verticalAlign=top;shape=mxgraph.weblogos.json;fontSize=19;" vertex="1" parent="1"><mxGeometry x="570" y="683.3499999999999" width="32" height="34.65" as="geometry"/></mxCell><mxCell id="13" value="&lt;i&gt;HTTP Basic Auth&lt;/i&gt;" style="text;html=1;strokeColor=none;fillColor=none;align=center;verticalAlign=middle;whiteSpace=wrap;rounded=0;" vertex="1" parent="1"><mxGeometry x="274" y="390.83" width="60" height="30" as="geometry"/></mxCell></root></mxGraphModel></diagram></mxfile>